<?xml version="1.0" encoding="utf-8"?>
<!-- Generator: Adobe Illustrator 21.0.0, SVG Export Plug-In . SVG Version: 6.00 Build 0)  -->
<!DOCTYPE svg PUBLIC "-//W3C//DTD SVG 1.1//EN" "http://www.w3.org/Graphics/SVG/1.1/DTD/svg11.dtd">
<svg version="1.1" id="main1" xmlns="http://www.w3.org/2000/svg" xmlns:xlink="http://www.w3.org/1999/xlink" x="0px" y="0px"
	 width="1280px" height="640px" viewBox="0 0 1280 640" style="enable-background:new 0 0 1280 640;" xml:space="preserve">
<style type="text/css">
	.st0{fill:#A6BCCF;fill-opacity:0.3961;}
	.st1{fill:#88A7BC;}
	.st2{fill:none;stroke:#2B2E37;stroke-width:0.283;stroke-linecap:round;}
	.st3{fill:#89A7BB;}
	.st4{fill:none;stroke:#2B2E37;stroke-width:0.25;}
	.st5{fill:#FFFFFF;}
	.st6{clip-path:url(#SVGID_5_);}
	.st7{clip-path:url(#SVGID_6_);}
	.st8{fill:#A6BCCF;}
	.st9{fill:#5D859F;}
	.st10{fill:none;stroke:#221F1F;stroke-width:0.25;}
	.st11{fill:#A6BCCE;}
	.st12{fill:#82A1B8;}
	.st13{fill:#A6BCCE;stroke:#221F1F;stroke-width:0.25;}
	.st14{fill:#89A7BB;stroke:#221F1F;stroke-width:0.25;}
	.st15{fill:none;stroke:#2B2E37;stroke-width:0.25;stroke-linecap:round;}
	.st16{fill:none;stroke:#2B2E37;stroke-width:0.25;stroke-linecap:round;stroke-dasharray:9,7;}
	.st17{fill:none;stroke:#2B2E37;stroke-width:0.25;stroke-linecap:round;stroke-dasharray:9.816,7.816;}
	.st18{fill:none;stroke:#2B2E37;stroke-width:0.25;stroke-linecap:round;stroke-dasharray:9.036,7.036;}
	.st19{fill:none;stroke:#2B2E37;stroke-width:0.25;stroke-linecap:round;stroke-dasharray:9.052,7.052;}
	.st20{fill:#2B2E37;}
	.st21{fill:none;stroke:#808080;stroke-width:8.000000e-03;stroke-linecap:round;}
	.st22{fill:none;stroke:#2B2E36;stroke-width:1.3;}
	.st23{clip-path:url(#SVGID_9_);}
	.st24{clip-path:url(#SVGID_10_);}
	.st25{clip-path:url(#SVGID_13_);}
	.st26{clip-path:url(#SVGID_14_);}
	.st27{clip-path:url(#SVGID_17_);}
	.st28{clip-path:url(#SVGID_18_);}
	.st29{fill:#221F1F;}
	.st30{fill:#A28D70;}
	.st31{fill:#88A7BC;stroke:#221F1F;stroke-width:0.25;}
</style>
<g>
	<path class="st0" d="M714.9,387.3H555.8l0,0V131.7l0,0h159L714.9,387.3L714.9,387.3z"/>
	<path class="st0" d="M513.2,400.8L434,355.1l0,0v-70.2l0,0h93.9l0,0l0.2,51.3l0,0h22.3l0,0v34.9l0,0h-20.1L513.2,400.8z"/>
	<path class="st0" d="M550.4,279.5h-137l0,0V134.4l0,0h137V279.5z"/>
	<path class="st1" d="M733,122h-28.1l0,0V60.1l0,0H733V122z"/>
	<path class="st2" d="M456.6,353.8v-34.3 M456.6,319.1v-34.2 M480.4,382v-97.1 M504.2,395.7v-15.8 M504.2,374.3V285 M528.1,375
		v-38.8 M523.6,382.8h-20.8 M487.4,382.8h-5.6 M550.4,358.9h-74.6 M453.6,358.9h-13.1 M529.4,335.3H434 M505.3,311.3H434
		 M505.3,287.4H434"/>
	<path class="st3" d="M472,376.8l9.4-16.2l0,0l-47.3-27.5l0,0l-0.1,22L472,376.8z"/>
	<path class="st4" d="M472,376.8l9.4-16.2l0,0l-47.3-27.5l0,0l-0.1,22l0,0L472,376.8z"/>
	<path class="st5" d="M526.2,134.4h-63.4l0,0v-8.6l0,0h63.4V134.4z"/>
	<g>
		<g transform="matrix(1.333333 0 0 1.333333 0 0)">
			<path class="st5" d="M645.8,122.2h-35.9l0,0V52.8l0,0h35.9V122.2z"/>
			<path class="st5" d="M609.9,122.2H336.5l0,0V52.8l0,0h273.5V122.2z"/>
			<path class="st5" d="M592.7,128.5h-90.4l0,0v-6.3l0,0h90.4V128.5z"/>
			<path class="st5" d="M463.7,271.8h-4.5l0,0v-29.6l0,0h4.5V271.8z"/>
			<path class="st5" d="M463.6,365h-4.5l0,0v-29.6l0,0h4.5V365z"/>
			<path class="st5" d="M597.5,388.6h-38.4l0,0v-9.1l0,0h38.4V388.6z"/>
			<path class="st5" d="M380.5,389.8l-7.8,13.5l0,0l36.1,20.8l0,0l3-5.4l0,0l-9.9-5.8l0,0l4.8-8.1L380.5,389.8z"/>
			<path class="st5" d="M322.2,347.4l15,8.7l0,0v-74.7l0,0h-15V347.4z"/>
			<g>
				<g>
					<defs>
						<polygon id="SVGID_1_" points="309.7,46.7 650.3,46.7 650.3,46.7 650.3,435 650.3,435 309.7,435 						"/>
					</defs>
					<clipPath id="SVGID_2_">
						<use xlink:href="#SVGID_1_"  style="overflow:visible;"/>
					</clipPath>
				</g>
				<g>
					<defs>
						<polygon id="SVGID_3_" points="309.7,46.7 650.3,46.7 650.3,46.7 650.3,435 650.3,435 309.7,435 						"/>
					</defs>
					<defs>
						<polygon id="SVGID_4_" points="309.7,46.7 650.3,46.7 650.3,46.7 650.3,435 650.3,435 309.7,435 						"/>
					</defs>
					<clipPath id="SVGID_5_">
						<use xlink:href="#SVGID_3_"  style="overflow:visible;"/>
					</clipPath>
					<clipPath id="SVGID_6_" class="st6">
						<use xlink:href="#SVGID_4_"  style="overflow:visible;"/>
					</clipPath>
					<g class="st7">
						<path class="st3" d="M400.9,371.2c2.2-3.7,6.5-5.2,9.6-3.3s4,6.3,1.9,10l0,0l-6.1,10.5l0,0l-11.5-6.7L400.9,371.2z"/>
						<path class="st3" d="M412.4,276h-90.2l0,0v-22.5l0,0h90.2V276z"/>
						<path class="st3" d="M464.6,327H442l0,0v-45.1l0,0h22.5V327z"/>
						<path class="st3" d="M557,366.9h-22.5l0,0v-91.2l0,0H557V366.9z"/>
						<path class="st3" d="M623.1,344.4h-22.5l0,0v-68.7l0,0h22.5V344.4z"/>
						<path class="st3" d="M623.1,366.9h-21.8l0,0v-22.6l0,0h21.8V366.9z"/>
						<path class="st3" d="M342.7,281.9h34.2l0,0v33.8l0,0h-34.2V281.9z"/>
						<path class="st3" d="M367.9,345.8L367.9,345.8L367.9,345.8l19.5,11.2l0,0l-8.9,15.3l0,0L359,361.1L367.9,345.8z"/>
						<path class="st8" d="M368.4,348l16.8,9.7l0,0l-5.5,9.6l0,0l-16.9-9.6L368.4,348z"/>
						<path class="st8" d="M409.9,368.9c-2.6-1.5-6.2-0.2-8,3c-1.8,3.2-1.2,6.9,1.4,8.4c2.6,1.5,6.2,0.2,8-3
							C413.1,374.1,412.6,370.4,409.9,368.9"/>
						<path class="st3" d="M436.6,281.9h-22.5l0,0V327l0,0h22.5V281.9z"/>
						<path class="st9" d="M623.1,299.6h-22.5l0,0v22.5l0,0h22.5V299.6z"/>
						<path class="st3" d="M623.1,322.1h-22.4l0,0v-22.8l0,0h22.4V322.1z"/>
						<path class="st10" d="M623,322h-22.4l0,0v-22.8l0,0H623V322z"/>
						<path class="st11" d="M614,305.8c0,1.7,1.3,3,3,3c1.6,0,3-1.3,3-3s-1.3-3-3-3S614,304.2,614,305.8"/>
						<path class="st10" d="M614,305.8c0,1.7,1.3,3,3,3c1.6,0,3-1.3,3-3s-1.3-3-3-3S614,304.2,614,305.8z"/>
						<path class="st11" d="M604.3,305.8c0,1.9,1.5,3.4,3.4,3.4s3.4-1.5,3.4-3.4s-1.5-3.4-3.4-3.4S604.3,303.9,604.3,305.8"/>
						<path class="st10" d="M604.3,305.8c0,1.9,1.5,3.4,3.4,3.4s3.4-1.5,3.4-3.4s-1.5-3.4-3.4-3.4S604.3,303.9,604.3,305.8z"/>
						<path class="st11" d="M613.5,315.4c0,1.9,1.5,3.4,3.4,3.4s3.4-1.5,3.4-3.4s-1.5-3.4-3.4-3.4S613.5,313.6,613.5,315.4"/>
						<path class="st10" d="M613.5,315.4c0,1.9,1.5,3.4,3.4,3.4s3.4-1.5,3.4-3.4s-1.5-3.4-3.4-3.4S613.5,313.6,613.5,315.4z"/>
						<path class="st11" d="M604.7,315.4c0,1.7,1.3,3,3,3c1.6,0,3-1.3,3-3s-1.3-3-3-3S604.7,313.9,604.7,315.4"/>
						<path class="st10" d="M604.7,315.4c0,1.7,1.3,3,3,3c1.6,0,3-1.3,3-3s-1.3-3-3-3S604.7,313.9,604.7,315.4z"/>
						<path class="st12" d="M603,308.9c0,0.2,0.2,0.4,0.4,0.4s0.4-0.2,0.4-0.4s-0.2-0.4-0.4-0.4S603,308.7,603,308.9"/>
						<path class="st10" d="M603,308.9c0,0.2,0.2,0.4,0.4,0.4s0.4-0.2,0.4-0.4s-0.2-0.4-0.4-0.4S603,308.7,603,308.9z"/>
						<path class="st12" d="M603,310.2c0,0.2,0.2,0.4,0.4,0.4s0.4-0.2,0.4-0.4s-0.2-0.4-0.4-0.4S603,310,603,310.2"/>
						<path class="st10" d="M603,310.2c0,0.2,0.2,0.4,0.4,0.4s0.4-0.2,0.4-0.4s-0.2-0.4-0.4-0.4S603,310,603,310.2z"/>
						<path class="st12" d="M603,311.5c0,0.2,0.2,0.4,0.4,0.4s0.4-0.2,0.4-0.4c0-0.2-0.2-0.4-0.4-0.4S603,311.3,603,311.5"/>
						<path class="st10" d="M603,311.5c0,0.2,0.2,0.4,0.4,0.4s0.4-0.2,0.4-0.4c0-0.2-0.2-0.4-0.4-0.4S603,311.3,603,311.5z"/>
						<path class="st12" d="M603,312.8c0,0.2,0.2,0.4,0.4,0.4s0.4-0.2,0.4-0.4c0-0.2-0.2-0.4-0.4-0.4S603,312.6,603,312.8"/>
						<path class="st10" d="M603,312.8c0,0.2,0.2,0.4,0.4,0.4s0.4-0.2,0.4-0.4c0-0.2-0.2-0.4-0.4-0.4S603,312.6,603,312.8z"/>
						<path class="st10" d="M602.2,320.4h19l0,0v-19.6l0,0h-19V320.4z"/>
						<path class="st10" d="M623.1,299.6h-22.5l0,0v22.5l0,0h22.5V299.6z"/>
						<path class="st13" d="M534.5,321.8H557l0,0v22.5l0,0h-22.5V321.8z"/>
						<path class="st14" d="M539.3,325v-0.1l0,0h14.3l0,0v16.5l0,0h-14.3l0,0v-7.9"/>
						<path class="st3" d="M537.4,332.2c0.3,0,0.5,0.1,0.6,0.4l0,0h7l0,0v1.1l0,0h-7c-0.1,0.2-0.4,0.4-0.6,0.4
							c-0.5,0-0.9-0.4-0.9-0.9C536.6,332.6,537,332.2,537.4,332.2"/>
						<path class="st10" d="M537.4,332.2c0.3,0,0.5,0.1,0.6,0.4l0,0h7l0,0v1.1l0,0h-7c-0.1,0.2-0.4,0.4-0.6,0.4
							c-0.5,0-0.9-0.4-0.9-0.9C536.6,332.6,537,332.2,537.4,332.2z"/>
						<path class="st10" d="M539.3,332.6v-7.8"/>
						<path class="st8" d="M344.9,313.6l32.1,2.1l0,0v-33.8l0,0l-32.1,1.6V313.6L344.9,313.6z"/>
						<path class="st3" d="M342.7,299.2h3.7l0,0v-1.1l0,0h-3.7V299.2z"/>
						<path class="st15" d="M451.2,388.6h13.1"/>
						<path class="st15" d="M527.8,388.6h31.1"/>
						<path class="st15" d="M597.6,388.6h33"/>
						<path class="st15" d="M597.6,367.6h25.5"/>
						<path class="st15" d="M529,367.6h-1.2"/>
						<path class="st15" d="M558.9,367.6h-24.4"/>
						<path class="st15" d="M597.6,388.6v-21"/>
						<path class="st15" d="M558.9,388.6v-21"/>
						<path class="st15" d="M527.8,388.6v-21"/>
						<path class="st15" d="M464.3,388.6v-21"/>
						<path class="st15" d="M464.3,384.6h-15.4"/>
						<path class="st15" d="M630.6,384.6h-33"/>
						<path class="st15" d="M558.9,384.6h-31.1"/>
						<path class="st15" d="M443.4,375.2h20.8"/>
						<path class="st15" d="M630.6,375.2h-33"/>
						<path class="st15" d="M558.9,375.2h-31.1"/>
						<path class="st15" d="M464.3,384.2h-15.6"/>
						<path class="st15" d="M630.6,384.2h-33"/>
						<path class="st15" d="M558.9,384.2h-31.1"/>
						<path class="st15" d="M433,420.1l18.1-31.5"/>
						<path class="st15" d="M439.1,367.6h8.6"/>
						<path class="st15" d="M447.7,367.6h16.5"/>
						<path class="st15" d="M414.9,409.6l6.5,3.7"/>
						<path class="st15" d="M425.1,406.9l18.3-31.7"/>
						<path class="st15" d="M429.5,418l19.3-33.5"/>
						<path class="st15" d="M429.2,417.9l19.4-33.7"/>
						<path class="st15" d="M322.2,143.2h49.2"/>
						<path class="st15" d="M464.6,143.2h37.5"/>
						<path class="st15" d="M435,143.2h24.2"/>
						<path class="st15" d="M630.6,143.2h15.1"/>
						<path class="st15" d="M592.7,143.2h30.4"/>
						<path class="st15" d="M645.8,122.2h-53.1"/>
						<path class="st15" d="M502.1,122.2H435"/>
						<path class="st15" d="M371.5,122.2h-35.8"/>
						<path class="st15" d="M645.8,143.2v-21"/>
						<path class="st15" d="M371.5,143.2v-21"/>
						<path class="st15" d="M435,143.2v-21"/>
						<path class="st15" d="M502.1,143.2v-21"/>
						<path class="st15" d="M592.7,143.2v-21"/>
						<path class="st15" d="M371.5,135.7h-49.3"/>
						<path class="st15" d="M322.2,143.2v-10.5"/>
						<path class="st15" d="M645.8,135.7h-53.1"/>
						<path class="st15" d="M502.1,135.7H435"/>
						<path class="st15" d="M502.1,126.3H435"/>
						<path class="st15" d="M645.8,126.3h-53.1"/>
						<path class="st15" d="M371.5,126.3h-39.8"/>
						<path class="st15" d="M502.1,126.7H435"/>
						<path class="st15" d="M645.8,126.7h-53.1"/>
						<path class="st15" d="M371.5,126.7h-40.2"/>
						<path class="st15" d="M322.2,143.2V276"/>
						<path class="st15" d="M322.2,281.4v66"/>
						<path class="st15" d="M322.2,132.8h-7.1"/>
						<path class="st15" d="M331.3,122.2h-9.1l0,0v10.5l0,0h9L331.3,122.2L331.3,122.2z"/>
						<path class="st15" d="M331.3,126.6h-9.1"/>
						<path class="st15" d="M335.7,122.2V52.8"/>
						<path class="st15" d="M314.7,132.8V52.1"/>
						<path class="st15" d="M331.6,52.8v73.4"/>
						<path class="st15" d="M322.2,132.8h-7.5"/>
						<path class="st15" d="M322.2,122.2v10.5"/>
						<path class="st15" d="M331.3,122.2v4.5"/>
						<path class="st15" d="M337.3,356.1l-15-8.6"/>
						<path class="st15" d="M418.6,403.1l-75.9-43.8"/>
						<path class="st15" d="M416.2,407.2l2.4-4"/>
						<path class="st15" d="M623.1,143.2v201.2"/>
						<path class="st15" d="M623.1,366.9v0.7"/>
						<path class="st15" d="M630.6,388.6v-55.2"/>
						<path class="st15" d="M630.6,328v-46.6"/>
						<path class="st15" d="M630.6,276V143.2"/>
						<path class="st15" d="M623.1,367.6h7.5"/>
						<path class="st15" d="M630.6,143.2h-7.5"/>
						<path class="st15" d="M459.2,335v0.4"/>
						<path class="st15" d="M459.2,365v0.4"/>
						<path class="st15" d="M464.3,375.2h0.4"/>
						<path class="st15" d="M527.4,375.2h0.4"/>
						<path class="st15" d="M558.9,375.2h0.2"/>
						<path class="st15" d="M559.8,375.2h36.9"/>
						<path class="st15" d="M597.5,375.2h0.2"/>
						<path class="st15" d="M646.2,143.2h-0.4"/>
						<path class="st15" d="M592.7,143.2h-0.2"/>
						<path class="st15" d="M502.3,143.2h-0.2"/>
						<path class="st15" d="M435,143.2h-0.4"/>
						<path class="st15" d="M371.8,143.2h-0.4"/>
						<path class="st15" d="M315.9,349.2l-0.8-0.4"/>
						<path class="st15" d="M315.1,274.5v74.3"/>
						<path class="st15" d="M315.1,269v-77.2"/>
						<path class="st15" d="M315.1,186.4v-64.2"/>
						<path class="st15" d="M335.7,52.8h-21"/>
						<path class="st15" d="M315.1,73.8h-0.4"/>
						<path class="st15" d="M314.7,56.9h16.8"/>
						<path class="st15" d="M314.7,66.3h7.9"/>
						<path class="st15" d="M314.7,57.3h16.8"/>
						<path class="st15" d="M322.6,122.2h8.9l0,0V57.3l0,0h-8.9l0,0v57.5l0,0V122.2z"/>
						<path class="st15" d="M331.5,114h-8.9 M331.5,102.7h-8.9 M331.5,91.5h-8.9 M331.5,80.2h-8.9 M331.5,69h-8.9 M331.5,57.7h-8.9"
							/>
						<path class="st15" d="M315.1,73.8v48.5"/>
						<path class="st15" d="M322.6,66.3v55.9"/>
						<path class="st15" d="M380.5,389.8l26.2,15.1"/>
						<path class="st15" d="M314.4,351.7l61.3,35.4"/>
						<path class="st15" d="M315.9,349.2l-1.4,2.4"/>
						<path class="st15" d="M406.7,404.9l8.1,4.7"/>
						<path class="st15" d="M402.1,413l14.6,8.4"/>
						<path class="st15" d="M425.1,406.9l-3.7,6.5"/>
						<path class="st15" d="M421.4,413.4l-4.7,8.1"/>
						<path class="st15" d="M418.6,403.1l18.1,10.5"/>
						<path class="st15" d="M402.1,413l4.7-8.1"/>
						<path class="st15" d="M421.4,413.4l-6.5-3.7"/>
						<path class="st15" d="M433,420.1l-26.3-15.2"/>
						<path class="st15" d="M630.6,276v5.5"/>
						<path class="st15" d="M529,367.6h0.9l0,0v-91l0,0h3.6l0,0v-0.9l0,0H529l0,0v35.8l0,0V367.6z"/>
						<path class="st15" d="M529.1,297.3h0.9 M529.1,339.3h0.9 M529.1,289.7h0.9 M529.1,308.7h0.9 M529.1,331.6h0.9 M529.1,350.7
							h0.9 M529.9,332.4l-0.6-1.1 M533,276.6l-0.1-0.2 M529.9,322.6l-0.6,1 M529.9,292.1l-0.4,0.7 M529.3,278.1l-0.3,0.4"/>
						<path class="st15" d="M533.5,367.6h0.9l0,0v-92l0,0h-0.9l0,0v35.8l0,0V367.6z"/>
						<path class="st15" d="M533.5,293.5h0.6 M533.5,335.5h0.6 M533.5,278.2h0.6 M533.5,304.9h0.6 M533.5,320.2h0.6 M533.5,346.9
							h0.6 M533.5,362.2h0.6 M534.5,324.9l-0.4-0.8 M534.3,347.5l-0.6-1.1 M534.3,307.4l-0.6,1.1 M534.5,276.7l-0.6,1"/>
						<path class="st15" d="M529.9,367.6h3.6l0,0v-91l0,0h-3.6l0,0v34.9l0,0V367.6z"/>
						<path class="st15" d="M529.9,276.6h3.6 M529.9,287.9h3.6 M529.9,299.2h3.6 M529.9,310.4h3.6 M529.9,321.7h3.6 M529.9,332.9
							h3.6 M529.9,344.2h3.6 M529.9,355.5h3.6 M529.9,366.7h3.6"/>
						<path class="st15" d="M529,367.6v-92"/>
						<path class="st15" d="M534.5,275.7v92"/>
						<path class="st15" d="M529,275.7h5.5"/>
						<path class="st15" d="M529.9,367.6v-91"/>
						<path class="st15" d="M533.5,276.6h-3.6"/>
						<path class="st15" d="M529,367.6h5.5"/>
						<path class="st15" d="M533.5,367.6v-91"/>
						<path class="st15" d="M436.6,332.7h23.5l0,0v-0.9l0,0h-23.5L436.6,332.7L436.6,332.7z"/>
						<path class="st15" d="M445.3,331.8l-0.3,0.4"/>
						<path class="st15" d="M441.2,328.3h23.5l0,0v-0.9l0,0h-23.5V328.3z"/>
						<path class="st15" d="M441.3,327.8h1.2 M452.7,327.8h1.2 M460.4,327.8h1.2 M452.6,328.3l-0.5-0.9"/>
						<path class="st15" d="M463.6,331.8v-3.6l0,0h-26.1l0,0v3.6l0,0h22.5l0,0H463.6z"/>
						<path class="st15" d="M461.9,328.3v3.6 M450.6,328.3v3.6 M439.4,328.3v3.6"/>
						<path class="st15" d="M436.6,332.7h22.5"/>
						<path class="st15" d="M442.1,327.3h22.5"/>
						<path class="st15" d="M464.6,335v-7.7"/>
						<path class="st15" d="M460.1,331.8h-22.5"/>
						<path class="st15" d="M463.6,328.3h-22.5"/>
						<path class="st15" d="M459.2,143.2v98.6"/>
						<path class="st15" d="M459.2,272.3v3.7"/>
						<path class="st15" d="M464.6,281.4v-9.2"/>
						<path class="st15" d="M464.6,241.8v-98.6"/>
						<path class="st15" d="M459.2,241.8h5.5"/>
						<path class="st15" d="M459.2,272.3h5.5"/>
						<path class="st15" d="M460.1,277v-4.7"/>
						<path class="st15" d="M460.1,241.8v-98.6"/>
						<path class="st15" d="M463.7,280.5v-8.3"/>
						<path class="st15" d="M463.7,241.8v-98.6"/>
						<path class="st15" d="M459.2,143.2h5.5"/>
						<path class="st15" d="M437.6,277h21.6l0,0V276l0,0h-22.5l0,0v0.9l0,0H437.6z"/>
						<path class="st15" d="M455.6,276l-0.2,0.4"/>
						<path class="st15" d="M455.8,281.4h7.8l0,0v-0.9l0,0h-22.5l0,0v0.9l0,0h0.9l0,0H455.8z"/>
						<path class="st15" d="M451.6,280.7l-0.1-0.1 M456.5,281.4l-0.3-0.5 M457.3,280.6l-0.5,0.9 M448.5,280.5l-0.4,0.6 M443.6,281.4
							L443.6,281.4"/>
						<path class="st15" d="M460.1,280.5v-3.6l0,0h-22.5l0,0v3.6l0,0h21.6l0,0H460.1z"/>
						<path class="st15" d="M447.8,280.5v-3.6 M459.2,280.5v-3.6"/>
						<path class="st15" d="M464.6,281.4h-22.5"/>
						<path class="st15" d="M441.2,280.5h22.5"/>
						<path class="st15" d="M437.6,280.5h-0.9l0,0v51.3l0,0h0.9V280.5z"/>
						<path class="st15" d="M437.5,320.2L437.5,320.2 M437.5,289.7L437.5,289.7 M437.5,312.6L437.5,312.6 M437.5,331.6L437.5,331.6
							 M437.1,324.3l-0.5-0.9"/>
						<path class="st15" d="M441.2,327.3h0.9l0,0v-45.8l0,0h-0.9l0,0v30l0,0V327.3z"/>
						<path class="st15" d="M441.3,316.4h0.8 M441.3,285.8h0.8 M441.3,301.1h0.8 M442.1,325.2l-0.4-0.6 M441.8,317.2l-0.6-1.1"/>
						<path class="st15" d="M437.6,328.3h3.6l0,0v-47.7l0,0h-3.6l0,0v46.7l0,0V328.3z"/>
						<path class="st15" d="M441.2,327h-3.6 M441.2,315.7h-3.6 M441.2,304.4h-3.6 M441.2,293.1h-3.6 M441.2,281.9h-3.6"/>
						<path class="st15" d="M436.6,332.7v-51.3"/>
						<path class="st15" d="M442.1,281.4v45.8"/>
						<path class="st15" d="M437.6,331.8v-51.3"/>
						<path class="st15" d="M441.2,328.3v-47.7"/>
						<path class="st15" d="M463.6,367.6h0.9l0,0v-2.2l0,0h-0.9V367.6z M464.6,328.3h-0.9l0,0v6.8l0,0h0.9V328.3z"/>
						<path class="st15" d="M464.2,331.6h0.4 M464.6,333.7l-0.1-0.2 M464.6,329l-0.6,0.9"/>
						<path class="st15" d="M459.2,332.7v2.2"/>
						<path class="st15" d="M459.2,365.5v2.2"/>
						<path class="st15" d="M464.6,367.6v-2.2"/>
						<path class="st15" d="M464.3,367.6h0.4"/>
						<path class="st15" d="M459.2,365.5h5.5"/>
						<path class="st15" d="M459.2,335h5.5"/>
						<path class="st15" d="M460.1,388.6v-15.5"/>
						<path class="st15" d="M460.1,373.2l-0.9,1.7"/>
						<path class="st15" d="M459.2,388.6v-13.8"/>
						<path class="st15" d="M460.1,367.6v-2.2"/>
						<path class="st15" d="M460.1,335v-3.2"/>
						<path class="st15" d="M463.6,328.3v6.8"/>
						<path class="st15" d="M463.6,367.6v-2.2"/>
						<path class="st15" d="M315.1,186.4v5.5"/>
						<path class="st15" d="M315.1,274.5V269"/>
						<path class="st15" d="M436.6,277V276l0,0h-93.9l0,0v0.9l0,0h64.7l0,0H436.6z"/>
						<path class="st15" d="M387.8,277l-0.2-0.4 M374.5,276.8L374,276 M352.2,276.4L352,276 M409.8,277L409.8,277 M349.8,276
							l-0.5,0.9 M402.6,276l-0.4,0.6"/>
						<path class="st15" d="M359,281.4h77.6l0,0v-0.9l0,0h-93l0,0v-3.6l0,0h-0.9l0,0v4.5l0,0H359z"/>
						<path class="st15" d="M342.7,278.2h0.6 M364,281.4L364,281.4 M350.7,281.4l-0.6-0.9 M417.7,280.5l-0.3,0.4 M351.3,281
							l-0.3,0.4 M342.8,280.5l-0.1,0.1 M382,281.2l-0.1,0.3"/>
						<path class="st15" d="M436.6,280.5h0.9l0,0v-3.6l0,0h-93.9l0,0v3.6l0,0h63.8l0,0H436.6z"/>
						<path class="st15" d="M344.6,280.5v-3.6 M355.8,280.5v-3.6 M367.1,280.5v-3.6 M378.4,280.5v-3.6 M389.7,280.5v-3.6
							 M400.9,280.5v-3.6 M412.2,280.5v-3.6 M423.4,280.5v-3.6 M434.7,280.5v-3.6"/>
						<path class="st15" d="M322.2,276h137"/>
						<path class="st15" d="M436.6,281.4h-93.9"/>
						<path class="st15" d="M343.7,277h116.4"/>
						<path class="st15" d="M343.7,277v3.6"/>
						<path class="st15" d="M343.7,280.5h93.9"/>
						<path class="st15" d="M344.7,253.5h-22.5"/>
						<path class="st15" d="M322.2,253.5V276"/>
						<path class="st15" d="M322.2,276h22.5"/>
						<path class="st15" d="M344.7,276v-22.5"/>
						<path class="st15" d="M344.7,276v-22.5"/>
						<path class="st15" d="M367.3,276h-22.5"/>
						<path class="st15" d="M367.3,253.5V276"/>
						<path class="st15" d="M344.7,253.5h22.5"/>
						<path class="st15" d="M389.8,253.5h-22.5"/>
						<path class="st15" d="M367.3,253.5V276"/>
						<path class="st15" d="M367.3,276h22.5"/>
						<path class="st15" d="M389.8,276v-22.5"/>
						<path class="st15" d="M389.8,276v-22.5"/>
						<path class="st15" d="M412.4,276h-22.5"/>
						<path class="st15" d="M412.4,253.5V276"/>
						<path class="st15" d="M389.8,253.5h22.5"/>
						<path class="st15" d="M464.6,327v-22.5"/>
						<path class="st15" d="M464.6,304.4H442"/>
						<path class="st15" d="M442.1,304.4V327"/>
						<path class="st15" d="M442.1,327h22.5"/>
						<path class="st15" d="M464.6,304.4v-22.5"/>
						<path class="st15" d="M464.6,281.9H442"/>
						<path class="st15" d="M442.1,281.9v22.5"/>
						<path class="st15" d="M442.1,304.4h22.5"/>
						<path class="st15" d="M597.6,388.6h-38.7"/>
						<path class="st15" d="M527.8,384.7h-0.4"/>
						<path class="st15" d="M464.6,384.7h-0.4"/>
						<path class="st15" d="M464.3,388.6L464.3,388.6"/>
						<path class="st15" d="M464.3,388.7h-13.1"/>
						<path class="st15" d="M609.9,52.8H336.5"/>
						<path class="st15" d="M371.5,122.2H435"/>
						<path class="st15" d="M502.1,122.2h90.6"/>
						<path class="st15" d="M645.5,122.2V52.8"/>
						<path class="st15" d="M645.5,52.8h-35.6"/>
						<path class="st15" d="M609.9,52.8v69.4"/>
						<path class="st15" d="M613.7,56.6h28.1"/>
						<path class="st15" d="M641.8,56.6v61.9"/>
						<path class="st15" d="M641.8,118.5h-28.1"/>
						<path class="st15" d="M613.7,118.5V56.6"/>
						<path class="st15" d="M400.8,371.2l-6.1,10.5"/>
						<path class="st15" d="M406.3,388.4l6.1-10.5"/>
						<path class="st15" d="M412.4,377.9c0.1-0.3,0.3-0.6,0.4-0.9c0.1-0.1,0.1-0.3,0.1-0.4c0.1-0.1,0.1-0.3,0.1-0.4
							c0.1-0.1,0.1-0.3,0.1-0.4c0.1-0.1,0.1-0.3,0.1-0.4c0-0.1,0.1-0.3,0.1-0.4s0.1-0.3,0.1-0.4s0-0.3,0-0.4s0-0.3,0-0.4
							s0-0.3,0-0.4s0-0.3-0.1-0.4c0-0.1-0.1-0.3-0.1-0.4c0-0.1-0.1-0.3-0.1-0.4c0-0.1-0.1-0.3-0.1-0.4c-0.1-0.1-0.1-0.3-0.1-0.4
							c-0.1-0.1-0.1-0.3-0.1-0.4c-0.1-0.1-0.1-0.3-0.2-0.4c-0.1-0.1-0.1-0.2-0.2-0.4c-0.1-0.1-0.1-0.2-0.2-0.4
							c-0.1-0.1-0.1-0.2-0.2-0.3c-0.1-0.1-0.1-0.2-0.3-0.3c-0.1-0.1-0.2-0.2-0.3-0.3c-0.1-0.1-0.2-0.1-0.3-0.3
							c-0.1-0.1-0.2-0.1-0.3-0.2c-0.1-0.1-0.2-0.1-0.4-0.2s-0.2-0.1-0.4-0.2c-0.1-0.1-0.2-0.1-0.4-0.1c-0.1-0.1-0.2-0.1-0.4-0.1
							s-0.3-0.1-0.4-0.1c-0.1,0-0.3-0.1-0.4-0.1s-0.3-0.1-0.4-0.1s-0.4,0-0.5,0s-0.4,0-0.5,0c-0.1,0-0.4,0-0.5,0.1
							c-0.1,0-0.4,0.1-0.5,0.1c-0.1,0.1-0.4,0.1-0.5,0.1s-0.4,0.1-0.5,0.1c-0.1,0.1-0.4,0.1-0.5,0.2c-0.1,0.1-0.4,0.1-0.5,0.3
							c-0.1,0.1-0.3,0.2-0.5,0.3c-0.1,0.1-0.3,0.2-0.4,0.4s-0.3,0.2-0.4,0.4s-0.3,0.3-0.4,0.4c-0.1,0.1-0.3,0.3-0.4,0.4
							c-0.1,0.1-0.2,0.3-0.4,0.4c-0.2,0.3-0.4,0.6-0.6,0.9"/>
						<path class="st15" d="M407.7,386c0.1-0.1,0.1-0.4-0.1-0.4"/>
						<path class="st15" d="M396.7,379.2c3.5,2.4,7.1,4.5,10.9,6.3"/>
						<path class="st15" d="M396.7,379.2c-0.1-0.1-0.4-0.1-0.5,0.1"/>
						<path class="st15" d="M409.9,368.9c-2.6-1.5-6.2-0.1-8,3c-1.8,3.2-1.2,6.9,1.4,8.4c2.6,1.5,6.2,0.1,8-3
							C413.1,374.1,412.5,370.3,409.9,368.9"/>
						<path class="st15" d="M412.4,377.9c2.2-3.7,1.3-8.1-1.9-10s-7.5-0.4-9.6,3.4"/>
						<path class="st15" d="M406.3,388.4l6.1-10.5"/>
						<path class="st15" d="M394.8,381.8l6.1-10.5"/>
						<path class="st15" d="M367.7,346.2l-8.6,14.8"/>
						<path class="st15" d="M387.1,356.9L368.2,346"/>
						<path class="st15" d="M378.7,372.2l8.6-14.8"/>
						<path class="st15" d="M379.5,367.3l-16.5-9.5"/>
						<path class="st15" d="M380,367.1l5.3-9.1"/>
						<path class="st15" d="M385.1,357.6l-16.5-9.5"/>
						<path class="st15" d="M362.9,357.3l5.3-9.1"/>
						<path class="st15" d="M368.2,346c-0.1-0.1-0.4-0.1-0.5,0.1"/>
						<path class="st15" d="M387.2,357.4c0.1-0.1,0.1-0.4-0.1-0.5"/>
						<path class="st15" d="M378.4,372.3c0.1,0.1,0.2,0,0.3-0.1"/>
						<path class="st15" d="M359.1,360.9c-0.1,0.1,0,0.2,0.1,0.3"/>
						<path class="st15" d="M362.9,357.3c-0.1,0.1-0.1,0.4,0.1,0.5"/>
						<path class="st15" d="M379.5,367.3c0.1,0.1,0.4,0.1,0.5-0.1"/>
						<path class="st15" d="M385.2,358.1c0.1-0.1,0.1-0.4-0.1-0.5"/>
						<path class="st15" d="M368.6,348.1c-0.1-0.1-0.4-0.1-0.5,0.1"/>
						<path class="st15" d="M370.6,364.7c0-0.4-0.3-0.6-0.6-0.6s-0.6,0.3-0.6,0.6c0,0.4,0.3,0.6,0.6,0.6S370.6,365,370.6,364.7z"/>
						<path class="st15" d="M373.7,360.7c0-0.8-0.6-1.4-1.4-1.4c-0.8,0-1.4,0.6-1.4,1.4s0.6,1.4,1.4,1.4
							C373,362.2,373.7,361.5,373.7,360.7z"/>
						<path class="st15" d="M373.3,360.7c0-0.5-0.4-1-1-1c-0.5,0-1,0.4-1,1c0,0.5,0.4,1,1,1C372.8,361.7,373.3,361.3,373.3,360.7z"
							/>
						<path class="st15" d="M367.9,345.8l-0.1,0.3"/>
						<path class="st15" d="M359.1,361l-0.1,0.1"/>
						<path class="st15" d="M378.6,372.4L378.6,372.4"/>
						<path class="st15" d="M387.2,357.3l0.1-0.3"/>
						<path class="st15" d="M387.4,357.1l-0.3-0.1"/>
						<path class="st15" d="M368.2,346l-0.3-0.1"/>
						<path class="st15" d="M378.4,372.3c0.1,0.1,0.2,0,0.3-0.1"/>
						<path class="st15" d="M378.7,372.2l8.6-14.8"/>
						<path class="st15" d="M387.2,357.4c0.1-0.1,0.1-0.4-0.1-0.5"/>
						<path class="st15" d="M387.1,356.9L368.2,346"/>
						<path class="st15" d="M368.2,346c-0.1-0.1-0.4-0.1-0.5,0.1"/>
						<path class="st15" d="M367.7,346.2l-8.6,14.8"/>
						<path class="st15" d="M359.1,360.9c-0.1,0.1,0,0.2,0.1,0.3"/>
						<path class="st15" d="M342.7,299.2h3.7"/>
						<path class="st15" d="M346.5,298h-3.7"/>
						<path class="st15" d="M346.5,298v1.2"/>
						<path class="st15" d="M345.3,298.3c-0.1,0-0.3,0.1-0.3,0.3c0,0.1,0.1,0.3,0.3,0.3"/>
						<path class="st15" d="M345.3,298.9c0.1,0,0.3-0.1,0.3-0.3s-0.1-0.3-0.3-0.3"/>
						<path class="st16" d="M345,313.6v-14.4"/>
						<path class="st15" d="M345,298v-0.6"/>
						<path class="st17" d="M345,295.9V285"/>
						<path class="st15" d="M345,284.2v-0.6"/>
						<path class="st15" d="M345,283.5h-1.5"/>
						<path class="st15" d="M343.4,298v-14.5"/>
						<path class="st15" d="M343.4,299.2v14.4"/>
						<path class="st15" d="M343.4,313.6h1.5"/>
						<path class="st15" d="M345,283.5l0.6-0.1"/>
						<path class="st18" d="M347,283.4l28.6-1.9"/>
						<path class="st15" d="M376.1,281.5l0.6-0.1"/>
						<path class="st15" d="M345,313.6l0.6,0.1"/>
						<path class="st19" d="M347,313.7l28.6,1.9"/>
						<path class="st15" d="M376.2,315.6l0.6,0.1"/>
						<path class="st15" d="M376.9,315.7v-34.2"/>
						<path class="st15" d="M376.9,281.4v34.2"/>
						<path class="st15" d="M336.5,121.5V52.1"/>
						<path class="st15" d="M336.5,52.1l-0.7,0.7"/>
						<path class="st15" d="M336.5,86.7h-0.7"/>
						<path class="st15" d="M371.5,121.5v0.7"/>
						<path class="st15" d="M336.5,121.5h35"/>
						<path class="st15" d="M435,122.2v-0.7"/>
						<path class="st15" d="M502.1,121.5v0.7"/>
						<path class="st15" d="M435,121.5h67.2"/>
						<path class="st15" d="M592.7,122.2v-0.7"/>
						<path class="st15" d="M645.8,121.5v0.7"/>
						<path class="st15" d="M592.7,121.5h17.2"/>
						<path class="st15" d="M645.5,121.5h0.3"/>
						<path class="st15" d="M409.2,425.4l3.6-6.2l0,0l-0.8-0.5l0,0l-3.6,6.2l0,0L409.2,425.4z"/>
						<path class="st15" d="M411.6,419.3h0.4"/>
						<path class="st15" d="M410.8,431.6l5.8-10.1l0,0l-3.9-2.2l0,0l-0.5,0.8l0,0l3.1,1.8l0,0l-5.3,9.3l0,0L410.8,431.6z"/>
						<path class="st15" d="M414.6,423.2h1.1 M413.5,420.8l-0.2-0.4 M410.9,431.5l-0.4-0.7 M412.6,426.6l-0.6,1.1"/>
						<path class="st15" d="M410.5,430.3l4.9-8.4l0,0l-3.1-1.8l0,0l-4.9,8.4l0,0L410.5,430.3z"/>
						<path class="st15" d="M412.9,426l-3.1-1.8"/>
						<path class="st15" d="M408.8,424.2l3.1-5.4"/>
						<path class="st15" d="M416.7,421.5l-5.8,10.1"/>
						<path class="st15" d="M411.9,418.8l4.7,2.7"/>
						<path class="st15" d="M409.2,425.4l3.1-5.4"/>
						<path class="st15" d="M415.4,421.9l-3.1-1.8"/>
						<path class="st15" d="M410.5,430.3l4.9-8.4"/>
						<path class="st15" d="M408.4,425l0.5-0.8l0,0L372,402.8l0,0l-0.5,0.8l0,0l35.9,20.7l0,0L408.4,425z"/>
						<path class="st15" d="M392.1,415.5h0.8 M407,423.2h0.3 M373.5,404.8L373,404 M399.9,420.1l-0.4-0.6 M399.5,419l-0.4,0.6
							 M389.5,413.3l-0.4,0.6 M376.3,405.7l-0.4,0.6"/>
						<path class="st15" d="M410,431.1l0.5-0.8l0,0l-44.7-25.8l0,0l-0.5,0.8l0,0l42.1,24.3l0,0L410,431.1z"/>
						<path class="st15" d="M396.3,423.2h0.4 M376.5,411.7h1.2 M384.6,416.3l-0.6-1.1 M377.5,411.2l-0.4,0.7 M403.9,426.5l-0.4,0.7
							 M384.1,415l-0.4,0.7 M367.6,405.5l-0.4,0.7"/>
						<path class="st15" d="M372.7,403.3l36.1,20.8"/>
						<path class="st15" d="M410.8,431.6l-45.5-26.3"/>
						<path class="st15" d="M371.5,403.6l37.7,21.8"/>
						<path class="st15" d="M366.6,404.9l43.9,25.3"/>
						<path class="st15" d="M372.7,403.3l7.8-13.5l0,0l-0.8-0.5l0,0l-7.8,13.5l0,0L372.7,403.3z"/>
						<path class="st15" d="M379.3,392l-0.2-0.4"/>
						<path class="st15" d="M366.6,404.9l10.1-17.4l0,0l-0.8-0.5l0,0l-10.1,17.4l0,0L366.6,404.9z"/>
						<path class="st15" d="M368.8,400.3h0.5 M366,404.1h0.2 M367.9,402.7l-0.1-0.2"/>
						<path class="st15" d="M371.5,403.6l8.3-14.3l0,0l-3.1-1.8l0,0l-8.3,14.3l0,0L371.5,403.6z"/>
						<path class="st15" d="M372.7,394.3l3.1,1.8"/>
						<path class="st15" d="M380.5,389.8l-7.8,13.5"/>
						<path class="st15" d="M365.3,405.3l10.5-18.2"/>
						<path class="st15" d="M379.7,389.3l-8.3,14.3"/>
						<path class="st15" d="M380.5,389.8l-4.7-2.7"/>
						<path class="st15" d="M376.6,387.5l-10.1,17.4"/>
						<path class="st15" d="M372.7,403.3l31.8,5.3"/>
						<path class="st15" d="M380.5,389.8l28.3,34.3"/>
						<path class="st15" d="M342.7,351.7l79.2,45.7"/>
						<path class="st15" d="M418.6,403.1l-75.9-43.8"/>
						<path class="st15" d="M439.1,367.6l-20.4,35.4"/>
						<path class="st15" d="M376.9,316h-34.1"/>
						<path class="st15" d="M342.7,315.7h34.2"/>
						<path class="st15" d="M376.9,316v-0.4"/>
						<path class="st15" d="M600.6,276.8h22.5"/>
						<path class="st15" d="M623.1,275.7h-22.5"/>
						<path class="st15" d="M600.6,275.7v1.2"/>
						<path class="st15" d="M600.6,299.3h22.5"/>
						<path class="st15" d="M623.1,276.8h-22.5"/>
						<path class="st15" d="M600.6,276.8v22.5"/>
						<path class="st15" d="M600.6,344.4h0.7"/>
						<path class="st15" d="M623.1,321.8h-22.5"/>
						<path class="st15" d="M600.6,321.8v22.5"/>
						<path class="st15" d="M609.8,358.3l5.3-5.3"/>
						<path class="st15" d="M609.8,353l5.3,5.3"/>
						<path class="st15" d="M608.6,355.7h7.5"/>
						<path class="st15" d="M612.4,351.9v7.5"/>
						<path class="st15" d="M601.9,366.9h-0.6"/>
						<path class="st15" d="M601.3,344.4h0.6"/>
						<path class="st15" d="M601.3,344.4v22.5"/>
						<path class="st15" d="M601.9,366.9v-22.5"/>
						<path class="st15" d="M601.9,366.9h21.2"/>
						<path class="st15" d="M623.1,366.9v-22.5"/>
						<path class="st15" d="M623.1,344.4h-21.2"/>
						<path class="st15" d="M601.9,344.4v22.5"/>
						<path class="st15" d="M600.6,321.8h22.5"/>
						<path class="st15" d="M623.1,299.3h-22.5"/>
						<path class="st15" d="M600.6,299.3v22.5"/>
						<path class="st15" d="M342.1,278.2h0.6 M342.1,331.6h0.6 M342.1,346.9h0.6 M342.7,298.1L342.7,298.1 M342.7,280.7l-0.6,0.9"/>
						<path class="st15" d="M337.3,342.2l-0.1-0.1 M337.5,282l-0.3,0.6"/>
						<path class="st15" d="M338.2,282.3h3.6"/>
						<path class="st15" d="M342.7,276v75.6"/>
						<path class="st15" d="M337.3,356.1v-74.7"/>
						<path class="st15" d="M341.8,358.7l-4.5-2.6"/>
						<path class="st15" d="M341.8,277V276l0,0h-19.6l0,0v0.9l0,0h16l0,0H341.8z"/>
						<path class="st15" d="M334.9,277l-0.4-0.6 M341,276l-0.2,0.4"/>
						<path class="st15" d="M334.7,281.4h2.5l0,0v-0.9l0,0h-15l0,0v0.9l0,0H334.7z"/>
						<path class="st15" d="M328.5,281.2l-0.4-0.7"/>
						<path class="st15" d="M334.7,280.5h3.5l0,0v-3.6l0,0h-16l0,0v3.6l0,0H334.7z"/>
						<path class="st15" d="M329.8,280.5v-3.6"/>
						<path class="st15" d="M337.3,281.4h-15"/>
						<path class="st15" d="M322.2,277h19.5"/>
						<path class="st15" d="M322.2,276v5.5"/>
						<path class="st15" d="M322.2,280.5h16"/>
						<path class="st15" d="M322.2,281.4l15,66"/>
						<path class="st15" d="M337.3,281.4l-15,66"/>
						<path class="st15" d="M557,366.9v-22.5"/>
						<path class="st15" d="M557,344.4h-22.5"/>
						<path class="st15" d="M534.5,366.9H557"/>
						<path class="st15" d="M557,321.8v-22.5"/>
						<path class="st15" d="M557,299.3h-22.5"/>
						<path class="st15" d="M534.5,321.8H557"/>
						<path class="st15" d="M557,276.8v-1.2"/>
						<path class="st15" d="M557,275.7h-22.5"/>
						<path class="st15" d="M534.5,276.8H557"/>
						<path class="st15" d="M557,299.3v-22.5"/>
						<path class="st15" d="M557,276.8h-22.5"/>
						<path class="st15" d="M534.5,299.3H557"/>
						<path class="st15" d="M557,344.4v-22.5"/>
						<path class="st15" d="M557,321.8h-22.5"/>
						<path class="st15" d="M534.5,344.4H557"/>
						<path class="st15" d="M336.5,52.1h-21.7"/>
						<path class="st15" d="M623.1,299.1h-22.5"/>
						<path class="st15" d="M600.6,321.6v-22.5"/>
						<path class="st15" d="M600.6,299.1h22.5"/>
						<path class="st15" d="M623.1,321.6h-22.5"/>
						<path class="st15" d="M600.6,321.6h22.5"/>
						<path class="st15" d="M534.5,321.8H557"/>
						<path class="st15" d="M557,344.4v-22.5"/>
						<path class="st15" d="M557,321.8h-22.5"/>
						<path class="st15" d="M534.5,344.4H557"/>
						<path class="st15" d="M557,344.4h-22.5"/>
						<path class="st15" d="M547,277v0.6"/>
						<path class="st15" d="M547,277v89.9"/>
						<path class="st15" d="M610.4,277v0.6"/>
						<path class="st15" d="M610.4,276.7v67.7"/>
						<path class="st15" d="M610.4,343.7v0.6"/>
						<path class="st20" d="M336.5,121.5h-21.7l0,0V52.1l0,0h21.7L336.5,121.5L336.5,121.5z"/>
						<path class="st20" d="M322.2,143.2h49.2l0,0v-21.7l0,0h-49.2V143.2z"/>
						<path class="st20" d="M315.1,121.5h-0.4l0,0v225.9l0,0h0.4l0,0h7.1l0,0V121.5H315.1z"/>
						<path class="st20" d="M315.8,349.3l-1.1-0.6l0,0v-1.3l0,0h7.5l0,0l114.6,66.2l0,0l-3.7,6.5l0,0l-118.6-68.4L315.8,349.3z"/>
						<path class="st20" d="M406.8,404.9l-4.8,8.1l0,0l14.6,8.4l0,0l4.7-8.1L406.8,404.9z"/>
						<path class="st20" d="M365.3,405.3l45.5,26.3l0,0l5.8-10.1l0,0l-4.8-2.7l0,0l-3,5.4l0,0l-36.1-20.8l0,0l7.8-13.5l0,0l-4.7-2.8
							L365.3,405.3z"/>
						<path class="st20" d="M502.3,143.2H435l0,0v-21.7l0,0h67.3V143.2z"/>
						<path class="st20" d="M645.8,143.2h-53.1l0,0v-21l0,0h53.1V143.2z"/>
						<path class="st20" d="M609.9,122.2h-17.1l0,0v-0.7l0,0h17.1V122.2z"/>
						<path class="st20" d="M630.6,367.6h-7.5l0,0V143.2l0,0h7.5V367.6z"/>
						<path class="st20" d="M630.6,388.6h-33.2l0,0v-21l0,0h33.2V388.6z"/>
						<path class="st20" d="M559.1,367.6h-31.3l0,0v21l0,0h31.3V367.6z"/>
						<path class="st20" d="M439.1,367.6l-20.4,35.4l0,0l18.1,10.4l0,0l14.3-24.8l0,0l13.1-0.1l0,0v-21H439.1z"/>
						<path class="st20" d="M459.2,367.6h5.5l0,0v-2.2l0,0h-5.5V367.6z"/>
						<path class="st20" d="M436.6,281.9h-93.9l0,0V276l0,0h93.9V281.9z"/>
						<path class="st20" d="M464.6,281.4h-5.5l0,0v-9.2l0,0h5.5V281.4z"/>
						<path class="st20" d="M442.1,276h17.1l0,0v5.5l0,0h-17.1V276z"/>
						<path class="st20" d="M442.1,332.7h-5.5l0,0V276l0,0h5.5V332.7z"/>
						<path class="st20" d="M459.2,327.3h5.5l0,0v7.7l0,0h-5.5V327.3z"/>
						<path class="st20" d="M442.1,327.4h17.1l0,0v5.3l0,0h-17.1V327.4z"/>
						<path class="st20" d="M534.5,367.6H529l0,0v-92l0,0h5.5V367.6z"/>
						<path class="st20" d="M459.2,143.2h5.5l0,0v98.6l0,0h-5.5V143.2z"/>
						<path class="st20" d="M592.5,128.1h-1.9l0,0v-1.9l0,0h1.9V128.1z"/>
						<path class="st20" d="M564.3,128.1v-0.9l0,0h0.7l0,0v-0.9l0,0h1.2l0,0v0.9l0,0v0.9H564.3z"/>
						<path class="st20" d="M502.3,128.1v-0.9l0,0v-0.9l0,0h1.5l0,0v0.9l0,0h0.4l0,0v0.9H502.3z"/>
						<path class="st20" d="M408.6,128h-1.9l0,0v-1.9l0,0h1.9V128z"/>
						<path class="st20" d="M466.5,384.7h-1.9l0,0v-1.9l0,0h1.9V384.7z"/>
						<path class="st20" d="M491.9,383.8v-0.9l0,0h-1.3l0,0v0.9l0,0v0.9l0,0h1.9l0,0v-0.9H491.9z"/>
						<path class="st20" d="M526.1,382.8v0.9l0,0h-0.6l0,0v0.9l0,0h1.9l0,0v-0.9l0,0v-0.9H526.1z"/>
						<path class="st20" d="M595.7,384.6h-2.4l0,0v-2.2l0,0h2.4V384.6z"/>
						<path class="st20" d="M560.9,382.3h2.4l0,0v2.2l0,0h-2.4V382.3z"/>
						<path class="st20" d="M527.4,382.8h-1l0,0v-15.2l0,0h1V382.8z"/>
						<path class="st20" d="M465.6,382.8h-1.1l0,0v-15.2l0,0h1.1V382.8z"/>
						<path class="st5" d="M342.7,316h34.2l0,0v-0.4l0,0h-34.2V316z"/>
						<path class="st20" d="M460.7,365h-1.5l0,0v-0.9l0,0h1.5V365z"/>
						<path class="st20" d="M460.7,365h3l0,0v-1.3l0,0h-3V365z"/>
						<path class="st20" d="M460.7,336.4h-1.5l0,0v-0.9l0,0h1.5V336.4z"/>
						<path class="st20" d="M460.7,336.7h3l0,0v-1.3l0,0h-3V336.7z"/>
						<path class="st20" d="M463.7,271.8h-3l0,0v-1.3l0,0h3V271.8z"/>
						<path class="st20" d="M460.7,271.8h-1.5l0,0v-0.9l0,0h1.5V271.8z"/>
						<path class="st20" d="M460.7,243.1h-1.5l0,0v-0.9l0,0h1.5V243.1z"/>
						<path class="st20" d="M460.7,243.6h3l0,0v-1.3l0,0h-3V243.6z"/>
						<path class="st20" d="M372.9,128h-1.1l0,0v-1.9l0,0h1.1V128z"/>
						<path class="st20" d="M372.9,130.9h0.5l0,0v-4.8l0,0h-0.5V130.9z"/>
						<path class="st20" d="M373.4,130.9h0.6l0,0v-2.5l0,0h-0.6V130.9z"/>
						<path class="st20" d="M433.5,130.9h-1.1l0,0v-2.6l0,0h1.1V130.9z"/>
						<path class="st20" d="M433,128.4h0.5l0,0v-2.2l0,0H433V128.4z"/>
						<path class="st20" d="M433.6,128h1l0,0v-1.9l0,0h-1V128z"/>
						<path class="st15" d="M526.1,383.8v-2.2l0,0h-34.2l0,0v2.2l0,0h12.4l0,0H526.1z"/>
						<path class="st15" d="M491.9,381.5h34.2"/>
						<path class="st15" d="M526.1,383.8h-34.2"/>
						<path class="st15" d="M491.9,381.5v2.2"/>
						<path class="st15" d="M526.1,383.8v-2.2"/>
						<path class="st15" d="M490.6,383.4h-24.1"/>
						<path class="st15" d="M466.5,383.4v0.7"/>
						<path class="st15" d="M466.5,384.1h24.1"/>
						<path class="st15" d="M490.6,384.1v-0.7"/>
						<path class="st15" d="M466.5,382.8h-1.9"/>
						<path class="st15" d="M464.6,382.8v1.9"/>
						<path class="st15" d="M464.6,384.7h1.9"/>
						<path class="st15" d="M466.5,384.7v-1.9"/>
						<path class="st15" d="M527.4,382.8h-1.3"/>
						<path class="st15" d="M525.5,383.8v0.9"/>
						<path class="st15" d="M525.5,384.7h1.9"/>
						<path class="st15" d="M527.4,384.7v-1.9"/>
						<path class="st15" d="M491.9,382.8h-1.3"/>
						<path class="st15" d="M490.6,382.8v1.9"/>
						<path class="st15" d="M490.6,384.7h1.9"/>
						<path class="st15" d="M492.5,384.7v-0.9"/>
						<path class="st15" d="M466.5,382.8h24.1"/>
						<path class="st15" d="M525.5,384.7h-33.1"/>
						<path class="st15" d="M490.6,384.7h-24.1"/>
						<path class="st15" d="M527.4,367.6h-1"/>
						<path class="st15" d="M526.4,367.6v15.2"/>
						<path class="st15" d="M526.4,382.8h1"/>
						<path class="st15" d="M527.4,382.8v-15.2"/>
						<path class="st15" d="M465.6,367.6h-1"/>
						<path class="st15" d="M464.6,367.6v15.2"/>
						<path class="st15" d="M464.6,382.8h1"/>
						<path class="st15" d="M465.6,382.8v-15.2"/>
						<path class="st15" d="M526.1,347.2v34.2"/>
						<path class="st15" d="M526.1,347.2c-18.9,0-34.2,15.3-34.2,34.2"/>
						<path class="st15" d="M459.2,243.1c-15.3,0-27.7,12.4-27.7,27.7"/>
						<path class="st15" d="M459.2,270.9h-27.7"/>
						<path class="st15" d="M460.7,270.9h-1.5"/>
						<path class="st15" d="M460.7,243.1v27.7"/>
						<path class="st15" d="M459.2,243.1h1.5"/>
						<path class="st15" d="M459.2,270.9v-27.7"/>
						<path class="st15" d="M463.7,270.5v1.3"/>
						<path class="st15" d="M460.7,270.5h3"/>
						<path class="st15" d="M460.7,270.9v-0.4"/>
						<path class="st15" d="M459.2,270.9h1.5"/>
						<path class="st15" d="M459.2,271.8v-0.9"/>
						<path class="st15" d="M463.7,271.8h-4.5"/>
						<path class="st15" d="M460.7,243.1h-1.5"/>
						<path class="st15" d="M460.7,243.6v-0.4"/>
						<path class="st15" d="M463.7,243.6h-3"/>
						<path class="st15" d="M463.7,242.2v1.3"/>
						<path class="st15" d="M459.2,242.2h4.5"/>
						<path class="st15" d="M459.2,243.1v-0.9"/>
						<path class="st15" d="M431.4,336.4c0,15.3,12.4,27.7,27.7,27.7"/>
						<path class="st15" d="M459.2,336.4h-27.7"/>
						<path class="st15" d="M459.2,336.4v27.7"/>
						<path class="st15" d="M459.2,364.1h1.5"/>
						<path class="st15" d="M460.7,364.1v-27.7"/>
						<path class="st15" d="M460.7,336.4h-1.5"/>
						<path class="st15" d="M463.6,335.5h-4.5"/>
						<path class="st15" d="M459.2,335.5v0.9"/>
						<path class="st15" d="M459.2,336.4h1.5"/>
						<path class="st15" d="M460.7,336.4v0.4"/>
						<path class="st15" d="M460.7,336.7h3"/>
						<path class="st15" d="M463.6,336.7v-1.3"/>
						<path class="st15" d="M459.2,364.1v0.9"/>
						<path class="st15" d="M459.2,365h4.5"/>
						<path class="st15" d="M463.6,365v-1.3"/>
						<path class="st15" d="M463.6,363.7h-3"/>
						<path class="st15" d="M460.7,363.7v0.4"/>
						<path class="st15" d="M460.7,364.1h-1.5"/>
						<path class="st15" d="M404.4,128.2h0.6l0,0v-2l0,0h-30l0,0v2l0,0h0.6l0,0H404.4z"/>
						<path class="st15" d="M404.6,129.2l-0.2-1l0,0h-28.7l0,0l-0.2,1l0,0h28.9l0,0H404.6z"/>
						<path class="st15" d="M374,130.9v-2.5"/>
						<path class="st15" d="M374,128.4h-0.6"/>
						<path class="st15" d="M373.4,128.4v-2.2"/>
						<path class="st15" d="M373.4,126.1h-1.6"/>
						<path class="st15" d="M371.8,126.1v4.8"/>
						<path class="st15" d="M371.8,130.9h2.2"/>
						<path class="st15" d="M432.4,128.4v2.5"/>
						<path class="st15" d="M432.4,130.9h2.2"/>
						<path class="st15" d="M434.6,130.9v-4.8"/>
						<path class="st15" d="M434.6,126.1H433"/>
						<path class="st15" d="M433,126.1v2.2"/>
						<path class="st15" d="M433,128.4h-0.6"/>
						<path class="st15" d="M374,130.9h58.5"/>
						<path class="st15" d="M432.4,128.4h-26.5"/>
						<path class="st15" d="M374.2,128.4H374"/>
						<path class="st15" d="M433,126.1h-24.4"/>
						<path class="st15" d="M406.7,126.1h-0.2"/>
						<path class="st15" d="M373.5,126.1h-0.2"/>
						<path class="st15" d="M406.7,127.5h26"/>
						<path class="st15" d="M432.7,127.5v-0.7"/>
						<path class="st15" d="M432.7,126.7h-26"/>
						<path class="st15" d="M406.7,126.7v0.7"/>
						<path class="st15" d="M406.7,128h1.9"/>
						<path class="st15" d="M408.6,128v-1.9"/>
						<path class="st15" d="M408.6,126.1h-1.9"/>
						<path class="st15" d="M406.7,126.1v1.9"/>
						<path class="st15" d="M433.6,143.2h1"/>
						<path class="st15" d="M434.6,143.2V128"/>
						<path class="st15" d="M434.6,128h-1"/>
						<path class="st15" d="M433.6,128v15.2"/>
						<path class="st15" d="M371.8,143.2h1"/>
						<path class="st15" d="M372.8,143.2V128"/>
						<path class="st15" d="M372.8,128h-1"/>
						<path class="st15" d="M371.8,128v15.2"/>
						<path class="st15" d="M405,126.1v2"/>
						<path class="st15" d="M405,128.2h-0.6"/>
						<path class="st15" d="M404.4,128.2l0.2,1"/>
						<path class="st15" d="M404.6,129.2h1.3"/>
						<path class="st15" d="M405.9,129.2v-1.1"/>
						<path class="st15" d="M405.9,128.1h0.6"/>
						<path class="st15" d="M406.5,128.1v-1.9"/>
						<path class="st15" d="M406.5,126.1H405"/>
						<path class="st15" d="M375.1,128.2v-2"/>
						<path class="st15" d="M375.1,126.1h-1.5"/>
						<path class="st15" d="M373.5,126.1v1.9"/>
						<path class="st15" d="M373.5,128.1h0.6"/>
						<path class="st15" d="M374.2,128.1v1.1"/>
						<path class="st15" d="M374.2,129.2h1.3"/>
						<path class="st15" d="M375.6,129.2l0.2-1"/>
						<path class="st15" d="M375.7,128.2h-0.6"/>
						<path class="st15" d="M405,126.1h-30"/>
						<path class="st15" d="M404.4,128.2h-28.7"/>
						<path class="st15" d="M375.6,129.2h29.1"/>
						<path class="st15" d="M373.5,96.5v29.7"/>
						<path class="st15" d="M373.5,96.5c16.7,0,30.5,13,31.5,29.7"/>
						<path class="st15" d="M502.3,143.2h0.9"/>
						<path class="st15" d="M503.2,143.2v-15.1"/>
						<path class="st15" d="M503.2,128.1h-0.9"/>
						<path class="st15" d="M502.3,128.1v15.1"/>
						<path class="st15" d="M591.6,143.2h0.9"/>
						<path class="st15" d="M592.5,143.2v-15.1"/>
						<path class="st15" d="M592.5,128.1h-0.9"/>
						<path class="st15" d="M591.6,128.1v15.1"/>
						<path class="st15" d="M590.6,127.5v-0.7"/>
						<path class="st15" d="M502.3,126.2v1.9"/>
						<path class="st15" d="M590.6,128.1h1.9"/>
						<path class="st15" d="M592.5,128.1v-1.9"/>
						<path class="st15" d="M592.5,126.2h-1.9"/>
						<path class="st15" d="M590.6,126.2v1.9"/>
						<path class="st15" d="M593.2,384.6v-2.2l0,0h-29.9l0,0v2.2l0,0h19.9l0,0H593.2z"/>
						<path class="st15" d="M559.1,379.8v4.8"/>
						<path class="st15" d="M559.1,384.6h1.6"/>
						<path class="st15" d="M560.7,384.6v-2.2"/>
						<path class="st15" d="M560.7,382.3h0.6"/>
						<path class="st15" d="M561.3,382.3v-2.5"/>
						<path class="st15" d="M561.3,379.8h-2.2"/>
						<path class="st15" d="M597.5,384.6v-4.8"/>
						<path class="st15" d="M597.5,379.8h-2.2"/>
						<path class="st15" d="M595.2,379.8v2.5"/>
						<path class="st15" d="M595.2,382.3h0.6"/>
						<path class="st15" d="M595.9,382.3v2.2"/>
						<path class="st15" d="M595.9,384.6h1.6"/>
						<path class="st15" d="M595.2,379.8h-34.1"/>
						<path class="st15" d="M560.7,384.6h0.2"/>
						<path class="st15" d="M595.7,384.6h0.2"/>
						<path class="st15" d="M595.9,382.7h-0.2"/>
						<path class="st15" d="M560.9,382.7h-0.2"/>
						<path class="st15" d="M597.5,367.6h-0.7"/>
						<path class="st15" d="M596.7,367.6v15"/>
						<path class="st15" d="M596.7,382.7h0.7"/>
						<path class="st15" d="M597.5,382.7v-15"/>
						<path class="st15" d="M559.8,367.6h-0.7"/>
						<path class="st15" d="M559.1,367.6v15"/>
						<path class="st15" d="M559.1,382.7h0.7"/>
						<path class="st15" d="M559.8,382.7v-15"/>
						<path class="st15" d="M563.3,382.3h-2.4"/>
						<path class="st15" d="M560.9,382.3v2.2"/>
						<path class="st15" d="M560.9,384.6h2.4"/>
						<path class="st15" d="M563.3,384.6v-2.2"/>
						<path class="st15" d="M595.7,382.3h-2.4"/>
						<path class="st15" d="M593.2,382.3v2.2"/>
						<path class="st15" d="M593.2,384.6h2.4"/>
						<path class="st15" d="M595.7,384.6v-2.2"/>
						<path class="st15" d="M563.3,382.3h29.9"/>
						<path class="st15" d="M593.2,384.6h-29.9"/>
						<path class="st15" d="M597.5,384.6h-38.4"/>
						<path class="st15" d="M414.1,281.9v22.5"/>
						<path class="st21" d="M414.1,304.4h22.5"/>
						<path class="st21" d="M436.6,281.9h-22.5"/>
						<path class="st15" d="M414.1,304.4V327"/>
						<path class="st15" d="M414.1,327h22.5"/>
						<path class="st15" d="M436.6,304.4h-22.5"/>
						<path class="st22" d="M509,389.5"/>
						<path class="st10" d="M548.1,356.4c-0.1,1-1,1.8-2.1,1.7c-1-0.1-1.8-1-1.7-2.1c0.1-1,1-1.8,2.1-1.7
							C547.4,354.5,548.2,355.3,548.1,356.4z"/>
						<path class="st10" d="M546.1,358.1c0,0-2.4,0.3-2.7-6.3"/>
						<path class="st10" d="M546.4,354.3c0,0,2.4-0.3,2.7,6.3"/>
					</g>
				</g>
				<g>
					<defs>
						<polygon id="SVGID_7_" points="309.7,46.7 650.3,46.7 650.3,46.7 650.3,435 650.3,435 309.7,435 						"/>
					</defs>
					<defs>
						<polygon id="SVGID_8_" points="309.7,46.7 650.3,46.7 650.3,46.7 650.3,435 650.3,435 309.7,435 						"/>
					</defs>
					<clipPath id="SVGID_9_">
						<use xlink:href="#SVGID_7_"  style="overflow:visible;"/>
					</clipPath>
					<clipPath id="SVGID_10_" class="st23">
						<use xlink:href="#SVGID_8_"  style="overflow:visible;"/>
					</clipPath>
					<g class="st24">
						<path class="st20" d="M372.8,143.2h-1l0,0V128l0,0h1V143.2z"/>
						<path class="st20" d="M406.5,128.1H405l0,0v-1.9l0,0h1.5V128.1z"/>
						<path class="st20" d="M375.1,128.2h-1.5l0,0v-2l0,0h1.5V128.2z"/>
						<path class="st20" d="M405.9,129.2h-1.3l0,0l-0.2-1l0,0h1.5V129.2z"/>
						<path class="st20" d="M374.2,129.2h1.3l0,0l0.2-1l0,0h-1.5V129.2z"/>
						<path class="st20" d="M405,128.2h0.9l0,0v-0.1l0,0L405,128.2L405,128.2z"/>
						<path class="st20" d="M434.6,143.2h-1l0,0V128l0,0h1V143.2z"/>
						<path class="st20" d="M503.2,143.2h-0.9l0,0v-15.1l0,0h0.9V143.2z"/>
						<path class="st20" d="M592.5,143.2h-0.9l0,0v-15.1l0,0h0.9V143.2z"/>
						<path class="st20" d="M559.8,382.7h-0.7l0,0v-15l0,0h0.7V382.7z"/>
						<path class="st20" d="M561.3,382.3h-2.2l0,0v-2.5l0,0h2.2V382.3z"/>
						<path class="st20" d="M559.1,384.6h1.6l0,0v-2.2l0,0h-1.6V384.6z"/>
						<path class="st20" d="M597.5,382.7h-0.7l0,0v-15l0,0h0.7V382.7z"/>
						<path class="st20" d="M595.2,382.3h0.6l0,0v-2.5l0,0h-0.6V382.3z"/>
						<path class="st20" d="M597.5,384.6h-1.6l0,0v-4.8l0,0h1.6V384.6z"/>
					</g>
				</g>
				<g>
					<defs>
						<polygon id="SVGID_11_" points="309.7,46.7 650.3,46.7 650.3,46.7 650.3,435 650.3,435 309.7,435 						"/>
					</defs>
					<defs>
						<polygon id="SVGID_12_" points="309.7,46.7 650.3,46.7 650.3,46.7 650.3,435 650.3,435 309.7,435 						"/>
					</defs>
					<clipPath id="SVGID_13_">
						<use xlink:href="#SVGID_11_"  style="overflow:visible;"/>
					</clipPath>
					<clipPath id="SVGID_14_" class="st25">
						<use xlink:href="#SVGID_12_"  style="overflow:visible;"/>
					</clipPath>
					<g class="st26">
						<path class="st15" d="M565,127.1h-30.7l0,0v-2.2l0,0H565V127.1z"/>
						<path class="st15" d="M534.4,124.9v2.2l0,0h-30.6l0,0v-2.2l0,0h0.5l0,0H534.4z"/>
						<path class="st15" d="M564.9,94.1v30.8"/>
						<path class="st15" d="M534.4,124.7c0-16.8,13.6-30.5,30.4-30.6"/>
						<path class="st15" d="M503.8,94.1v30.8"/>
						<path class="st15" d="M503.8,94.1c16.9,0,30.6,13.7,30.6,30.6"/>
						<path class="st15" d="M565,124.9h-30.7"/>
						<path class="st15" d="M534.3,127.1H565"/>
						<path class="st15" d="M565,124.9v2.2"/>
						<path class="st15" d="M534.3,127.1v-2.2"/>
						<path class="st15" d="M534.4,124.9h-30.6"/>
						<path class="st15" d="M503.8,127.1h30.6"/>
						<path class="st15" d="M534.4,124.9v2.2"/>
						<path class="st15" d="M503.8,127.1v-2.2"/>
						<path class="st15" d="M590.6,127.5h-24.5"/>
						<path class="st15" d="M566.2,127.5v-0.7"/>
						<path class="st15" d="M566.2,126.8h24.5"/>
						<path class="st15" d="M590.6,126.2h-24.5"/>
						<path class="st15" d="M504.2,128.1h60.1"/>
						<path class="st15" d="M566.2,128.1h24.5"/>
						<path class="st15" d="M502.3,126.2h1.5"/>
						<path class="st15" d="M504.2,128.1v-0.9"/>
						<path class="st15" d="M504.2,128.1h-1.9"/>
						<path class="st15" d="M565,126.2h1.2"/>
						<path class="st15" d="M566.2,126.2v1.9"/>
						<path class="st15" d="M566.2,128.1h-1.9"/>
						<path class="st15" d="M564.3,128.1v-0.9"/>
						<path class="st15" d="M349.2,329.3c-1.9,0.9-4.2,1.4-6.5,1.4"/>
						<path class="st15" d="M342.7,315.7l6.5,13.5"/>
						<path class="st15" d="M342.7,315.7v15"/>
						<path class="st20" d="M342.8,280.5L342.8,280.5L342.8,280.5l-0.1-4.5l0,0h-20.5l0,0v4.5l0,0v0.9l0,0h15l0,0v34.2l0,0h5.5
							L342.8,280.5z"/>
						<path class="st20" d="M342.7,351.7v-21l0,0h-5.5l0,0v25.4l0,0l81.4,47l0,0l3.3-5.8L342.7,351.7z"/>
					</g>
				</g>
				<g>
					<defs>
						<polygon id="SVGID_15_" points="309.7,46.7 650.3,46.7 650.3,46.7 650.3,435 650.3,435 309.7,435 						"/>
					</defs>
					<defs>
						<polygon id="SVGID_16_" points="309.7,46.7 650.3,46.7 650.3,46.7 650.3,435 650.3,435 309.7,435 						"/>
					</defs>
					<clipPath id="SVGID_17_">
						<use xlink:href="#SVGID_15_"  style="overflow:visible;"/>
					</clipPath>
					<clipPath id="SVGID_18_" class="st27">
						<use xlink:href="#SVGID_16_"  style="overflow:visible;"/>
					</clipPath>
					<g class="st28">
						<path class="st1" d="M520.3,256.6c0.4,0.4,1.1,0.4,1.5,0l0,0l8.6-8.6c0.4-0.4,0.4-1.1,0.1-1.5l0,0l-10-13.4
							c-0.4-0.4-1.2-0.2-1.8,0.4l0,0l-11.4,11.4c-0.6,0.6-0.7,1.4-0.4,1.8L520.3,256.6z"/>
						<path class="st10" d="M520.3,256.6c0.4,0.4,1.1,0.4,1.5,0l0,0l8.6-8.6c0.4-0.4,0.4-1.1,0.1-1.5l0,0l-10-13.4
							c-0.4-0.4-1.2-0.2-1.8,0.4l0,0l-11.4,11.4c-0.6,0.6-0.7,1.4-0.4,1.8l0,0L520.3,256.6z"/>
						<path class="st29" d="M506.8,246.7l13.3,10c0.5,0.5,1.2,0.4,1.7,0l0,0l8.6-8.6c0.5-0.5,0.5-1.3,0.1-1.7l0,0l-10-13.4
							c-0.5-0.5-1.4-0.4-2,0.3l0,0l-11.4,11.4C506.5,245.3,506.4,246.2,506.8,246.7 M530.4,246.6c0.4,0.4,0.3,0.9-0.1,1.3l0,0
							l-8.6,8.6c-0.4,0.4-0.9,0.4-1.2,0l0,0l0,0l0,0l0,0l0,0L507,246.5c-0.3-0.4-0.1-1,0.4-1.5l0,0l11.4-11.4
							c0.5-0.5,1.2-0.6,1.5-0.4l0,0L530.4,246.6L530.4,246.6L530.4,246.6L530.4,246.6z"/>
						<path class="st1" d="M531.7,246.7l-1.2-1.2l0,0l-11.2,11.1l0,0l1.2,1.2L531.7,246.7z"/>
						<path class="st10" d="M531.7,246.7l-1.2-1.2l0,0l-11.2,11.1l0,0l1.2,1.2l0,0L531.7,246.7z"/>
						<path class="st11" d="M518.1,251.4c0.3,0.3,0.7,0.3,1,0l0,0l6.1-6.1c0.3-0.3,0.3-0.7,0-1l0,0l-7.1-9.4
							c-0.2-0.2-0.8-0.1-1.2,0.2l0,0l-8.1,8.1c-0.4,0.4-0.5,0.9-0.2,1.2L518.1,251.4z"/>
						<path class="st10" d="M518.1,251.4c0.3,0.3,0.7,0.3,1,0l0,0l6.1-6.1c0.3-0.3,0.3-0.7,0-1l0,0l-7.1-9.4
							c-0.2-0.2-0.8-0.1-1.2,0.2l0,0l-8.1,8.1c-0.4,0.4-0.5,0.9-0.2,1.2l0,0L518.1,251.4z"/>
						<path class="st29" d="M508.6,244.4l9.4,7.1c0.4,0.4,0.9,0.4,1.2,0l0,0l6.1-6.1c0.4-0.4,0.4-0.9,0-1.2l0,0l-7.1-9.4
							c-0.4-0.4-1-0.2-1.4,0.2l0,0l-8.1,8.1C508.4,243.4,508.3,244.1,508.6,244.4 M525.2,244.4c0.2,0.2,0.2,0.5,0,0.7l0,0l-6.1,6.1
							c-0.2,0.2-0.6,0.2-0.7,0l0,0l0,0l0,0l0,0l0,0l-9.4-7.1c-0.1-0.1-0.1-0.6,0.2-0.9l0,0l8.1-8.1c0.4-0.4,0.7-0.4,0.9-0.2l0,0
							L525.2,244.4L525.2,244.4L525.2,244.4L525.2,244.4z"/>
						<path class="st1" d="M491.1,208.7c-0.4-0.4-1.1-0.4-1.5,0l0,0l-8.6,8.6c-0.4,0.4-0.4,1.1-0.1,1.5l0,0l10,13.4
							c0.4,0.4,1.2,0.2,1.8-0.4l0,0l11.4-11.4c0.6-0.6,0.7-1.4,0.4-1.8L491.1,208.7z"/>
						<path class="st10" d="M491.1,208.7c-0.4-0.4-1.1-0.4-1.5,0l0,0l-8.6,8.6c-0.4,0.4-0.4,1.1-0.1,1.5l0,0l10,13.4
							c0.4,0.4,1.2,0.2,1.8-0.4l0,0l11.4-11.4c0.6-0.6,0.7-1.4,0.4-1.8l0,0L491.1,208.7z"/>
						<path class="st29" d="M504.6,218.7l-13.3-10c-0.5-0.5-1.2-0.4-1.7,0l0,0l-8.6,8.6c-0.5,0.5-0.5,1.3-0.1,1.7l0,0l10,13.4
							c0.5,0.5,1.4,0.4,2-0.3l0,0l11.4-11.4C504.9,220,505.1,219.1,504.6,218.7 M481,218.7c-0.4-0.4-0.3-0.9,0.1-1.2l0,0l8.6-8.6
							c0.4-0.4,0.9-0.4,1.2,0l0,0l0,0l0,0l0,0l0,0l13.3,10c0.3,0.4,0.1,1-0.4,1.5l0,0l-11.4,11.4c-0.5,0.5-1.2,0.6-1.5,0.4l0,0
							L481,218.7L481,218.7L481,218.7L481,218.7z"/>
						<path class="st1" d="M479.7,218.6l1.2,1.2l0,0l11.2-11.1l0,0l-1.2-1.2L479.7,218.6z"/>
						<path class="st10" d="M479.7,218.6l1.2,1.2l0,0l11.2-11.1l0,0l-1.2-1.2l0,0L479.7,218.6z"/>
						<path class="st11" d="M493.3,214c-0.3-0.3-0.7-0.3-1,0l0,0l-6.1,6.1c-0.3,0.3-0.3,0.7,0,1l0,0l7.1,9.4
							c0.2,0.2,0.8,0.1,1.2-0.2l0,0l8.1-8.1c0.4-0.4,0.5-0.9,0.2-1.2L493.3,214z"/>
						<path class="st10" d="M493.3,214c-0.3-0.3-0.7-0.3-1,0l0,0l-6.1,6.1c-0.3,0.3-0.3,0.7,0,1l0,0l7.1,9.4
							c0.2,0.2,0.8,0.1,1.2-0.2l0,0l8.1-8.1c0.4-0.4,0.5-0.9,0.2-1.2l0,0L493.3,214z"/>
						<path class="st29" d="M502.8,220.9l-9.4-7.1c-0.4-0.4-0.9-0.3-1.2,0l0,0L486,220c-0.4,0.4-0.4,0.9,0,1.2l0,0l7.1,9.4
							c0.4,0.4,1,0.2,1.4-0.2l0,0l8.1-8.1C503,221.9,503.1,221.3,502.8,220.9 M486.2,221c-0.2-0.2-0.2-0.5,0-0.7l0,0l6.1-6.1
							c0.2-0.2,0.6-0.2,0.7,0l0,0l0,0l0,0l0,0l0,0l9.4,7.1c0.1,0.1,0.1,0.6-0.2,0.9l0,0l-8.1,8.1c-0.4,0.4-0.7,0.4-0.9,0.2l0,0
							L486.2,221L486.2,221L486.2,221L486.2,221z"/>
						<path class="st1" d="M481.8,247.2c-0.4,0.4-0.4,1.1,0,1.5l0,0l8.6,8.6c0.4,0.4,1.1,0.4,1.5,0.1l0,0l13.4-10
							c0.4-0.4,0.2-1.2-0.4-1.8l0,0l-11.4-11.4c-0.6-0.6-1.4-0.7-1.8-0.4L481.8,247.2z"/>
						<path class="st10" d="M481.8,247.2c-0.4,0.4-0.4,1.1,0,1.5l0,0l8.6,8.6c0.4,0.4,1.1,0.4,1.5,0.1l0,0l13.4-10
							c0.4-0.4,0.2-1.2-0.4-1.8l0,0l-11.4-11.4c-0.6-0.6-1.4-0.7-1.8-0.4l0,0L481.8,247.2z"/>
						<path class="st29" d="M491.6,233.8l-10,13.3c-0.5,0.5-0.4,1.2,0,1.7l0,0l8.6,8.6c0.5,0.5,1.3,0.5,1.7,0.1l0,0l13.4-10
							c0.5-0.5,0.4-1.4-0.3-2l0,0l-11.4-11.4C493.1,233.5,492.1,233.3,491.6,233.8 M491.8,257.3c-0.4,0.4-0.9,0.3-1.2-0.1l0,0
							l-8.6-8.6c-0.4-0.4-0.4-0.9,0-1.3l0,0l0,0l0,0l0,0l0,0l10-13.3c0.4-0.3,1-0.1,1.5,0.4l0,0l11.4,11.4c0.5,0.5,0.6,1.2,0.4,1.5
							l0,0L491.8,257.3L491.8,257.3L491.8,257.3L491.8,257.3z"/>
						<path class="st1" d="M491.6,258.7l1.2-1.2l0,0l-11.1-11.2l0,0l-1.2,1.2L491.6,258.7z"/>
						<path class="st10" d="M491.6,258.7l1.2-1.2l0,0l-11.1-11.2l0,0l-1.2,1.2l0,0L491.6,258.7z"/>
						<path class="st11" d="M487,245.1c-0.3,0.3-0.3,0.7,0,1l0,0l6.1,6.1c0.3,0.3,0.7,0.3,1,0l0,0l9.4-7.1c0.2-0.2,0.1-0.8-0.2-1.2
							l0,0l-8.1-8.1c-0.4-0.4-0.9-0.5-1.2-0.2L487,245.1z"/>
						<path class="st10" d="M487,245.1c-0.3,0.3-0.3,0.7,0,1l0,0l6.1,6.1c0.3,0.3,0.7,0.3,1,0l0,0l9.4-7.1c0.2-0.2,0.1-0.8-0.2-1.2
							l0,0l-8.1-8.1c-0.4-0.4-0.9-0.5-1.2-0.2l0,0L487,245.1z"/>
						<path class="st29" d="M493.9,235.6l-7.1,9.4c-0.4,0.4-0.4,0.9,0,1.2l0,0l6.1,6.1c0.4,0.4,0.9,0.4,1.2,0l0,0l9.4-7.1
							c0.4-0.4,0.2-1-0.2-1.4l0,0l-8.1-8.1C494.9,235.4,494.3,235.2,493.9,235.6 M493.9,252.1c-0.2,0.2-0.5,0.2-0.7,0l0,0l-6.1-6.1
							c-0.2-0.2-0.2-0.6,0-0.7l0,0l0,0l0,0l0,0l0,0l7.1-9.4c0.1-0.1,0.6-0.1,0.9,0.2l0,0l8.1,8.1c0.4,0.4,0.4,0.7,0.2,0.9l0,0
							L493.9,252.1L493.9,252.1L493.9,252.1L493.9,252.1z"/>
						<path class="st1" d="M529.6,218.1c0.4-0.4,0.4-1.1,0-1.5l0,0l-8.6-8.6c-0.4-0.4-1.1-0.4-1.5-0.1l0,0l-13.4,10
							c-0.4,0.4-0.2,1.2,0.4,1.8l0,0l11.4,11.4c0.6,0.6,1.4,0.7,1.8,0.4L529.6,218.1z"/>
						<path class="st10" d="M529.6,218.1c0.4-0.4,0.4-1.1,0-1.5l0,0l-8.6-8.6c-0.4-0.4-1.1-0.4-1.5-0.1l0,0l-13.4,10
							c-0.4,0.4-0.2,1.2,0.4,1.8l0,0l11.4,11.4c0.6,0.6,1.4,0.7,1.8,0.4l0,0L529.6,218.1z"/>
						<path class="st29" d="M519.8,231.5l10-13.3c0.5-0.5,0.4-1.2,0-1.7l0,0l-8.6-8.6c-0.5-0.5-1.3-0.5-1.7-0.1l0,0l-13.4,10
							c-0.5,0.5-0.4,1.4,0.3,2l0,0l11.4,11.4C518.3,231.9,519.3,232.1,519.8,231.5 M519.6,208c0.4-0.4,0.9-0.3,1.2,0.1l0,0l8.6,8.6
							c0.4,0.4,0.4,0.9,0,1.2l0,0l0,0l0,0l0,0l0,0l-10,13.3c-0.4,0.3-1,0.1-1.5-0.4l0,0l-11.4-11.4c-0.5-0.5-0.6-1.2-0.4-1.5l0,0
							L519.6,208L519.6,208L519.6,208L519.6,208z"/>
						<path class="st1" d="M519.8,206.7l-1.2,1.2l0,0l11.1,11.2l0,0l1.2-1.2L519.8,206.7z"/>
						<path class="st10" d="M519.8,206.7l-1.2,1.2l0,0l11.1,11.2l0,0l1.2-1.2l0,0L519.8,206.7z"/>
						<path class="st11" d="M524.5,220.2c0.3-0.3,0.3-0.7,0-1l0,0l-6.1-6.1c-0.3-0.3-0.7-0.3-1,0l0,0l-9.4,7.1
							c-0.2,0.2-0.1,0.8,0.2,1.2l0,0l8.1,8.1c0.4,0.4,0.9,0.5,1.2,0.2L524.5,220.2z"/>
						<path class="st10" d="M524.5,220.2c0.3-0.3,0.3-0.7,0-1l0,0l-6.1-6.1c-0.3-0.3-0.7-0.3-1,0l0,0l-9.4,7.1
							c-0.2,0.2-0.1,0.8,0.2,1.2l0,0l8.1,8.1c0.4,0.4,0.9,0.5,1.2,0.2l0,0L524.5,220.2z"/>
						<path class="st29" d="M517.5,229.7l7.1-9.4c0.4-0.4,0.3-0.9,0-1.2l0,0l-6.1-6.1c-0.4-0.4-0.9-0.4-1.2,0l0,0l-9.4,7.1
							c-0.4,0.4-0.2,1,0.2,1.4l0,0l8.1,8.1C516.5,230,517.1,230.1,517.5,229.7 M517.5,213.3c0.2-0.2,0.5-0.2,0.7,0l0,0l6.1,6.1
							c0.2,0.2,0.2,0.6,0,0.7l0,0l0,0l0,0l0,0l0,0l-7.1,9.4c-0.1,0.1-0.6,0.1-0.9-0.2l0,0l-8.1-8.1c-0.4-0.4-0.4-0.7-0.2-0.9l0,0
							L517.5,213.3L517.5,213.3L517.5,213.3L517.5,213.3z"/>
						<path class="st15" d="M521.3,237.1l-0.4,0.4"/>
						<path class="st3" d="M494.7,244c6.2,6.2,16.1,6.2,22.3,0c6.2-6.2,6.2-16.1,0-22.3"/>
						<path class="st3" d="M517,221.7c-6.2-6.2-16.1-6.2-22.3,0c-6.2,6.2-6.2,16.1,0,22.3"/>
						<path class="st15" d="M494.7,244c6.2,6.2,16.1,6.2,22.3,0c6.2-6.2,6.2-16.1,0-22.3"/>
						<path class="st15" d="M517,221.7c-6.2-6.2-16.1-6.2-22.3,0c-6.2,6.2-6.2,16.1,0,22.3"/>
						<path class="st15" d="M599.3,224.8h-52.6"/>
						<path class="st15" d="M546.8,224.8v-69.8"/>
						<path class="st3" d="M575.3,194h-18.8l0,0v-30l0,0h18.8V194z"/>
						<path class="st3" d="M620.8,220.3h-26.3l0,0v-52.6l0,0h26.3V220.3z"/>
						<path class="st11" d="M617.1,216.6h-22.6l0,0v-45.1l0,0h22.6V216.6z"/>
						<path class="st15" d="M617.1,171.5h-4.5"/>
						<path class="st15" d="M612.6,171.5v45.1"/>
						<path class="st15" d="M612.6,216.6h4.5"/>
						<path class="st15" d="M617.1,216.6v-45.1"/>
						<path class="st15" d="M594.5,220.3h22.5"/>
						<path class="st15" d="M617.1,220.3h3.7"/>
						<path class="st15" d="M620.8,220.3v-52.6"/>
						<path class="st15" d="M620.8,167.8h-26.3"/>
						<path class="st15" d="M594.5,167.8v3.7"/>
						<path class="st15" d="M594.5,171.5h18"/>
						<path class="st15" d="M612.6,216.6h-18"/>
						<path class="st15" d="M594.5,216.6v3.7"/>
						<path class="st15" d="M594.5,194v22.5"/>
						<path class="st15" d="M612.6,194h-18"/>
						<path class="st15" d="M594.5,171.5V194"/>
						<path class="st15" d="M594.5,194h18"/>
						<path class="st15" d="M575.3,164h-18.8"/>
						<path class="st15" d="M556.5,164v30"/>
						<path class="st15" d="M556.5,194h18.8"/>
						<path class="st15" d="M575.3,194v-30"/>
						<path class="st15" d="M599.3,154.9v12.9"/>
						<path class="st15" d="M599.3,220.3v4.4"/>
						<path class="st15" d="M546.8,154.9h52.6"/>
						<path class="st15" d="M546.8,224.8v-69.8"/>
						<path class="st15" d="M599.3,224.8h-52.6"/>
						<path class="st1" d="M436.9,151.8l-0.1,45.1l0,0h21.8l0,0l0.1-45.1H436.9z"/>
						<path class="st10" d="M436.9,151.8l-0.1,45.1l0,0h21.8l0,0l0.1-45.1l0,0H436.9z"/>
						<path class="st1" d="M426.5,182.2c-0.6,0-1-0.5-1-1.1l0,0V169c0-0.6,0.4-1.1,1-1.1l0,0l16.3-2.3c0.6,0,1,0.6,1,1.5l0,0v16
							c0,0.8-0.4,1.5-1,1.5L426.5,182.2z"/>
						<path class="st10" d="M426.5,182.2c-0.6,0-1-0.5-1-1.1l0,0V169c0-0.6,0.4-1.1,1-1.1l0,0l16.3-2.3c0.6,0,1,0.6,1,1.5l0,0v16
							c0,0.8-0.4,1.5-1,1.5l0,0L426.5,182.2z"/>
						<path class="st1" d="M427.1,167.3v15.6l0,0h-1.7l0,0v-15.6H427.1z"/>
						<path class="st10" d="M427.1,167.3v15.6l0,0h-1.7l0,0v-15.6l0,0H427.1z"/>
						<path class="st11" d="M431.6,180.1c-0.4,0-0.6-0.3-0.6-0.7l0,0v-8.5c0-0.4,0.3-0.7,0.6-0.7l0,0l11.5-1.7c0.4,0,0.6,0.4,0.6,1
							l0,0v11.2c0,0.6-0.3,1-0.6,1L431.6,180.1z"/>
						<path class="st10" d="M431.6,180.1c-0.4,0-0.6-0.3-0.6-0.7l0,0v-8.5c0-0.4,0.3-0.7,0.6-0.7l0,0l11.5-1.7c0.4,0,0.6,0.4,0.6,1
							l0,0v11.2c0,0.6-0.3,1-0.6,1l0,0L431.6,180.1z"/>
						<path class="st1" d="M436.9,151.8l-0.1,45.1l0,0h21.8l0,0l0.1-45.1H436.9z"/>
						<path class="st10" d="M436.9,151.8l-0.1,45.1l0,0h21.8l0,0l0.1-45.1l0,0H436.9z"/>
						<path class="st1" d="M323.1,163.8l0.1,65.9l0,0l75.7-0.1l0,0l-0.1-65.9L323.1,163.8z"/>
						<path class="st29" d="M323.3,229.5l-0.1-65.5l0,0l75.3-0.1l0,0l0.1,65.5L323.3,229.5z M399,229.8l-0.1-66.3l0,0l-76,0.1l0,0
							l0.1,66.2H399z"/>
						<path class="st11" d="M327.2,169.4v24.7l0,0H344l0,0v-24.7H327.2z"/>
						<path class="st10" d="M327.2,169.4v24.7l0,0H344l0,0v-24.7l0,0H327.2z"/>
						<path class="st11" d="M327.2,199.4v24.7l0,0H344l0,0v-24.7H327.2z"/>
						<path class="st10" d="M327.2,199.4v24.7l0,0H344l0,0v-24.7l0,0H327.2z"/>
						<path class="st1" d="M398.7,163.7l-59.5,0.1l0,0v51.9l0,0l12.8,14l0,0h46.7V163.7z"/>
						<path class="st29" d="M339.5,163.9l59-0.1l0,0l0.1,65.5l0,0h-46.4l0,0l-12.7-14L339.5,163.9z M352,229.9H399l0,0l-0.1-66.2
							l0,0l-59.8,0.1l0,0v52.1L352,229.9z"/>
						<path class="st11" d="M351.9,215.9h-12.4l0,0l12.4,13.5V215.9z"/>
						<path class="st29" d="M351.7,216.1V229l0,0L340,216.1H351.7z M352.1,229.9v-14.2l0,0h-13L352.1,229.9z"/>
						<path class="st10" d="M475.4,195.1v-42.2"/>
						<path class="st30" d="M477.2,187.6c0-0.2-0.1-0.4-0.4-0.4s-0.4,0.1-0.4,0.4s0.1,0.4,0.4,0.4
							C477,187.9,477.2,187.8,477.2,187.6"/>
						<path class="st10" d="M477.2,187.6c0-0.2-0.1-0.4-0.4-0.4s-0.4,0.1-0.4,0.4s0.1,0.4,0.4,0.4
							C477,187.9,477.2,187.8,477.2,187.6z"/>
						<path class="st31" d="M465.1,196.6h11.8l0,0v-45.2l0,0h-11.8V196.6z"/>
						<path class="st10" d="M476.9,151.4h-11.8l0,0v45.2l0,0h11.8V151.4z"/>
						<path class="st31" d="M468.3,179.9h5l0,0v-11.4l0,0h-5V179.9z"/>
						<path class="st10" d="M473.4,168.5h-5l0,0v11.4l0,0h5V168.5z"/>
						<path class="st13" d="M470,177.3h3.5l0,0v-6l0,0H470V177.3z"/>
						<path class="st10" d="M473.5,171.4H470l0,0v6l0,0h3.5V171.4z"/>
						<path class="st30" d="M473.1,185.3v-1.2l0,0l-0.7-0.7l0,0v-18.8l0,0l0.7-0.7l0,0v-1.2l0,0h0.6l0,0v22.5L473.1,185.3
							L473.1,185.3z"/>
						<path class="st1" d="M473.1,185.3v-1.2l0,0l-0.7-0.7l0,0v-18.8l0,0l0.7-0.7l0,0v-1.2l0,0h0.6l0,0v22.5L473.1,185.3
							L473.1,185.3z"/>
						<path class="st10" d="M473.1,185.3v-1.2l0,0l-0.7-0.7l0,0v-18.8l0,0l0.7-0.7l0,0v-1.2l0,0h0.6l0,0v22.5l0,0L473.1,185.3
							L473.1,185.3z"/>
					</g>
				</g>
			</g>
		</g>
	</g>
</g>
</svg>
