<?xml version="1.0" encoding="utf-8"?>
<!-- Generator: Adobe Illustrator 20.0.0, SVG Export Plug-In . SVG Version: 6.00 Build 0)  -->
<svg version="1.1" id="Layer_1" xmlns="http://www.w3.org/2000/svg" xmlns:xlink="http://www.w3.org/1999/xlink" x="0px" y="0px"
	 viewBox="0 0 182 180" style="enable-background:new 0 0 182 180;" xml:space="preserve">
<style type="text/css">
	.st0{fill:#FFFFFF;}
</style>
<path class="st0" d="M90.7,136.5c-2.7,0-5.4-0.2-8-0.7c2.4-0.7,4.3-1.6,5.2-2.2c1.3,0.2,2.6,0.2,3.9,0.2c15.2,0,31.6-10.1,38.2-23.6
	c0.5-0.2,3.7-1.4,4.1-1.6C126.3,125.7,109.4,136.5,90.7,136.5"/>
<path class="st0" d="M48.1,71.9c3.7-8,9.7-14.7,17.4-19.4c7.6-4.6,16.6-7.2,25.5-7.2c6.3,0,12.3,1.1,17.3,3.1l-4.4,1.7
	c-1.9-0.7-6.5-1.8-12.9-1.8c-21,0-33.8,13.6-38.2,21.7C52.4,70.2,48.9,71.6,48.1,71.9"/>
<path class="st0" d="M130.3,71.5c-1.7-3.3-5.1-7.8-7.4-10l3.2-1.2c2.1,1.7,5,5.7,7,9.4L130.3,71.5z"/>
<path class="st0" d="M98.6,118.8c0.2-1.3,0.3-3,0.3-3.9c5-1.9,48.6-18.5,51.2-19.5c2.2-0.9,3.4-3.6,3.4-5.7c0-1.6-0.7-3.2-1.4-4.8
	c-0.9-2.1-2-4.4-2-7.5c0-3.8,2-6,3.9-6.8c1.1-0.4,2.1-0.8,2.8-1.1c0,0.7-0.1,1.6-0.1,2.4c0,0.6-0.1,1.2-0.1,1.7
	c-1.2,0.5-2.9,1.7-2.9,4.2c0,1.6,0.7,3.2,1.6,5.1c1,2.2,2.2,4.7,2.2,7.6c0,0,0,0.1,0,0.2c0.1,3.8-2,6.6-6.2,8.2
	C145.9,100.7,106.3,115.8,98.6,118.8"/>
<path class="st0" d="M111.5,83c0-1.2-0.1-3-0.1-3.9c3-0.9,4.5-2.7,4.5-5.6c0-1-0.2-2-0.6-2.9c-0.4-1-2-4.4-2.5-5.3
	c-0.2-0.5-0.6-1.7-0.6-2.6c0-3.9,3.2-5.7,5.1-6.5c2.6-1,8.8-3.5,13-5.2c1.1-0.5,2.1-0.8,2.7-1.1c0,0.6,0,4,0,4
	c-2.6,1.1-14.5,5.8-14.5,5.9c-1.4,0.5-2.2,1.8-2.2,3.5c0,1.2,0.4,2.2,1,3.6c0.3,0.6,0.6,1.3,0.9,2c0.3,0.6,0.5,1.1,0.6,1.4
	c0.5,1.1,1,2.8,1,4c0,3.1-2,6.1-4.7,7.3C113.6,82.2,112.3,82.7,111.5,83"/>
<path class="st0" d="M77.1,133.6c-6.5,0-10.9-3.1-13.4-5.8c-3.2-3.3-5.1-7.7-5-11.1l0-1.1l-1,0.4c-0.5,0.2-13.2,5.1-16.9,6.5
	c0-1.3,0-3.2,0-4.1c1.5-0.6,6.6-2.6,12-4.7c4.4-1.7,8.9-3.5,11.2-4.4c-0.8,1.9-1.2,3.8-1.2,5.7c0,9,7.3,14.3,14.3,14.3
	c8,0,14.5-6.4,14.5-14.3c0-2.3-0.6-4.6-1.8-6.8c-0.5-0.9-1.3-2.3-2.2-3.9c-2.2-3.8-5.2-9-6.9-12.6c-0.5-0.9-1.9-4.3-1.9-7.8
	c0-4.8,1.9-8,5.7-9.5c0.9-0.4,1.6-0.6,2.1-0.8l-0.1,4.3c-2.3,0.7-3.8,2.9-3.8,5.6c0,2.3,0.6,4.2,2.3,7.6c0.3,0.5,0.8,1.5,1.9,3.4
	c1.2,2.1,3.1,5.4,6,10.7c1.9,3.4,2.8,6.7,2.8,9.9c0,5.2-2,10-5.6,13.4C86.8,131.7,82.1,133.6,77.1,133.6"/>
<path class="st0" d="M77.1,126.1c-4.4,0-11-3.5-11-11.1c0-2,0.6-3.8,1.9-5.8l0.3-0.4l-0.4-0.4c-0.3-0.4-1.1-1.7-1.1-3.3
	c0-5.3,5.1-9.4,9.6-9.4c0.9,0,2.2,0.2,3.3,0.7c0,1,0,2.8,0,4.1c0,0.1,0,0.2,0,0.3c-0.8-0.6-1.8-0.9-2.9-0.9c-1.7,0-3.3,0.7-4.3,1.9
	c-1,1.2-1.5,2.6-1.2,4c0.2,1.3,1,2.5,2.4,3.6c-3.2,1.9-3.9,5-3.4,7.2c0.5,2.7,2.9,5.4,6.8,5.4c2.5,0,4.9-1.4,6.2-3.7
	c1.1-1.9,1.2-4,0.2-5.7l-0.3-0.5l-0.6,0.2c-0.3,0.1-1.6,0.6-2.8,1.1c-0.7,0.3-1.3,0.5-1.8,0.7c0-1.2,0-3,0-3.9l6.9-2.7
	c2.3,2.3,3.4,4.8,3.4,7.7C88.3,120.4,83.7,126.1,77.1,126.1"/>
<path class="st0" d="M98.8,111.2c-1.2-2.8-5.6-13.3-6.7-16.1c1.7-0.6,2.8-1.1,3.5-1.3c0,0,3.4,8.5,3.5,8.8l0.8,1.9l0.6-2
	c0.2-0.7,2.3-9.7,2.7-11.7c0.8-0.3,2.8-1.1,4.1-1.6c-0.9,4.3-3.9,18-4.5,20.5C102.8,109.7,99.5,110.9,98.8,111.2"/>
<path class="st0" d="M62.2,102.2c0-1.4,0.1-3.9,0.1-6.2c0.1-2.8,0.1-5.5,0.1-5.9c0-4.6,1.9-7.8,5.5-9.4c0.7-0.3,1.3-0.6,1.9-0.8
	c-0.1,1.6-0.1,4.5-0.2,5.7c-2.7,0.7-2.9,2.3-3.1,5.7c-0.2,3.8-0.2,7.8-0.2,9.2v0C65.4,101,63.4,101.7,62.2,102.2"/>
<path class="st0" d="M127.3,100.4c-0.8-1.1-1.9-4-1.9-5.6c0-0.4,0-2.6,0-4.4c0-1.5,0-2.8,0-3.1v-1l-1,0.4c-0.1,0-0.2,0.1-0.3,0.1
	l0-4.1l1.4-0.6l0-0.4c0-0.1,0.2-2.4,0.2-3.6l3.5-2.6c-0.1,1.5-0.2,3.8-0.2,4.1v1l1.7-0.6c1-0.4,2.7-1,3-1.1l0.5-0.2v-0.5
	c0-0.4,0-2.8,0-3.7c0.7-0.5,2.5-1.8,3.7-2.7l-0.1,5.5l2.6-1l-0.1,4.2l-2.8,1.2l0,0.5c0,0,0,8.5,0,9.3c0,1.8,1,3.4,1.9,4.4
	c0,0-3,1.1-3.7,1.4c-1.2-1.1-2-3.8-2-6.8c0-0.8,0.2-5.7,0.2-6.4l0.1-1.1l-5.2,2l0,9.5c0,1.9,0.9,3.5,2.1,4.5
	C130.5,99.2,127.3,100.4,127.3,100.4"/>
<path class="st0" d="M117.4,104.1c-2.4,0-4.5-0.7-6-2c-1.8-1.5-2.8-3.9-2.8-6.9c0-8,8.3-10.6,12-10.6c0.2,0,0.4,0,0.6,0l0,3.7
	c-0.2,0-0.4,0-0.5,0c-3,0-7.7,1.9-8.1,5.8l-0.1,1.1l1.1-0.4c0.4-0.2,3-1.2,5.3-2.1c0.9-0.3,1.7-0.7,2.3-0.9l0,3.6
	c-0.7,0.3-2,0.8-3.4,1.3c-1.8,0.7-3.6,1.3-3.9,1.4l-0.9,0.3l0.5,0.8c0.9,1.3,2.4,1.9,4.1,1.9c1.6,0,3.4-0.6,4.8-1.6l0,3.5
	C121.2,103.6,119.3,104.1,117.4,104.1"/>
<path class="st0" d="M133,42.2c0,0.6,0,3.5,0,3.9l-77,30l-0.3,10.1l4.4-1.7l-0.1,4.7L55.4,91v0.5c0,2-0.2,9.6-0.3,13
	c-0.1,2.3-0.8,5-5.8,6.9l-8.2,3.1v-3.9c1.4-0.5,6.3-2.4,7.4-2.8c1.7-0.6,2.6-2.3,2.6-4.8c0-0.8,0-3.3,0.1-5.5c0-1.8,0.1-3.4,0.1-3.8
	v-1l-4.7,1.8c0-0.5,0-4.1,0-4.7l4.8-1.9v-0.5c0-0.7,0.1-3.1,0.2-5.2c0.1-1.5,0.1-2.8,0.1-3.5l0-1.1l-1,0.4c0,0-4.2,1.7-8.8,3.5
	c-5.3,2.1-11.6,7.5-11.6,15.5c0,3.5,1.3,5.6,2.5,6.7c1.3,1.3,3.2,2.1,5.1,2.1c0.7,0,1.4-0.1,2-0.3c0,0.9,0,4,0,4
	c-1,0.3-2.1,0.4-3,0.4c-6.6,0-10.7-6.7-10.7-13c0-8.2,5.1-15.2,13.4-18.5L133,42.2"/>
<path class="st0" d="M143.4,94.2c0-3.8,0.2-16.5,0.3-19.1c0.8-0.3,2.3-0.9,3.4-1.3c0,1.8-0.1,5.4-0.1,9c-0.1,5.1-0.1,8.7-0.1,10
	C146.2,93.1,143.7,94.1,143.4,94.2"/>
<path class="st0" d="M145.5,72.1c-1.2,0-2.2-1-2.2-2.2s1-2.2,2.2-2.2c1.2,0,2.2,1,2.2,2.2S146.7,72.1,145.5,72.1"/>
<path class="st0" d="M72.6,79.2l3.8-1.3c0,2.4-0.2,8.2-0.2,12c0,1.4,0,2.4-0.1,3c-1.2,0.1-2.7,0.4-3.9,0.9L72.6,79.2z"/>
<path class="st0" d="M74.5,76c-1.2,0-2.2-1-2.2-2.2s1-2.2,2.2-2.2c1.2,0,2.2,1,2.2,2.2S75.7,76,74.5,76"/>
<path class="st0" d="M105.2,66.7l3.5-1.4l-0.2,18.8c-0.9,0.3-2.5,1-3.5,1.4L105.2,66.7z"/>
<path class="st0" d="M106.8,63.5c-1.2,0-2.2-1-2.2-2.2c0-1.2,1-2.2,2.2-2.2c1.2,0,2.2,1,2.2,2.2C109.1,62.6,108.1,63.5,106.8,63.5"
	/>
<path class="st0" d="M91.7,18.2c-39.7,0-72,32.2-72,72s32.2,72,72,72c39.7,0,72-32.2,72-72S131.4,18.2,91.7,18.2 M91.7,161.2
	c-39.2,0-71.1-31.8-71.1-71.1c0-39.2,31.8-71.1,71.1-71.1c39.2,0,71.1,31.8,71.1,71.1C162.7,129.4,130.9,161.2,91.7,161.2"/>
<path class="st0" d="M91.7,10.7c-43.8,0-79.4,35.5-79.4,79.4c0,43.8,35.5,79.4,79.4,79.4c43.8,0,79.4-35.5,79.4-79.4
	C171,46.3,135.5,10.7,91.7,10.7 M91.7,166c-41.9,0-75.9-34-75.9-75.9c0-41.9,34-75.9,75.9-75.9c41.9,0,75.9,34,75.9,75.9
	C167.5,132,133.6,166,91.7,166"/>
<path class="st0" d="M89,91.8c0.1-4.6,0.5-22.6,0.5-25.7l3.9-1.5v11.6l0.9-0.3c2.6-0.8,3.7-1.3,3.7-3.9c0,0,0-1.3,0-2.4l4.1-1.6
	c0,1.4,0,2.9,0,2.9c0,2.1,0,4.2-2.5,5.9c0,0,2.5,0.2,2.5,3.8c0,1.5,0,6.1,0,6.1c-0.9,0.4-2.7,1.1-3.8,1.5c0.1-1.8,0.2-5.3,0.2-6.1
	c0-0.9-0.2-1.5-0.6-2c-0.3-0.3-0.8-0.6-1.6-0.6c-0.8,0-1.7,0.3-2.8,0.8l-0.4,0.2l0,0.4c0,1.9-0.2,7.7-0.3,9.4
	C92,90.6,90.2,91.3,89,91.8"/>
</svg>