<?xml version="1.0" encoding="UTF-8"?>
<svg width="29px" height="30px" viewBox="0 0 29 30" version="1.1" xmlns="http://www.w3.org/2000/svg" xmlns:xlink="http://www.w3.org/1999/xlink">
    <!-- Generator: Sketch 44.1 (41455) - http://www.bohemiancoding.com/sketch -->
    <title>friskis_logo</title>
    <desc>Created with Sketch.</desc>
    <defs>
        <polygon id="path-1" points="3.26760563e-05 0.054144518 28.9453003 0.054144518 28.9453003 29.0791202 3.26760563e-05 29.0791202"></polygon>
    </defs>
    <g id="Page-1" stroke="none" stroke-width="1" fill="none" fill-rule="evenodd">
        <g id="friskis_logo">
            <g id="Group-3" transform="translate(0.000000, 0.027769)">
                <g id="Fill-1-Clipped">
                    <mask id="mask-2" fill="white">
                        <use xlink:href="#path-1"></use>
                    </mask>
                    <g id="path-1"></g>
                    <path d="M14.4726665,28.4336455 C6.83251438,28.4336455 0.638931266,22.222999 0.638931266,14.5618364 C0.638931266,6.90067378 6.83251438,0.69002724 14.4726665,0.69002724 C22.1128186,0.69002724 28.3064017,6.90067378 28.3064017,14.5618364 C28.3064017,22.222999 22.1128186,28.4336455 14.4726665,28.4336455 M14.4726665,0.0541363268 C6.47961296,0.0541363268 3.26760563e-05,6.55164233 3.26760563e-05,14.5666692 C3.26760563e-05,22.5816962 6.47961296,29.0791202 14.4726665,29.0791202 C22.46572,29.0791202 28.9453003,22.5816962 28.9453003,14.5666692 C28.9453003,6.55164233 22.46572,0.0541363268 14.4726665,0.0541363268" id="Fill-1" fill="#FEFEFE" fill-rule="nonzero" mask="url(#mask-2)"></path>
                </g>
            </g>
            <g id="Group" transform="translate(1.035714, 1.041466)" fill-rule="nonzero" fill="#FEFEFE">
                <path d="M13.4369522,26.5558394 C6.27517753,26.5558394 0.469459236,20.7342798 0.469459236,13.5529638 C0.469459236,6.37164778 6.27517753,0.550088176 13.4369522,0.550088176 C20.5987268,0.550088176 26.4044451,6.37164778 26.4044451,13.5529638 C26.4044451,20.7342798 20.5987268,26.5558394 13.4369522,26.5558394 M13.4369522,0.306642626 C6.14112403,0.306642626 0.226676135,6.23722846 0.226676135,13.5529638 C0.226676135,20.8686991 6.14112403,26.799285 13.4369522,26.799285 C20.7327804,26.799285 26.6472282,20.8686991 26.6472282,13.5529638 C26.6472282,6.23722846 20.7327804,0.306642626 13.4369522,0.306642626" id="Fill-4"></path>
            </g>
            <path d="M21.4299544,18.2100055 C20.2280473,20.7402173 17.2102501,22.6191386 14.5265656,22.6193844 C14.2864783,22.6193844 14.0494135,22.6043123 13.8161065,22.5734311 C13.6540332,22.6901572 13.2603685,22.8911718 12.7460473,23.013468 C16.6851459,23.7619893 20.5874839,21.6739441 22.2496332,17.8907904 C22.1650839,17.9237195 22.0588051,17.9650856 21.9340642,18.01366 C21.7254276,18.0948358 21.5164642,18.1760935 21.4299544,18.2100055" id="Fill-6" fill="#FEFEFE" fill-rule="nonzero"></path>
            <path d="M7.49002199,10.7373658 C8.27146987,9.21443857 10.5821572,6.68299806 14.3912051,6.68299806 C15.7425234,6.68299806 16.5416163,6.95732483 16.7261544,7.02842535 L17.6118389,6.67480676 C16.6912727,6.28498262 15.5581487,6.07192681 14.3908783,6.07192681 C12.7771713,6.07192681 11.1297262,6.55013512 9.75194027,7.41857714 C8.33110367,8.31413237 7.2287769,9.58804396 6.55156562,11.1135105 C6.69975155,11.0542054 6.89482761,10.9759784 7.07201354,10.9048779 C7.25287549,10.832303 7.41511212,10.767264 7.49002199,10.7373658" id="Fill-8" fill="#FEFEFE" fill-rule="nonzero"></path>
            <path d="M20.7351961,8.84636235 L20.1052834,9.09947362 C20.5355454,9.51747587 21.192089,10.3955017 21.4969566,11.0286076 L22.039951,10.6382101 C21.6702214,9.93277496 21.1175059,9.17385067 20.7351961,8.84636235" id="Fill-10" fill="#FEFEFE" fill-rule="nonzero"></path>
            <path d="M18.0682172,13.1821914 C18.2155862,13.1217396 18.4657214,13.0182016 18.742651,12.8995915 C19.2460256,12.6844059 19.6113439,12.1013489 19.6113439,11.5132133 C19.6113439,11.2725528 19.5197693,10.9454741 19.4346482,10.7434765 C19.4086707,10.6843353 19.36562,10.584811 19.3178313,10.474556 C19.2632623,10.3485737 19.2027299,10.2085844 19.1540425,10.0972646 C19.0387777,9.83817359 18.9762031,9.65681813 18.9762031,9.44220598 C18.9762031,9.15551035 19.1232454,8.91935507 19.3599834,8.82589227 C19.3767299,8.81942115 21.5860397,7.90609077 22.0137693,7.72129496 L22.012789,6.91838335 C21.8922144,6.96826842 21.7060425,7.04534858 21.483682,7.13741884 C20.7342566,7.44778734 19.6016228,7.91682138 19.129127,8.10833405 C18.3023411,8.44311267 18.1789073,9.02592392 18.1789073,9.34358268 C18.1789073,9.52764127 18.2556144,9.76011046 18.2927017,9.84382559 C18.3769242,10.0236247 18.6630848,10.6558295 18.7443665,10.8375946 C18.8185411,11.0012568 18.8562003,11.1812198 18.8562003,11.372241 C18.8562003,11.8914058 18.5844172,12.2333927 18.047958,12.3897647 C18.0526144,12.5606353 18.0632341,12.9574221 18.0682172,13.1821914" id="Fill-12" fill="#FEFEFE" fill-rule="nonzero"></path>
            <path d="M14.7631975,17.2464133 C14.227882,16.2629654 13.8940144,15.6571366 13.6731242,15.2561722 C13.47862,14.903127 13.3810003,14.7258672 13.330189,14.6247046 C13.0222172,14.006425 12.9183073,13.6542809 12.9183073,13.2289065 C12.9183073,12.7360357 13.1911524,12.3374469 13.6054031,12.2109731 L13.61782,11.3458076 C13.5252651,11.3792282 13.3938256,11.4279664 13.1980961,11.5092242 C12.3240115,11.8737372 12.1405355,12.6904102 12.1405355,13.311311 C12.1405355,13.9806224 12.4123186,14.6063561 12.4955608,14.7821415 C12.8172566,15.4588251 13.3574735,16.4316243 13.7519552,17.1418923 C13.9204003,17.4451344 14.0658087,17.7070103 14.1510115,17.868379 C14.3613637,18.2672136 14.4725439,18.6977485 14.4725439,19.1133753 C14.4725439,20.5696253 13.3043749,21.7543335 11.8685073,21.7543335 C10.6085186,21.7543335 9.30515239,20.7665442 9.30515239,19.1133753 C9.30515239,18.7446847 9.38790451,18.378943 9.55716646,18.0020611 C9.15010451,18.1655595 8.30354956,18.5057444 7.47766226,18.8377379 C6.48104252,19.2382927 5.53278337,19.619434 5.27758337,19.7218253 C5.27758337,19.8881088 5.27750168,20.313647 5.27701155,20.5561915 C5.89491579,20.3100428 8.27234394,19.3637834 8.36685943,19.3265949 L8.5130031,19.26901 L8.50614111,19.426365 C8.47754956,20.0795395 8.85593832,20.9349574 9.44770168,21.555121 C9.90549323,22.0347218 10.6967439,22.6064748 11.8669552,22.6064748 C13.8136313,22.6064748 15.2816848,21.1033706 15.2816848,19.1101807 C15.2816848,18.5063997 15.1071946,17.8793554 14.7631975,17.2464133" id="Fill-14" fill="#FEFEFE" fill-rule="nonzero"></path>
            <path d="M10.2469499,17.9473923 L10.2060231,18.010793 C9.96389354,18.385709 9.85589916,18.7253204 9.85589916,19.1121957 C9.85589916,20.5460015 11.0578062,21.2139204 11.8700513,21.2139204 C13.0831499,21.2139204 13.9284794,20.1341428 13.9284794,19.1651115 C13.9284794,18.6130996 13.7230287,18.1315328 13.3006907,17.6951002 L12.0120287,18.2046812 C12.011947,18.3644935 12.0116203,18.7611984 12.0114569,18.9903091 C12.1094034,18.950827 12.2441104,18.8964368 12.3791442,18.8419646 C12.6047724,18.7508773 12.8311358,18.6593804 12.8888907,18.6365267 L12.9731132,18.6031062 L13.0162456,18.6829714 C13.1889386,19.0030057 13.1684344,19.3878331 12.9598794,19.7387486 C12.7243668,20.1350438 12.2953301,20.3911859 11.866947,20.3911859 C11.1760118,20.3911859 10.7657639,19.8986428 10.6656118,19.4106049 C10.5783668,18.9849848 10.703271,18.3961939 11.3103104,18.0556814 C11.0450625,17.8545029 10.8905865,17.6271943 10.8507217,17.3782605 C10.8117555,17.1358798 10.8891977,16.8817856 11.0688344,16.6627501 C11.2519837,16.438718 11.5667358,16.3015136 11.8735639,16.316258 C12.0669245,16.3248589 12.2423132,16.3905531 12.3856794,16.5054771 C12.3860062,16.4699269 12.386333,16.4320011 12.3867414,16.392519 C12.3893555,16.1276123 12.3927048,15.7895572 12.39344,15.6058262 C12.1849668,15.5182612 11.924702,15.4725537 11.7604231,15.4725537 C10.7678879,15.4725537 9.99804,16.4331479 9.99804,17.2594866 C9.99804,17.5282433 10.115347,17.7896278 10.1985893,17.8894798 L10.2469499,17.9473923 Z" id="Fill-16" fill="#FEFEFE" fill-rule="nonzero"></path>
            <path d="M16.0647338,16.7699743 L15.9826352,17.0642879 L15.2184239,15.1067301 C15.0482634,15.1742264 14.702469,15.3106936 14.5300211,15.3787633 C14.7275479,15.8617225 15.5790042,17.9455903 15.774162,18.441246 C15.9119732,18.3871834 16.1615366,18.289625 16.3504042,18.2156575 L16.5385366,18.1420996 C16.6279873,17.7217219 17.2062718,14.9945092 17.3645056,14.2478719 C17.1236831,14.3454303 16.7083704,14.5135159 16.5569169,14.5741315 C16.4820887,14.9170195 16.1023113,16.6351455 16.0647338,16.7699743" id="Fill-18" fill="#FEFEFE" fill-rule="nonzero"></path>
            <path d="M10.5336169,13.6573936 C10.5401521,13.4340167 10.5596761,12.8245018 10.5692338,12.5274032 C10.4676113,12.5740117 10.3273493,12.6380677 10.1897014,12.6997482 L10.1897014,12.6996663 C9.52474367,12.9975021 9.17445633,13.6128329 9.17658027,14.4791451 C9.17658027,14.5472149 9.16702252,15.0446728 9.15681128,15.5713736 C9.14815212,16.0217315 9.13851266,16.5182064 9.13459155,16.7687784 C9.36904226,16.674988 9.77708451,16.510097 9.93433801,16.4464506 C9.93425633,16.4375221 9.93417465,16.4276925 9.93401128,16.4171257 C9.93090704,16.1394405 9.92265633,15.4018136 9.96701407,14.6954775 C10.0083493,14.0364052 10.0496845,13.7817376 10.5336169,13.6573936" id="Fill-20" fill="#FEFEFE" fill-rule="nonzero"></path>
            <path d="M21.3372606,12.6370848 L21.3372606,12.4876754 C21.3372606,12.4209982 21.3577648,11.950162 21.3705085,11.663794 L20.6723845,12.2004064 C20.6650324,12.3987997 20.6335,12.8566936 20.6320296,12.8779091 L20.6275366,12.9421289 L20.3655563,13.0468138 L20.3600014,13.8730706 C20.3930042,13.86234 20.4250268,13.8512817 20.4443056,13.8435819 L20.5841592,13.787881 L20.5841592,13.9387648 C20.5841592,13.9805405 20.5830155,14.2317678 20.5817085,14.511337 C20.5800746,14.8618429 20.5782775,15.2570733 20.5782775,15.3396416 C20.5782775,15.6625428 20.7909986,16.2247939 20.9481704,16.4169619 L21.1620352,16.3329191 C21.3321958,16.2659962 21.5444268,16.1826087 21.6912239,16.12486 C21.4791563,15.9323644 21.2921676,15.6342828 21.2921676,15.2681315 L21.2918408,13.5083118 L22.1789958,13.1560858 L22.1693563,13.3167172 C22.1622493,13.4345901 22.1263873,14.3498864 22.1263873,14.5052754 C22.1263873,15.0862027 22.2815169,15.6076611 22.5084521,15.8073651 C22.6617028,15.7469952 23.0246521,15.6041388 23.2376183,15.5203418 C23.0704803,15.3436554 22.8795704,15.0305018 22.8795704,14.6831086 C22.8795704,14.5464777 22.8818577,12.9539244 22.8818577,12.9539244 L22.8819394,12.886428 L23.3902972,12.6685394 L23.4023873,11.8258999 L22.9230296,12.0130712 L22.9490887,10.9790011 C22.7246859,11.142909 22.3432746,11.4237069 22.2173901,11.5207739 C22.215838,11.6793575 22.2125704,12.1408556 22.2125704,12.2273557 L22.2125704,12.2982105 L22.1464014,12.3231121 C22.1062915,12.3383479 21.7624577,12.4719481 21.5793901,12.5431305 L21.3372606,12.6370848 Z" id="Fill-22" fill="#FEFEFE" fill-rule="nonzero"></path>
            <path d="M18.3139248,16.8974801 C18.8914741,17.2148932 19.6797839,17.1305228 20.1390459,16.8642235 L20.1385558,16.1433068 C19.8553361,16.3675847 19.4963079,16.4918468 19.1724882,16.4722696 C18.8961304,16.4543306 18.6633952,16.3301504 18.5172515,16.1225828 L18.44226,16.016014 L18.5634065,15.9682587 C18.6088262,15.9503197 18.9497192,15.8195046 19.2841586,15.6910649 C19.5305361,15.5965373 19.7733192,15.5033203 19.8916065,15.4577766 L19.8919332,14.7290782 C19.783122,14.7730655 19.6244797,14.8375311 19.4520318,14.9074029 C19.0317361,15.077782 18.5554825,15.270933 18.4733023,15.3030429 L18.3189896,15.3633309 L18.3345924,15.1980304 C18.3636741,14.8873342 18.5385727,14.6184137 18.8403361,14.420348 C19.1804938,14.197135 19.6124713,14.1128464 19.8934037,14.1449564 L19.8943839,13.4007764 C19.8536206,13.3961893 19.8089361,13.3938957 19.7609839,13.3938957 C19.3603755,13.3938957 18.7316882,13.5567388 18.2526572,13.9433684 C17.79266,14.3145164 17.5595163,14.8079605 17.5595163,15.4098575 C17.5595163,16.1118522 17.820353,16.6261842 18.3139248,16.8974801" id="Fill-24" fill="#FEFEFE" fill-rule="nonzero"></path>
            <path d="M8.06141182,11.8772676 L22.0126992,6.27400626 L22.013271,5.93914576 C22.0135977,5.78154508 22.0139245,5.61001917 22.0140879,5.48403691 L5.01526818,12.3047718 C3.51004562,12.9131399 2.57477521,14.2460288 2.57477521,15.7832908 C2.57477521,16.6413299 2.95610479,17.4755323 3.54639774,17.9084427 C3.99046535,18.234047 4.53002872,18.3153047 5.11011044,18.1450894 L5.10970199,17.9426823 C5.10937522,17.7533813 5.10896677,17.5027274 5.10872168,17.3267782 C4.82844283,17.4422756 4.46696394,17.4204867 4.15531606,17.2587904 C3.66803438,17.0061706 3.38857239,16.4680838 3.38857239,15.7824717 C3.38857239,14.3026308 4.50674704,13.3157425 5.46431889,12.9202663 C6.29829354,12.576723 7.06634421,12.2579994 7.06634421,12.2579994 L7.21069071,12.1980391 L7.2074231,12.3547387 C7.20505407,12.4715467 7.19598646,12.7254771 7.18610199,13.0007869 C7.17229633,13.3871707 7.15661182,13.8250777 7.15661182,13.9653948 L7.15661182,14.0346932 L6.29233013,14.3818407 C6.29208508,14.4943073 6.29151323,14.7169469 6.2910231,14.9328697 C6.29061465,15.080395 6.29028788,15.2248896 6.29004283,15.3288373 L7.13471889,14.9947959 L7.13471889,15.1452702 C7.13471889,15.223579 7.12891889,15.5183841 7.12230199,15.8597976 C7.11437801,16.2697723 7.10531044,16.7343831 7.10531044,16.8801883 C7.10531044,17.3515159 6.95687943,17.6375563 6.65168508,17.7546919 C6.44672451,17.8329189 5.51586535,18.19735 5.29595549,18.2835225 L5.29595549,19.0693142 L6.82519492,18.4684002 C7.55697522,18.1794929 7.87801748,17.7864742 7.89876677,17.1540236 C7.92008788,16.5173135 7.96174987,15.1054604 7.96174987,14.7266945 L7.96174987,14.6583791 L8.78012168,14.3172113 L8.80773296,13.3704604 L8.00471889,13.6917233 L8.06141182,11.8772676 Z" id="Fill-26" fill="#FEFEFE" fill-rule="nonzero"></path>
            <path d="M24.5281183,15.0061245 C24.5295887,14.7875805 24.5367775,14.0986919 24.5469887,13.1309712 C24.5545042,12.4266829 24.5621831,11.7030632 24.5648789,11.3884352 C24.3755211,11.4624026 24.0449211,11.5913338 23.900738,11.6473623 C23.8945296,12.0991946 23.8600563,14.6215428 23.8523775,15.2774205 C23.9088254,15.2547306 23.9776085,15.227044 24.0504761,15.197801 C24.2228423,15.1285026 24.4179183,15.0501118 24.5281183,15.0061245" id="Fill-28" fill="#FEFEFE" fill-rule="nonzero"></path>
            <path d="M24.6907797,10.6902494 C24.6907797,10.4505718 24.4968473,10.2555369 24.2584755,10.2555369 C24.0193685,10.2555369 23.8248642,10.4505718 23.8248642,10.6902494 C23.8248642,10.929927 24.0193685,11.1249619 24.2584755,11.1249619 C24.4968473,11.1249619 24.6907797,10.929927 24.6907797,10.6902494" id="Fill-30" fill="#FEFEFE" fill-rule="nonzero"></path>
            <path d="M10.9446245,15.1929845 C11.1602865,15.0930506 11.4743034,15.0122024 11.7110414,14.9999155 C11.7130837,14.8931828 11.7168414,14.7015063 11.7223963,14.4178415 C11.7365287,13.6926653 11.7589118,12.5535826 11.7653654,12.1414781 L11.0263963,12.4030264 L10.9446245,15.1929845 Z" id="Fill-32" fill="#FEFEFE" fill-rule="nonzero"></path>
            <path d="M11.3884961,11.8591485 C11.6280115,11.8591485 11.8227608,11.6641954 11.8227608,11.424436 C11.8227608,11.1847584 11.6280115,10.9897235 11.3884961,10.9897235 C11.1492256,10.9897235 10.954558,11.1847584 10.954558,11.424436 C10.954558,11.6641954 11.1492256,11.8591485 11.3884961,11.8591485" id="Fill-34" fill="#FEFEFE" fill-rule="nonzero"></path>
            <path d="M17.5870949,13.3732208 L17.6290837,9.79239239 L16.9384752,10.0733541 L16.8907682,13.6483668 C17.03054,13.5931573 17.24514,13.5082954 17.4144837,13.4414544 L17.5870949,13.3732208 Z" id="Fill-36" fill="#FEFEFE" fill-rule="nonzero"></path>
            <path d="M17.6888808,9.10178359 C17.6888808,8.86161454 17.4943766,8.66633388 17.2552696,8.66633388 C17.0160808,8.66633388 16.8214132,8.86161454 16.8214132,9.10178359 C16.8214132,9.34105157 17.0160808,9.53567695 17.2552696,9.53567695 C17.4943766,9.53567695 17.6888808,9.34105157 17.6888808,9.10178359" id="Fill-38" fill="#FEFEFE" fill-rule="nonzero"></path>
            <path d="M14.8061011,11.8416273 L14.9774054,11.7865817 C15.4518617,11.6339777 15.6615603,11.5453478 15.6615603,11.0436304 C15.6615603,11.0436304 15.6631124,10.7971541 15.6635208,10.5848355 L16.4283856,10.2778255 C16.4279772,10.5356877 16.4279772,10.8343426 16.4279772,10.8343426 C16.4279772,11.2335868 16.4311631,11.6302097 15.9631603,11.9626947 C15.9631603,11.9626947 16.4311631,12.0026683 16.4304279,12.6809901 C16.4301011,12.962771 16.4311631,13.8353087 16.4311631,13.8353087 C16.2654955,13.9020678 15.9310561,14.0359956 15.7180899,14.1211033 C15.7290363,13.7774781 15.7505208,13.1077571 15.7555856,12.9707985 C15.7608138,12.8062352 15.7211124,12.678287 15.6376251,12.5899029 C15.5870589,12.5363317 15.4944223,12.4725215 15.3404363,12.4725215 C15.2003377,12.4725215 15.0324645,12.5232256 14.8271772,12.6275828 L14.7559434,12.6638703 L14.7540645,12.7453738 C14.7459772,13.1037433 14.7164054,14.2030163 14.7076645,14.5255898 C14.5517997,14.5872704 14.2085377,14.7231641 13.9918138,14.8086813 C14.0098673,13.9296725 14.0773434,10.5274964 14.0891068,9.92944928 L14.8061011,9.63816655 L14.8061011,11.8416273 Z" id="Fill-40" fill="#FEFEFE" fill-rule="nonzero"></path>
            <path d="M26.0381932,13.0923656 C25.8843707,12.7449724 25.7514608,12.4450069 25.7514608,12.1551167 C25.7514608,11.8452396 25.8926214,11.6411942 26.051182,11.5169322 L26.0495482,10.6852691 C25.9672045,10.7191811 25.8775087,10.7561239 25.78332,10.7951145 C25.4316439,10.9419846 25.0556242,11.3604783 25.0556242,12.0946648 C25.0556242,12.6877152 25.2498834,13.1271787 25.4211876,13.514955 C25.5597341,13.8282723 25.6792468,14.0988311 25.6792468,14.3933904 C25.6792468,14.7759243 25.4691397,15.2673206 25.0797228,15.4244298 C24.5975876,15.6184818 16.6024101,18.74928 15.7810975,19.0708706 C15.7824862,19.243789 15.7668834,19.6060085 15.7249763,19.8619867 C16.9749172,19.3705904 24.2745848,16.502733 25.2996327,16.110861 C26.0644158,15.8177762 26.4566101,15.2804267 26.4338186,14.556725 C26.4334918,14.544438 26.4331651,14.5346085 26.4331651,14.5276459 C26.4331651,13.983989 26.2233848,13.5102859 26.0381932,13.0923656" id="Fill-42" fill="#FEFEFE" fill-rule="nonzero"></path>
        </g>
    </g>
</svg>