
<svg width="95px" height="70px" viewBox="159 52 95 70" version="1.1" xmlns="http://www.w3.org/2000/svg" xmlns:xlink="http://www.w3.org/1999/xlink">
    <!-- Generator: Sketch 42 (36781) - http://www.bohemiancoding.com/sketch -->
    <desc>Created with Sketch.</desc>
    <defs>
        <polyline id="path-1" points="0.0541805182 0.0463636364 93.4993202 0.0463636364 93.4993202 69.9454545 0.0541805182 69.9454545"></polyline>
        <polyline id="path-3" points="0.0541805182 0.0463636364 93.4993202 0.0463636364 93.4993202 69.9454545 0.0541805182 69.9454545"></polyline>
    </defs>
    <g id="logo_white" stroke="none" stroke-width="1" fill="none" fill-rule="evenodd" transform="translate(159.000000, 52.000000)">
        <g id="Untitled">
            <g id="Page-1">
                <g id="F&amp;S_logo_white">
                    <g id="Group-3">
                        <g id="Fill-1-Clipped">
                            <mask id="mask-2" fill="white">
                                <use xlink:href="#path-1"></use>
                            </mask>
                            <g id="path-1"></g>
                            <path d="M37.8288378,68.9609091 C40.8060573,68.6790909 43.3046822,67.4327273 43.9620725,66.8818182 C54.7268384,68.4081818 68.27558,60.9427273 73.3649367,49.9654545 C73.3766758,49.9363636 73.3468765,49.9945455 73.3649367,49.9654545 C73.6584145,49.8472727 77.4266695,48.3781818 77.5747629,48.3172727 C70.8699238,64.7763636 53.9764382,73.0627273 37.8288378,68.9609091" id="Fill-1" fill="#E31836" fill-rule="nonzero" mask="url(#mask-2)"></path>
                        </g>
                    </g>
                    <path d="M55.3797137,7.09090909 L59.8414793,5.30272727 C56.3251637,3.63545455 51.6186827,2.53090909 46.3053799,2.53090909 C33.7436267,2.53090909 20.6418744,9.77090909 15.1082375,23.3236364 C15.575093,23.14 19.4020436,21.5945455 19.7795012,21.4454545 C23.003242,15.0090909 32.0658367,5.71272727 46.3071859,5.71272727 C51.2782484,5.71272727 54.4821231,6.70272727 55.3797137,7.09090909" id="Fill-4" fill="#E31836" fill-rule="nonzero"></path>
                    <path d="M71.0261443,13.2936364 C72.7247036,14.6463636 75.1285125,18.0818182 76.534497,20.8672727 L73.7559394,22.8736364 C72.6000884,20.1836364 69.422401,15.9963636 67.7717012,14.6063636 L71.0261443,13.2936364" id="Fill-5" fill="#E31836" fill-rule="nonzero"></path>
                    <g id="Group-9" transform="translate(44.247423, 15.454545)" fill-rule="nonzero" fill="#E31836">
                        <path d="M4.21072927,9.33272727 C5.95443895,8.76636364 6.45741476,8.53 6.45741476,6.97636364 C6.45741476,6.97636364 6.46554184,5.72545455 6.46554184,4.86363636 L10.3728602,3.27909091 C10.3719572,4.30181818 10.3719572,6.17363636 10.3719572,6.17363636 C10.3719572,8.41363636 9.73985115,10.1218182 8.28781327,10.6309091 C8.97861487,10.6327273 10.3791813,11.5763636 10.3791813,13.2572727 C10.3791813,14.9136364 10.3836963,17.5681818 10.3836963,18.0381818 C9.93038598,18.2227273 6.99741392,19.4109091 6.64794958,19.5472727 C6.64794958,19.5472727 6.78881893,15.0627273 6.81590919,14.3481818 C6.82674529,14.01 6.8800228,12.0436364 4.01206737,13.5163636 C3.97414101,15.1454545 3.82604759,20.6918182 3.82604759,20.6918182 C3.82604759,20.6918182 0.472273517,22.0327273 0.09933095,22.1781818 C0.118294131,21.4327273 0.491236698,2.34909091 0.491236698,2.34909091 L4.21072927,0.823636364 L4.21072927,9.33272727" id="Fill-6"></path>
                        <path d="M7.05430347,37.9118182 C7.05430347,37.9118182 41.4553205,24.39 43.4401335,23.5881818 C44.7937434,23.04 45.5206654,21.2645455 45.5206654,19.9372727 C45.5206654,17.4763636 43.0978932,15.1972727 43.0978932,10.9690909 C43.0978932,7.87272727 44.7242118,6.13818182 46.1708316,5.53090909 C47.6273845,4.92545455 48.8401251,4.43 48.8401251,4.43 C48.8617973,5.19727273 48.6486873,7.89545455 48.6477843,8.52 C47.885645,8.68181818 46.5943426,9.47818182 46.5943426,11.2054545 C46.5943426,13.5927273 49.24377,16.5345455 49.24377,20.4590909 C49.24377,20.9336364 49.6501239,25.0609091 44.5851484,27.0081818 C40.4439508,28.6 7.4859416,41.5990909 6.6813609,41.9181818 C7.00102596,41.0663636 7.09674487,38.3863636 7.05430347,37.9118182" id="Fill-8"></path>
                    </g>
                    <path d="M60.1105759,27.2718182 C61.3576308,26.9627273 63.259367,26.22 63.259367,23.6063636 C63.259367,23.0318182 63.1645511,22.3609091 62.8584312,21.6836364 C62.5568263,21.0045455 61.4352896,18.5145455 61.1020794,17.8054545 C60.9287017,17.41 60.6279999,16.4545455 60.6279999,15.6918182 C60.6279999,14.0590909 61.3684669,11.8045455 64.5669235,10.5045455 C67.2831735,9.39727273 75.7046321,5.88545455 76.3168719,5.63636364 C76.3168719,6.20090909 76.3195809,9.24454545 76.3195809,9.62545455 C75.6152342,9.95272727 66.0550818,13.9290909 65.7597979,14.0436364 C65.0139128,14.34 64.5181611,15.1027273 64.5181611,16.0772727 C64.5181611,16.8127273 64.7141139,17.4309091 65.1773574,18.4718182 C65.5304337,19.2854545 66.0469547,20.4918182 66.2681918,20.9972727 C66.6176561,21.8318182 66.9869867,23.1490909 66.9869867,24.1554545 C66.9869867,26.7518182 65.344414,29.0836364 63.3695341,29.9309091 C61.6474966,30.6718182 60.2071978,31.2563636 60.2071978,31.2563636 C60.2071978,30.8172727 60.1105759,27.2718182 60.1105759,27.2718182" id="Fill-10" fill="#E31836" fill-rule="nonzero"></path>
                    <path d="M10.5019904,55.9063636 C10.9309195,55.7354545 28.023067,48.8345455 28.3427321,48.7109091 C27.5137701,50.2481818 26.9430687,51.9327273 26.9430687,53.8036364 C26.9430687,60.0690909 31.9556696,63.7054545 36.5059302,63.7054545 C41.9429452,63.7054545 46.2277211,59.1472727 46.2277211,53.8036364 C46.2277211,52.2990909 45.8448455,50.6972727 45.0231076,49.1327273 C43.9349822,47.0636364 40.3825462,40.88 38.584656,37.0781818 C37.9344898,35.7009091 37.1660295,33.4281818 37.1660295,31.17 C37.1660295,28.2581818 38.1358607,25.1872727 41.5203371,23.7718182 C42.7791311,23.2472727 43.3579597,23.0663636 43.707424,22.9309091 L43.6460194,27.1881818 C42.1705033,27.5027273 40.981241,28.84 40.981241,30.8481818 C40.981241,32.33 41.300003,33.6163636 42.5407369,36.1127273 C42.9470908,36.9281818 44.1327411,39.0109091 48.100561,46.3272727 C49.5733681,49.0490909 50.1630328,51.5454545 50.1630328,53.7918182 C50.1630328,62.1409091 43.8329422,67.8281818 36.5005121,67.8281818 C27.814472,67.8281818 22.8397974,59.7427273 23.0447804,55.0072727 C22.6149483,55.1763636 10.977876,59.8281818 10.4965724,60.02 C10.5010874,59.3963636 10.5019904,55.9063636 10.5019904,55.9063636" id="Fill-11" fill="#E31836" fill-rule="nonzero"></path>
                    <path d="M36.6675687,49.9872727 L42.1668913,47.8027273 C43.4175583,49.0427273 44.9048135,51.0145455 44.9048135,54.0045455 C44.9048135,57.8836364 41.5329792,62.3954545 36.5113482,62.3954545 C33.139514,62.3954545 28.2903576,59.55 28.2903576,53.7981818 C28.2903576,52.3436364 28.6587851,50.9236364 29.7144022,49.2836364 C29.3622288,48.8636364 28.8411928,47.7718182 28.8411928,46.5718182 C28.8411928,42.3772727 32.6862036,39.2 36.0860311,39.2 C36.8337223,39.2 38.0383358,39.4218182 38.9422475,39.8645455 C38.9422475,40.8454545 38.9043211,44.2681818 38.9043211,44.6381818 C37.5579352,42.6490909 34.8597454,43.08 33.7057004,44.4972727 C32.5805516,45.8763636 32.3240972,47.9590909 35.1180059,49.7354545 C30.1984148,51.8627273 31.8382785,58.3890909 36.5005121,58.3890909 C39.5310091,58.3890909 42.0151858,54.9181818 40.6164255,52.3154545 C40.1631151,52.4945455 37.0305782,53.7681818 36.6648597,53.9127273 C36.6648597,53.3618182 36.6675687,49.9872727 36.6675687,49.9872727" id="Fill-12" fill="#E31836" fill-rule="nonzero"></path>
                    <path d="M46.3270521,39.0109091 C46.6205299,38.8954545 49.5300237,37.7427273 49.7449398,37.6536364 C49.9661769,38.2209091 52.2914241,44.2027273 52.4277784,44.5536364 C52.5812899,43.9945455 54.3150665,36.1127273 54.3800831,35.8027273 C54.6988452,35.6781818 58.4029866,34.1718182 58.4029866,34.1718182 C58.4029866,34.1718182 55.0564366,50.0190909 54.994129,50.3081818 C54.6211864,50.4554545 51.7478129,51.5818182 51.4543351,51.6990909 C51.2601883,51.1209091 46.3270521,39.0109091 46.3270521,39.0109091" id="Fill-13" fill="#E31836" fill-rule="nonzero"></path>
                    <path d="M29.8227632,28.42 C30.8305209,27.9654545 31.8762049,27.4790909 31.8762049,27.4790909 C31.8762049,27.4790909 31.7127603,32.5272727 31.7082453,32.84 C29.8191512,33.2381818 29.6773788,33.9609091 29.5148373,36.5954545 C29.3089513,39.8745455 29.3965432,43.3827273 29.3884161,43.6690909 C29.3884161,43.6690909 26.1592572,44.98 25.4783887,45.2472727 C25.4783887,44.5172727 25.6499603,36.2854545 25.6499603,35.7263636 C25.6400272,31.97 27.2825999,29.5627273 29.8227632,28.42" id="Fill-14" fill="#E31836" fill-rule="nonzero"></path>
                    <path d="M76.2997147,26.9409091 C76.2997147,26.5654545 76.3168719,24.24 76.3204839,23.9909091 C76.6536941,23.7054545 79.7582378,21.4254545 79.9749599,21.2763636 L79.8684049,25.5154545 L81.7240876,24.7890909 L81.6644891,28.9272727 L79.6932212,29.7763636 C79.6932212,29.7763636 79.6850941,35.9890909 79.6850941,36.5209091 C79.6850941,38.1781818 80.9104768,39.5836364 81.4315128,39.9190909 C81.1217809,40.0418182 78.2637585,41.1709091 77.7806489,41.36 C76.5480421,40.5154545 75.9637955,38.0554545 75.9637955,35.8272727 C75.9637955,35.2227273 76.1037619,31.6490909 76.1317551,31.1663636 L73.5157391,32.2090909 C73.5157391,32.2090909 73.5166421,38.1263636 73.5166421,38.8036364 C73.5166421,40.3090909 74.4250688,41.5727273 75.4626257,42.2618182 C75.0923922,42.4072727 71.8966446,43.6690909 71.6835346,43.7545455 C70.9439705,43.1272727 69.948855,40.5181818 69.948855,39.0818182 C69.948855,38.5027273 69.9723332,33.9845455 69.9723332,33.6163636 C69.7718653,33.6972727 69.2273511,33.8709091 69.0982209,33.8927273 L69.1244081,29.8672727 L70.159256,29.4509091 C70.159256,29.4509091 70.3118645,27.2354545 70.3199916,26.6345455 L73.8597854,23.9045455 C73.8597854,23.9045455 73.6918258,27.5918182 73.6918258,27.9581818 C74.0160059,27.8318182 76.1019559,27.0154545 76.2997147,26.9409091" id="Fill-15" fill="#E31836" fill-rule="nonzero"></path>
                    <g id="Group-19">
                        <g id="Fill-16-Clipped">
                            <mask id="mask-4" fill="white">
                                <use xlink:href="#path-3"></use>
                            </mask>
                            <g id="path-3"></g>
                            <path d="M58.2205788,39.3563636 C58.2205788,32.5209091 65.6857512,30.6518182 68.0859482,31.18 L68.0823362,34.91 C66.5571546,34.4054545 62.3094019,35.5036364 62.0240512,38.5672727 C62.5622444,38.3563636 67.648892,36.28 68.0760151,36.1090909 C68.0760151,36.6909091 68.0751121,39.5172727 68.0751121,39.8172727 C67.6145777,39.9972727 63.0038156,41.7718182 62.6624783,41.9063636 C64.0278274,43.8554545 67.230799,43.2809091 69.0341073,41.3045455 L69.0377193,45.2545455 C65.7814701,47.3463636 58.2205788,47.0363636 58.2205788,39.3563636" id="Fill-16" fill="#E31836" fill-rule="nonzero" mask="url(#mask-4)"></path>
                        </g>
                        <g id="Fill-18-Clipped" fill-rule="nonzero" fill="#E31836">
                            <path d="M17.0569301,51.6581818 C20.4107042,50.3290909 21.4040137,48.4527273 21.4771574,46.1736364 C21.5557192,43.8909091 21.7245818,38.2118182 21.7245818,36.6909091 L24.8968511,35.3636364 L25.0268844,30.8036364 L21.9087955,32.0563636 L22.1020394,25.8509091 L76.3168719,3.99 C76.3168719,3.57818182 76.321387,0.709090909 76.321387,0.0463636364 L9.73172408,26.8727273 C4.16196681,29.1327273 0,34.2518182 0,40.8127273 C0,46.2490909 3.96511092,52.4572727 10.5724251,50.3436364 L10.5724251,54.2154545 C10.5724251,54.2154545 15.1154616,52.4236364 17.0569301,51.6581818 M17.7179325,38.3236364 C17.7179325,39 17.6032504,44.0563636 17.6032504,45.0918182 C17.6032504,46.3436364 17.3359598,47.6536364 16.0961289,48.13 C15.1840902,48.48 10.6446658,50.2636364 10.6446658,50.2636364 C10.6446658,50.0609091 10.6392478,46.9154545 10.6392478,46.1636364 C8.62373248,47.5990909 3.95608084,46.3836364 3.95608084,40.8090909 C3.95608084,35.5663636 7.7685833,31.6745455 11.7752326,30.0136364 C15.0143246,28.6736364 18.0005742,27.43 18.0005742,27.43 C17.9761929,28.5327273 17.8019123,32.7781818 17.8019123,33.7218182 L14.4454292,35.0754545 C14.4454292,35.4009091 14.43369,39.35 14.43369,39.6281818 L17.7179325,38.3236364" id="Fill-18"></path>
                        </g>
                    </g>
                    <path d="M82.8609755,24.4045455 C83.1571623,24.29 86.2364218,23.0836364 86.2364218,23.0836364 C86.2364218,24.0136364 86.0811043,37.7090909 86.0883284,38.0527273 C85.5546503,38.2645455 82.8537514,39.3581818 82.6623136,39.4309091 C82.6623136,38.8736364 82.8609755,24.4045455 82.8609755,24.4045455" id="Fill-20" fill="#E31836" fill-rule="nonzero"></path>
                    <path d="M84.6444176,23.0418182 C85.7912385,23.0418182 86.7222404,22.1036364 86.7222404,20.9454545 C86.7222404,19.7890909 85.7912385,18.8518182 84.6444176,18.8518182 C83.4948876,18.8518182 82.5638857,19.7890909 82.5638857,20.9454545 C82.5638857,22.1036364 83.4948876,23.0418182 84.6444176,23.0418182" id="Fill-21" fill="#E31836" fill-rule="nonzero"></path>
                    <path d="M32.8460361,27.3409091 L36.5077362,26.04 C36.5077362,26.7963636 36.28379,38.0045455 36.28379,38.1536364 C35.1965676,38.0972727 33.1991125,38.6554545 32.5001838,39.2145455 L32.8460361,27.3409091" id="Fill-22" fill="#E31836" fill-rule="nonzero"></path>
                    <path d="M34.6412173,25.9054545 C35.7889413,25.9054545 36.7253612,24.9672727 36.7253612,23.8090909 C36.7253612,22.6509091 35.7889413,21.7145455 34.6412173,21.7145455 C33.4916873,21.7145455 32.5588794,22.6509091 32.5588794,23.8090909 C32.5588794,24.9672727 33.4916873,25.9054545 34.6412173,25.9054545" id="Fill-23" fill="#E31836" fill-rule="nonzero"></path>
                    <path d="M55.8113518,18.2690909 L59.2915471,16.8463636 L59.1172664,31.6845455 C58.5862973,31.8954545 55.8050307,33 55.6144959,33.0754545 L55.8113518,18.2690909" id="Fill-24" fill="#E31836" fill-rule="nonzero"></path>
                    <path d="M57.4349613,16.8409091 C58.5862973,16.8409091 59.5172992,15.9045455 59.5172992,14.7481818 C59.5172992,13.5918182 58.5862973,12.65 57.4349613,12.65 C56.2854313,12.65 55.3535264,13.5918182 55.3535264,14.7481818 C55.3535264,15.9045455 56.2854313,16.8409091 57.4349613,16.8409091" id="Fill-25" fill="#E31836" fill-rule="nonzero"></path>
                </g>
            </g>
        </g>
    </g>
</svg>