<?xml version="1.0" encoding="UTF-8" standalone="no"?>
<svg width="86px" height="86px" viewBox="0 0 86 86" version="1.1" xmlns="http://www.w3.org/2000/svg" xmlns:xlink="http://www.w3.org/1999/xlink">
    <!-- Generator: Sketch 44.1 (41455) - http://www.bohemiancoding.com/sketch -->
    <title>object_icon_fs_logo</title>
    <desc>Created with Sketch.</desc>
    <defs>
        <polygon id="path-1" points="9.46478873e-05 0.155966292 83.8415594 0.155966292 83.8415594 83.7640213 9.46478873e-05 83.7640213"></polygon>
    </defs>
    <g id="Design-Library" stroke="none" stroke-width="1" fill="none" fill-rule="evenodd">
        <g id="object_icon_fs_logo">
            <g id="Page-1" transform="translate(1.000000, 1.000000)">
                <g id="Group-3" transform="translate(0.000000, 0.079989)">
                    <mask id="mask-2" fill="white">
                        <use xlink:href="#path-1"></use>
                    </mask>
                    <g id="Clip-2"></g>
                    <path d="M41.920827,81.9046955 C19.7907313,81.9046955 1.85069746,64.0145831 1.85069746,41.9461787 C1.85069746,19.8777742 19.7907313,1.9876618 41.920827,1.9876618 C64.0509228,1.9876618 81.9909566,19.8777742 81.9909566,41.9461787 C81.9909566,64.0145831 64.0509228,81.9046955 41.920827,81.9046955 M41.920827,0.155942697 C18.7685341,0.155942697 9.46478873e-05,18.8723697 9.46478873e-05,41.9601 C9.46478873e-05,65.0478303 18.7685341,83.7640213 41.920827,83.7640213 C65.07312,83.7640213 83.8415594,65.0478303 83.8415594,41.9601 C83.8415594,18.8723697 65.07312,0.155942697 41.920827,0.155942697" id="Fill-1" fill="#FEFEFE" mask="url(#mask-2)"></path>
                </g>
                <path d="M41.920827,79.4955708 C21.1763763,79.4955708 4.35981296,62.7262449 4.35981296,42.0400652 C4.35981296,21.3538854 21.1763763,4.58455955 41.920827,4.58455955 C62.6652777,4.58455955 79.4818411,21.3538854 79.4818411,42.0400652 C79.4818411,62.7262449 62.6652777,79.4955708 41.920827,79.4955708 M41.920827,3.88330112 C20.7880834,3.88330112 3.65657915,20.9666831 3.65657915,42.0400652 C3.65657915,63.1134472 20.7880834,80.1968292 41.920827,80.1968292 C63.0535707,80.1968292 80.1850749,63.1134472 80.1850749,42.0400652 C80.1850749,20.9666831 63.0535707,3.88330112 41.920827,3.88330112" id="Fill-4" fill="#FEFEFE"></path>
                <path d="M62.0729713,52.4549326 C58.5915854,59.7433483 49.8503797,65.1556854 42.0769487,65.1563933 C41.3815234,65.1563933 40.694853,65.1129775 40.019067,65.0240225 C39.5496135,65.3602584 38.4093431,65.9392921 36.9195854,66.291573 C48.3293882,68.4477303 59.6327121,62.433 64.4472135,51.5354157 C64.2023121,51.6302697 63.8944699,51.749427 63.5331515,51.8893483 C62.9288248,52.1231798 62.3235515,52.3572472 62.0729713,52.4549326" id="Fill-6" fill="#FEFEFE"></path>
                <path d="M21.6952361,30.9295787 C23.9587403,26.5427022 30.6517656,19.2507472 41.6848699,19.2507472 C45.5990332,19.2507472 47.9136473,20.0409607 48.4481713,20.2457697 L51.0136023,19.2271517 C48.3471346,18.1042416 45.0649825,17.4905225 41.6839234,17.4905225 C37.0097375,17.4905225 32.2378276,18.8680281 28.2469994,21.3696236 C24.1314727,23.9493202 20.9385262,27.6188933 18.9769487,32.0130843 C19.4061769,31.8422528 19.9712248,31.6169157 20.484453,31.4121067 C21.008329,31.2030506 21.4782558,31.0157022 21.6952361,30.9295787" id="Fill-8" fill="#FEFEFE"></path>
                <path d="M60.0605679,25.4824382 L58.2359932,26.2115393 C59.4822693,27.415618 61.383982,29.9448202 62.2670468,31.7685169 L63.839858,30.6439551 C62.7689172,28.6119101 61.1679482,26.4257865 60.0605679,25.4824382" id="Fill-10" fill="#FEFEFE"></path>
                <path d="M52.3355256,37.9720348 C52.7623876,37.7979 53.4869172,37.4996528 54.289058,37.1579899 C55.7471087,36.538136 56.8052721,34.8586079 56.8052721,33.1644506 C56.8052721,32.4712146 56.5400214,31.5290461 56.2934637,30.9471809 C56.2182186,30.7768213 56.09352,30.490136 55.9550975,30.1725404 C55.7970355,29.8096416 55.6217003,29.4063944 55.4806749,29.0857315 C55.1468045,28.3394056 54.9655538,27.8170011 54.9655538,27.1987989 C54.9655538,26.3729562 55.3914693,25.6926978 56.0771932,25.423473 C56.1257003,25.4048326 62.5250806,22.7739337 63.7640214,22.2416191 L63.761182,19.9287876 C63.4119313,20.0724843 62.8726749,20.294518 62.2285961,20.5597315 C60.0578468,21.4537652 56.7771144,22.8048438 55.4085059,23.3565067 C53.0136777,24.3208551 52.6561454,25.9996753 52.6561454,26.914709 C52.6561454,27.4449 52.8783313,28.1145404 52.9857566,28.3556865 C53.2297115,28.8736079 54.0585904,30.694709 54.294027,31.2182933 C54.5088777,31.6897315 54.6179594,32.2081247 54.6179594,32.7583719 C54.6179594,34.2538551 53.8307256,35.2389674 52.2768439,35.6894056 C52.2903313,36.1816079 52.3210918,37.3245742 52.3355256,37.9720348" id="Fill-12" fill="#FEFEFE"></path>
                <path d="M42.7623651,49.6792517 C41.2117961,46.8463753 40.2447313,45.1012517 39.6049115,43.9462517 C39.04152,42.9292854 38.7587594,42.4186787 38.611582,42.1272742 C37.7195256,40.3462854 37.4185454,39.3319146 37.4185454,38.1066 C37.4185454,36.6868584 38.2088552,35.5387011 39.4087538,35.1743865 L39.44472,32.6822292 C39.1766299,32.7784989 38.7959087,32.9188921 38.2289679,33.1529596 C35.6971369,34.2029596 35.165689,36.5554315 35.165689,38.3439708 C35.165689,40.2719596 35.9529228,42.0744202 36.1940383,42.5807798 C37.1258468,44.5300045 38.690613,47.3322067 39.8332496,49.378173 C40.3211594,50.2516787 40.7423425,51.006027 40.9891369,51.4708584 C41.5984327,52.6197236 41.9204721,53.8599034 41.9204721,55.0571393 C41.9204721,59.2519483 38.5368101,62.6645663 34.3777454,62.6645663 C30.7281228,62.6645663 26.9528552,59.8191843 26.9528552,55.0571393 C26.9528552,53.9951056 27.192551,52.9415663 27.682827,51.8559371 C26.503751,52.3269034 24.0516608,53.3068247 21.6594355,54.2631506 C18.7726749,55.4169708 16.0259932,56.5148697 15.2867932,56.8098135 C15.2867932,57.2888022 15.2865566,58.5145888 15.2851369,59.2132517 C17.0749285,58.5042067 23.9612721,55.7784539 24.2350411,55.6713303 L24.6583538,55.5054539 L24.6384777,55.9587236 C24.5556608,57.8402292 25.6516834,60.3043079 27.3657566,62.0907236 C28.6917735,63.4722404 30.9836721,65.1192067 34.3732496,65.1192067 C40.0118975,65.1192067 44.2641904,60.7894315 44.2641904,55.0479371 C44.2641904,53.3087124 43.7587707,51.5024764 42.7623651,49.6792517" id="Fill-14" fill="#FEFEFE"></path>
                <path d="M29.6808203,51.6984607 L29.5622738,51.8810899 C28.860933,52.9610562 28.5481217,53.9393258 28.5481217,55.0537416 C28.5481217,59.1838989 32.0295076,61.1078764 34.3822175,61.1078764 C37.8960203,61.1078764 40.3445611,57.9975169 40.3445611,55.2061685 C40.3445611,53.6160674 39.7494625,52.2288876 38.5261386,50.9717191 L34.7934625,52.4395955 C34.7932259,52.8999438 34.7922794,54.0426742 34.7918062,54.7026404 C35.0755132,54.5889101 35.4656992,54.432236 35.8568315,54.2753258 C36.5103752,54.0129438 37.1660485,53.749382 37.3333386,53.6835506 L37.5772935,53.5872809 L37.7022287,53.8173371 C38.2024428,54.7392135 38.1430513,55.8477303 37.5389611,56.8585618 C36.8567865,58.0001124 35.6140597,58.7379438 34.3732259,58.7379438 C32.3718963,58.7379438 31.1835921,57.3191461 30.8934963,55.9133258 C30.6407865,54.6873034 31.002578,52.9912584 32.7608992,52.0103933 C31.9925949,51.4308876 31.545147,50.7761124 31.4296766,50.0590449 C31.316809,49.3608539 31.5411245,48.6289213 32.0614513,47.9979775 C32.5919527,47.3526404 33.5036485,46.9574157 34.3923921,46.9998876 C34.952471,47.0246629 35.4604935,47.2138989 35.8757611,47.5449438 C35.8767076,47.4425393 35.8776541,47.3332921 35.8788372,47.2195618 C35.886409,46.4564831 35.8961104,45.4826966 35.89824,44.9534494 C35.2943865,44.7012135 34.5405161,44.5695506 34.0646738,44.5695506 C31.1897442,44.5695506 28.95984,47.3365955 28.95984,49.7169101 C28.95984,50.4910787 29.2996259,51.2440112 29.5407414,51.5316404 L29.6808203,51.6984607 Z" id="Fill-16" fill="#FEFEFE"></path>
                <path d="M46.5323324,48.3068427 L46.2945296,49.1546292 L44.0809521,43.5157753 C43.5880732,43.7102022 42.586462,44.1033034 42.0869577,44.299382 C42.6591042,45.690573 45.1253915,51.6932697 45.6906761,53.1210337 C46.0898535,52.9653034 46.8127268,52.6842809 47.3597915,52.4712135 L47.9047268,52.2593258 C48.1638254,51.0484045 49.8388563,43.1925169 50.2971887,41.0417865 C49.5996338,41.322809 48.3966592,41.8069888 47.9579662,41.9815955 C47.7412225,42.9693034 46.6411775,47.9184607 46.5323324,48.3068427" id="Fill-18" fill="#FEFEFE"></path>
                <path d="M30.5111662,39.3408809 C30.5300958,38.6974315 30.5866479,36.9416899 30.6143324,36.0858809 C30.3199775,36.2201393 29.9137014,36.4046562 29.5149972,36.5823303 L29.5149972,36.5820944 C27.5889127,37.440027 26.5742873,39.2125213 26.5804394,41.707982 C26.5804394,41.9040607 26.5527549,43.3370157 26.5231775,44.8542067 C26.4980958,46.1514876 26.4701746,47.5816112 26.4588169,48.3033978 C27.1379155,48.0332292 28.319831,47.5582517 28.7753239,47.3749146 C28.7750873,47.3491955 28.7748507,47.3208809 28.7743775,47.2904427 C28.7653859,46.4905551 28.7414873,44.3657798 28.8699718,42.3311393 C28.9897014,40.4326449 29.109431,39.6990607 30.5111662,39.3408809" id="Fill-20" fill="#FEFEFE"></path>
                <path d="M61.8044789,36.4018247 L61.8044789,35.9714427 C61.8044789,35.7793753 61.8638704,34.4231056 61.9007831,33.5982067 L59.878631,35.1439483 C59.8573352,35.7154315 59.766,37.0344202 59.7617408,37.0955326 L59.7487268,37.2805213 L58.9898873,37.5820719 L58.9737972,39.9621506 C59.0693915,39.9312404 59.1621465,39.8993865 59.2179887,39.8772067 L59.6230817,39.7167573 L59.6230817,40.1513865 C59.6230817,40.2717236 59.619769,40.9953978 59.6159831,41.8007124 C59.6112507,42.810364 59.6060451,43.9488472 59.6060451,44.1866899 C59.6060451,45.1168247 60.2222028,46.7364202 60.6774592,47.2899708 L61.2969296,47.0478809 C61.7898085,46.8551056 62.4045465,46.6149034 62.8297521,46.4485551 C62.2154873,45.8940607 61.6738648,45.0354202 61.6738648,43.9807011 L61.6729183,38.9114427 L64.2426085,37.896836 L64.2146873,38.3595438 C64.1941014,38.6990831 64.0902254,41.3356449 64.0902254,41.7832517 C64.0902254,43.4566449 64.5395662,44.9587348 65.1968958,45.5339933 C65.6407944,45.3600944 66.6920958,44.9485888 67.3089634,44.7072067 C66.8248394,44.1982517 66.2718592,43.2961955 66.2718592,42.2955101 C66.2718592,41.9019371 66.2784845,37.3144989 66.2784845,37.3144989 L66.2787211,37.1200719 L67.7512056,36.4924315 L67.7862254,34.0651618 L66.3977408,34.6043191 L66.4732225,31.6256225 C65.8232282,32.0977685 64.7184507,32.9066225 64.3538197,33.1862292 C64.3493239,33.6430382 64.3398592,34.972409 64.3398592,35.2215775 L64.3398592,35.4256787 L64.1481972,35.497409 C64.0320169,35.5412966 63.0360845,35.9261393 62.5058197,36.1311843 L61.8044789,36.4018247 Z" id="Fill-22" fill="#FEFEFE"></path>
                <path d="M53.0472304,48.6741303 C54.7201318,49.5884562 57.0035121,49.3454225 58.3337882,48.5783326 L58.3323685,46.5016921 C57.5120079,47.1477371 56.4720642,47.5056809 55.5341037,47.4492876 C54.7336192,47.3976135 54.0594896,47.0399056 53.6361769,46.4419955 L53.41896,46.135018 L53.769867,45.9974562 C53.9014276,45.945782 54.8888417,45.5689618 55.8575628,45.1989843 C56.5712079,44.9266921 57.2744417,44.6581753 57.617067,44.5269843 L57.6180135,42.4279281 C57.3028361,42.554636 56.8433206,42.7403326 56.3438163,42.9416022 C55.1264079,43.4323888 53.7469149,43.9887708 53.5088755,44.0812652 L53.0619008,44.2549281 L53.1070952,43.7787708 C53.1913318,42.8837933 53.6979346,42.1091528 54.5720079,41.5386135 C55.5572924,40.895636 56.8085375,40.6528382 57.6222727,40.7453326 L57.6251121,38.6016809 C57.5070389,38.5884674 57.3776079,38.5818607 57.2387121,38.5818607 C56.078329,38.5818607 54.2573037,39.0509393 52.8697656,40.1646472 C51.53736,41.2337596 50.8620473,42.6551528 50.8620473,44.3889506 C50.8620473,46.4110854 51.6175741,47.8926472 53.0472304,48.6741303" id="Fill-24" fill="#FEFEFE"></path>
                <path d="M23.3502963,34.2131292 L63.7609217,18.0726236 L63.762578,17.1080393 C63.7635245,16.6540618 63.764471,16.1599719 63.7649442,15.797073 L14.5269837,35.4445787 C10.1670287,37.1970169 7.45796958,41.0364775 7.45796958,45.4646461 C7.45796958,47.9362753 8.56251042,50.3392416 10.2723245,51.586264 C11.5585893,52.5241854 13.1214625,52.7582528 14.8016992,52.2679382 L14.8005161,51.6848933 C14.7995696,51.1396011 14.7983865,50.4175787 14.7976766,49.9107472 C13.9858344,50.2434438 12.9387921,50.1806798 12.0360879,49.7149045 C10.6246513,48.9872191 9.81517521,47.4372303 9.81517521,45.4622865 C9.81517521,41.1995225 13.0540259,38.356736 15.8276823,37.2175449 C18.243333,36.2279494 20.4680315,35.3098483 20.4680315,35.3098483 L20.8861386,35.1371292 L20.8766738,35.5885112 C20.8698118,35.9249831 20.843547,36.6564438 20.8149161,37.4494888 C20.7749273,38.5624888 20.7294963,39.8239045 20.7294963,40.2280955 L20.7294963,40.4277135 L18.2260597,41.427691 C18.2253499,41.7516573 18.2236935,42.3929831 18.2222738,43.0149607 C18.2210907,43.4399157 18.2201442,43.8561404 18.2194344,44.1555674 L20.6660823,43.1933427 L20.6660823,43.6267921 C20.6660823,43.8523652 20.6492823,44.7015674 20.6301161,45.6850281 C20.6071639,46.8659831 20.5808992,48.2043202 20.5808992,48.6243202 C20.5808992,49.9820056 20.1509611,50.8059607 19.2669499,51.1433764 C18.673271,51.3687135 15.9769893,52.4184775 15.340009,52.6667022 L15.340009,54.9302191 L19.7695301,53.1992528 C21.8891696,52.3670393 22.8190851,51.234927 22.8791865,49.413118 C22.9409442,47.5790393 23.0616203,43.512118 23.0616203,42.4210618 L23.0616203,42.2242753 L25.4320766,41.2415225 L25.5120541,38.5143539 L23.1860823,39.4397697 L23.3502963,34.2131292 Z" id="Fill-26" fill="#FEFEFE"></path>
                <path d="M71.0469634,43.2259753 C71.0512225,42.5964472 71.0720451,40.6120652 71.1016225,37.8244921 C71.1233915,35.7957506 71.1456338,33.7113236 71.1534423,32.8050202 C70.6049577,33.0180876 69.6473577,33.3894809 69.2297239,33.5508742 C69.2117408,34.8524022 69.1118873,42.1181663 69.0896451,44.0074584 C69.2531493,43.9420989 69.4523831,43.8623461 69.6634479,43.7781101 C70.1627155,43.5784921 70.7277634,43.3526831 71.0469634,43.2259753" id="Fill-28" fill="#FEFEFE"></path>
                <path d="M71.5181206,30.7938573 C71.5181206,30.1034528 70.9563854,29.5416438 70.265929,29.5416438 C69.5733431,29.5416438 69.0099515,30.1034528 69.0099515,30.7938573 C69.0099515,31.4842618 69.5733431,32.0460708 70.265929,32.0460708 C70.9563854,32.0460708 71.5181206,31.4842618 71.5181206,30.7938573" id="Fill-30" fill="#FEFEFE"></path>
                <path d="M31.701671,43.764236 C32.326347,43.4763708 33.2359132,43.2434831 33.9216372,43.2080899 C33.9275527,42.9006404 33.9384372,42.3485056 33.9545273,41.5313933 C33.9954625,39.4424831 34.0602963,36.1612921 34.0789893,34.9742022 L31.9385273,35.7276067 L31.701671,43.764236 Z" id="Fill-32" fill="#FEFEFE"></path>
                <path d="M32.9873679,34.160936 C33.6811369,34.160936 34.2452383,33.5993629 34.2452383,32.9087225 C34.2452383,32.218318 33.6811369,31.656509 32.9873679,31.656509 C32.2943087,31.656509 31.7304439,32.218318 31.7304439,32.9087225 C31.7304439,33.5993629 32.2943087,34.160936 32.9873679,34.160936" id="Fill-34" fill="#FEFEFE"></path>
                <path d="M50.9419301,38.5223056 L51.0635527,28.2075303 L49.0631696,29.0168562 L48.9249837,39.3148787 C49.32984,39.1558449 49.95144,38.9113955 50.4419527,38.7188562 L50.9419301,38.5223056 Z" id="Fill-36" fill="#FEFEFE"></path>
                <path d="M51.2367583,26.2181933 C51.2367583,25.526373 50.6733668,24.9638562 49.9807808,24.9638562 C49.2879583,24.9638562 48.7240935,25.526373 48.7240935,26.2181933 C48.7240935,26.907418 49.2879583,27.4680472 49.9807808,27.4680472 C50.6733668,27.4680472 51.2367583,26.907418 51.2367583,26.2181933" id="Fill-38" fill="#FEFEFE"></path>
                <path d="M42.8866377,34.1104652 L43.3828293,33.9519034 C44.7571166,33.5123191 45.3645194,33.2570157 45.3645194,31.811791 C45.3645194,31.811791 45.3690152,31.1018022 45.3701983,30.4902067 L47.5856687,29.6058472 C47.5844856,30.3486337 47.5844856,31.2089258 47.5844856,31.2089258 C47.5844856,32.3589708 47.5937138,33.5014652 46.2381194,34.4592067 C46.2381194,34.4592067 47.5937138,34.5743528 47.5915842,36.5282966 C47.5906377,37.339982 47.5937138,39.8533753 47.5937138,39.8533753 C47.113849,40.0456787 46.1451279,40.4314652 45.5282603,40.6766225 C45.5599673,39.686791 45.6221983,37.7576225 45.6368687,37.3631056 C45.6520124,36.8890719 45.5370152,36.5205101 45.2951899,36.2659146 C45.1487223,36.1116 44.8803955,35.927791 44.4343673,35.927791 C44.0285645,35.927791 43.542311,36.0738472 42.9476856,36.3744539 L42.7413532,36.478982 L42.735911,36.7137573 C42.7124856,37.7460607 42.6268293,40.9125775 42.601511,41.8417685 C42.1500406,42.0194427 41.1557645,42.4108921 40.5280124,42.6572292 C40.5803054,40.1251955 40.7757532,30.3250382 40.8098265,28.6023303 L42.8866377,27.7632742 L42.8866377,34.1104652 Z" id="Fill-40" fill="#FEFEFE"></path>
                <path d="M75.4209735,37.7132865 C74.9754186,36.7126011 74.5904383,35.8485337 74.5904383,35.0134888 C74.5904383,34.1208708 74.9993172,33.5331067 75.4585961,33.1751629 L75.4538637,30.7795112 C75.215351,30.8771966 74.9555425,30.9836124 74.68272,31.095927 C73.6640721,31.5189944 72.5749115,32.7244888 72.5749115,34.8393539 C72.5749115,36.5476685 73.1375932,37.8135674 73.6337848,38.9305787 C74.0350918,39.8331067 74.3812665,40.6124663 74.3812665,41.4609607 C74.3812665,42.5628708 73.7726806,43.9783652 72.6447144,44.430927 C71.2481848,44.9899045 48.0897397,54.0083427 45.7107651,54.9347022 C45.7147876,55.4328034 45.6695932,56.4761966 45.5482073,57.2135562 C49.1687256,55.7980618 70.3125904,47.5370393 73.2816946,46.4082303 C75.4969285,45.5639831 76.6329397,44.016118 76.5669228,41.9314551 C76.5659763,41.8960618 76.5650299,41.8677472 76.5650299,41.847691 C76.5650299,40.2816573 75.9573904,38.9171292 75.4209735,37.7132865" id="Fill-42" fill="#FEFEFE"></path>
            </g>
        </g>
    </g>
</svg>