
<svg width="21px" height="30px" viewBox="0 0 21 30" version="1.1" xmlns="http://www.w3.org/2000/svg" xmlns:xlink="http://www.w3.org/1999/xlink">
    <!-- Generator: Sketch 44 (41411) - http://www.bohemiancoding.com/sketch -->
    <desc>Created with Sketch.</desc>
    <defs></defs>
    <g id="Page-1" stroke="none" stroke-width="1" fill="none" fill-rule="evenodd">
        <g id="Desktop-HD-Copy-27" transform="translate(-284.000000, -280.000000)" fill-rule="nonzero" fill="#E75460">
            <g id="Group-11" transform="translate(284.000000, 279.000000)">
                <path d="M10.5129775,1 C4.72181643,1 0.0259171923,5.90509387 0.0259171923,11.5648582 C-0.348557717,16.8472873 3.40470388,20.2431346 6.77512844,23.6389819 C9.10316537,26.5058316 10.2011651,30.4306387 10.5129775,30.4306764 C10.8212275,30.4306764 12.5896145,26.2663866 14.637489,23.2616655 C18.0079132,19.4885019 21.000075,17.60192 21,11.5648582 C21,5.73003417 16.3041011,1 10.5129775,1 L10.5129775,1 Z M10.5013525,8.54632729 C12.5632895,8.54632729 14.2509016,10.2445679 14.2509016,12.3194909 C14.2509016,14.3944102 12.5632895,16.0926546 10.5013525,16.0926546 C8.43941553,16.0926546 6.75180344,14.3944102 6.75180344,12.3194909 C6.75180344,10.2445679 8.43941553,8.54632729 10.5013525,8.54632729 Z" id="Shape-Copy"></path>
            </g>
        </g>
    </g>
</svg>