<?xml version="1.0" encoding="utf-8"?>
<!DOCTYPE svg PUBLIC "-//W3C//DTD SVG 1.1//EN" "http://www.w3.org/Graphics/SVG/1.1/DTD/svg11.dtd">
<svg version="1.1" id="icons" xmlns="http://www.w3.org/2000/svg" xmlns:xlink="http://www.w3.org/1999/xlink" x="0px" y="0px"
		 width="46px" height="46px" viewBox="0 0 46 46" enable-background="new 0 0 46 46" xml:space="preserve">
	<g id="extra-areas">
		<g id="balcony">
			<line fill="none" stroke="#010101" stroke-linecap="round" stroke-miterlimit="10" x1="34.5" y1="17.5" x2="44.5" y2="17.5"/>
			<line fill="none" stroke="#010101" stroke-linecap="round" stroke-miterlimit="10" x1="36.5" y1="30.5" x2="36.5" y2="17.5"/>
			<line fill="none" stroke="#010101" stroke-linecap="round" stroke-miterlimit="10" x1="44.5" y1="30.5" x2="36.5" y2="30.5"/>
			<line fill="none" stroke="#010101" stroke-linecap="round" stroke-miterlimit="10" x1="44.5" y1="44.5" x2="44.5" y2="30.5"/>
			<line fill="none" stroke="#010101" stroke-linecap="round" stroke-miterlimit="10" x1="44.5" y1="1.5" x2="44.5" y2="44.5"/>
		</g>
		<g id="tree">
			<g id="top">
				<path fill="none" stroke="#010101" stroke-linecap="round" stroke-miterlimit="10" d="M25.5,10.5c0-5-4-9-9-9s-9,4-9,9"/>
				<path fill="none" stroke="#010101" stroke-linecap="round" stroke-miterlimit="10" d="M9.5,14.5c0,0-2-2-2-4c-4,2-6,5.7-6,10
	c0,6.1,2.5,11,9,11c5,0,6-2,6-2s1,2,6,2c6.5,0,9-4.9,9-11c0-4.3-2-8-6-10c0,2-2,4-2,4"/>
			</g>
			<g id="trunk">
				<line fill="none" stroke="#010101" stroke-linecap="round" stroke-miterlimit="10" x1="16.5" y1="44.5" x2="16.5" y2="18.5"/>
				<line fill="none" stroke="#010101" stroke-linecap="round" stroke-miterlimit="10" x1="16.5" y1="25.5" x2="22" y2="20"/>
				<line fill="none" stroke="#010101" stroke-linecap="round" stroke-miterlimit="10" x1="16.5" y1="21.5" x2="12.5" y2="17.5"/>
			</g>
		</g>
	</g>
</svg>
