
<svg width="32px" height="32px" viewBox="0 0 32 32" version="1.1" xmlns="http://www.w3.org/2000/svg" xmlns:xlink="http://www.w3.org/1999/xlink">
    <!-- Generator: Sketch 46.1 (44463) - http://www.bohemiancoding.com/sketch -->
    <desc>Created with Sketch.</desc>
    <defs></defs>
    <g id="Design-Library" stroke="none" stroke-width="1" fill="none" fill-rule="evenodd">
        <g id="block_find" transform="translate(-470.000000, -420.000000)">
            <g id="Group-2-Copy" transform="translate(470.000000, 420.000000)">
                <circle id="Oval-3" fill="#FFFFFF" cx="16" cy="16" r="16"></circle>
                <g id="object_icon_location_outlined_red" transform="translate(10.000000, 7.000000)">
                    <rect id="Rectangle-8" x="0" y="0" width="13" height="17"></rect>
                    <path d="M6.42365965,5.09382894 C5.51913208,5.09382894 4.78276811,5.87746874 4.78276811,6.84094737 C4.78276811,7.80403162 5.51913208,8.58767143 6.42365965,8.58767143 C7.32818722,8.58767143 8.06455119,7.80403162 8.06455119,6.84094737 C8.06455119,5.87746874 7.32818722,5.09382894 6.42365965,5.09382894 M6.42365965,9.57362991 C5.00834439,9.57362991 3.85675708,8.34788632 3.85675708,6.84094737 C3.85675708,5.33361404 5.00834439,4.10787045 6.42365965,4.10787045 C7.83897491,4.10787045 8.99056222,5.33361404 8.99056222,6.84094737 C8.99056222,8.34788632 7.83897491,9.57362991 6.42365965,9.57362991" id="Fill-1" fill="#E31937" fill-rule="evenodd"></path>
                    <path d="M6.42365965,1.2039072 C3.50413208,1.2039072 1.12909899,3.73269353 1.12909899,6.84082906 C1.12909899,11.8467375 5.37097031,15.0061429 6.41773318,15.7093284 C7.46153281,14.9761697 11.7178499,11.6885897 11.7178499,6.84082906 C11.7178499,3.73269353 9.34281682,1.2039072 6.42365965,1.2039072 M6.42365965,16.7820513 C6.34624513,16.7820513 6.2684602,16.761149 6.19882417,16.7201331 C5.95361645,16.575 0.20308796,13.0961441 0.20308796,6.84082906 C0.20308796,3.18883883 2.9937148,0.217948718 6.42365965,0.217948718 C9.8536045,0.217948718 12.6438609,3.18883883 12.6438609,6.84082906 C12.6438609,9.36251648 11.6048766,11.8723724 9.63988116,14.0982723 C8.17159807,15.7609927 6.71887197,16.6759621 6.65775524,16.7142173 C6.58552638,16.759177 6.50477822,16.7820513 6.42365965,16.7820513" id="Fill-3" fill="#E31937" fill-rule="evenodd"></path>
                </g>
            </g>
        </g>
    </g>
</svg>