<?xml version="1.0" encoding="UTF-8" standalone="no"?>
<svg width="64px" height="78px" viewBox="0 0 64 78" version="1.1" xmlns="http://www.w3.org/2000/svg" xmlns:xlink="http://www.w3.org/1999/xlink">
    <!-- Generator: Sketch 44.1 (41455) - http://www.bohemiancoding.com/sketch -->
    <title>icon_location_red_full</title>
    <desc>Created with Sketch.</desc>
    <defs>
        <polygon id="path-1" points="30.2529062 0 0 0 0 76 30.2529062 76 60.5058125 76 60.5058125 0"></polygon>
    </defs>
    <g id="Design-Library" stroke="none" stroke-width="1" fill="none" fill-rule="evenodd">
        <g id="icon_location_red_full">
            <rect id="Rectangle-8" x="0" y="0" width="64" height="78"></rect>
            <g id="Page-1" transform="translate(1.000000, 1.000000)">
                <g id="Group-5">
                    <mask id="mask-2" fill="white">
                        <use xlink:href="#path-1"></use>
                    </mask>
                    <g id="Clip-4"></g>
                </g>
                <path d="M29.1602243,75.7159048 C27.9676507,75.05 -0.000180147059,59.0881905 -0.000180147059,30.3873333 C-0.000180147059,13.6311429 13.5720993,0 30.2537169,0 C46.9353346,0 60.5058125,13.6311429 60.5058125,30.3873333 C60.5058125,41.9574286 55.4526875,53.4732381 45.895886,63.6861905 C38.7548566,71.3151429 31.689489,75.5132381 31.3922463,75.6887619 C31.0409596,75.8950476 30.648239,76 30.2537169,76 C29.8772096,76 29.4989007,75.9040952 29.1602243,75.7159048 Z M30.2537169,19.8440707 C24.4672437,19.8440707 19.7565522,24.5734406 19.7565522,30.3881615 C19.7565522,36.2005023 24.4672437,40.9298722 30.2537169,40.9298722 C36.0401901,40.9298722 40.7508816,36.2005023 40.7508816,30.3881615 C40.7508816,24.5734406 36.0401901,19.8440707 30.2537169,19.8440707 Z" id="Combined-Shape" fill="#E31937"></path>
            </g>
        </g>
    </g>
</svg>