<?xml version="1.0" encoding="UTF-8" standalone="no"?>
<svg width="79px" height="78px" viewBox="0 0 79 78" version="1.1" xmlns="http://www.w3.org/2000/svg" xmlns:xlink="http://www.w3.org/1999/xlink">
    <!-- Generator: Sketch 44.1 (41455) - http://www.bohemiancoding.com/sketch -->
    <title>object_icon_search</title>
    <desc>Created with Sketch.</desc>
    <defs></defs>
    <g id="Design-Library" stroke="none" stroke-width="1" fill="none" fill-rule="evenodd">
        <g id="object_icon_search">
            <rect id="Rectangle-8" x="0" y="0" width="79" height="78"></rect>
            <g id="Page-1" transform="translate(1.000000, 1.000000)" fill="#E31937">
                <path d="M71.2615313,74.485539 C70.0015313,74.485539 68.7415313,74.0064765 67.780125,73.0450702 L51.5215312,56.7831952 C49.5987187,54.863664 49.5987187,51.7464765 51.5215312,49.823664 C53.4443437,47.9008515 56.5615312,47.9008515 58.4810625,49.823664 L74.7429375,66.0822577 C76.6624688,68.0050702 76.6624688,71.1222577 74.7429375,73.0450702 C73.7815313,74.0064765 72.5215313,74.485539 71.2615313,74.485539" id="Fill-4"></path>
                <path d="M33.2131406,10.4243827 C20.3276719,10.4243827 9.84407812,20.9079765 9.84407812,33.7934452 C9.84407812,46.678914 20.3276719,57.1625077 33.2131406,57.1625077 C46.1018906,57.1625077 56.5854844,46.678914 56.5854844,33.7934452 C56.5854844,20.9079765 46.1018906,10.4243827 33.2131406,10.4243827 M33.2131406,67.0062577 C14.9004844,67.0062577 0.000328125,52.1061015 0.000328125,33.7934452 C0.000328125,15.480789 14.9004844,0.580632716 33.2131406,0.580632716 C51.5290781,0.580632716 66.4292344,15.480789 66.4292344,33.7934452 C66.4292344,52.1061015 51.5290781,67.0062577 33.2131406,67.0062577" id="Fill-1"></path>
            </g>
        </g>
    </g>
</svg>