
<svg width="52px" height="53px" viewBox="0 0 52 53" version="1.1" xmlns="http://www.w3.org/2000/svg" xmlns:xlink="http://www.w3.org/1999/xlink">
    <!-- Generator: Sketch 43.2 (39069) - http://www.bohemiancoding.com/sketch -->
    <desc>Created with Sketch.</desc>
    <defs></defs>
    <g id="Page-1" stroke="none" stroke-width="1" fill="none" fill-rule="evenodd">
        <g id="iPhone-7-(Portrait)-Alt.-Hero" transform="translate(-86.000000, -1356.000000)" fill-rule="nonzero" fill="#293042">
            <g id="Group-49-Copy" transform="translate(38.000000, 928.000000)">
                <g id="Group-40" transform="translate(48.000000, 327.000000)">
                    <g id="Group-33" transform="translate(0.000000, 101.648936)">
                        <g id="Group-48" transform="translate(0.000000, 0.000000)">
                            <path d="M25.9397163,49.631963 C39.0155474,49.631963 49.6156028,39.0319076 49.6156028,25.9560765 C49.6156028,12.8802455 39.0155474,2.28019 25.9397163,2.28019 C12.8638852,2.28019 2.26382979,12.8802455 2.26382979,25.9560765 C2.26382979,39.0319076 12.8638852,49.631963 25.9397163,49.631963 Z M25.9397163,51.8957928 C11.6136066,51.8957928 0,40.2821863 0,25.9560765 C0,11.6299668 11.6136066,0.0163602089 25.9397163,0.0163602089 C40.265826,0.0163602089 51.8794326,11.6299668 51.8794326,25.9560765 C51.8794326,40.2821863 40.265826,51.8957928 25.9397163,51.8957928 Z" id="Mask"></path>
                            <path d="M20.1117021,8.50572191 C17.6118504,8.50572191 15.5638298,10.5537349 15.5638298,13.0535943 L15.5638298,38.8248822 C15.5638298,41.3247339 17.6118504,43.3727546 20.1117021,43.3727546 L32.2393617,43.3727546 C34.7392134,43.3727546 36.787234,41.3247339 36.787234,38.8248822 L36.787234,13.0535943 C36.787234,10.5537349 34.7392134,8.50572191 32.2393617,8.50572191 L20.1117021,8.50572191 Z M20.1117021,10.7796581 L32.2393617,10.7796581 C33.2527414,10.7796581 34.0915585,11.4003896 34.3948637,12.2956155 L17.9562001,12.2956155 C18.2595053,11.4003896 19.0983225,10.7796581 20.1117021,10.7796581 Z M17.837766,14.5695517 L34.5132979,14.5695517 L34.5132979,35.0349886 L17.837766,35.0349886 L17.837766,14.5695517 Z M17.837766,37.3089248 L34.5132979,37.3089248 L34.5132979,38.8248822 C34.5132979,40.1043124 33.5187919,41.0988184 32.2393617,41.0988184 L20.1117021,41.0988184 C18.8322719,41.0988184 17.837766,40.1043124 17.837766,38.8248822 L17.837766,37.3089248 Z M23.5226064,38.0669035 C22.8946968,38.0669035 22.3856383,38.5759241 22.3856383,39.2038716 C22.3856383,39.8317812 22.8946968,40.3408397 23.5226064,40.3408397 L28.8284574,40.3408397 C29.456367,40.3408397 29.9654255,39.8317812 29.9654255,39.2038716 C29.9654255,38.5759241 29.456367,38.0669035 28.8284574,38.0669035 L23.5226064,38.0669035 Z" id="Shape"></path>
                        </g>
                    </g>
                </g>
            </g>
        </g>
    </g>
</svg>