
<svg width="56px" height="81px" viewBox="0 0 56 81" version="1.1" xmlns="http://www.w3.org/2000/svg" xmlns:xlink="http://www.w3.org/1999/xlink">
    <!-- Generator: Sketch 44.1 (41455) - http://www.bohemiancoding.com/sketch -->
    <desc>Created with Sketch.</desc>
    <defs></defs>
    <g id="Design-Library" stroke="none" stroke-width="1" fill="none" fill-rule="evenodd" stroke-linecap="round" stroke-linejoin="round">
        <g id="object_icon_location" transform="translate(-2.000000, -2.000000)" stroke="#999999" stroke-width="3">
            <path d="M47.5286176,15.6860566 C55.0710664,27.9482705 52.0660146,72.7452807 52.0660146,72.7452807 C52.0660146,72.7452807 10.8107545,55.3483717 3.26830566,43.0873789 C-4.2741432,30.823944 -0.479185065,14.7494785 11.7418459,7.18358752 C23.964094,-0.382303428 39.9861687,3.42384281 47.5286176,15.6860566 Z" id="Stroke-1" transform="translate(26.023652, 38.019392) rotate(32.000000) translate(-26.023652, -38.019392) "></path>
            <path d="M40.168881,23.0744428 C43.4663696,28.4350458 41.8072413,35.4636749 36.4641099,38.7707885 C31.1209785,42.0790596 24.1164113,40.4145061 20.8189227,35.0539031 C17.5225879,29.6933001 19.1817161,22.6658285 24.5236938,19.358715 C29.8668252,16.0504439 36.8725462,17.7149974 40.168881,23.0744428 Z" id="Stroke-3" transform="translate(30.494295, 29.064727) rotate(32.000000) translate(-30.494295, -29.064727) "></path>
        </g>
    </g>
</svg>