
<svg width="41px" height="42px" viewBox="23 20 41 42" version="1.1" xmlns="http://www.w3.org/2000/svg" xmlns:xlink="http://www.w3.org/1999/xlink">
    <!-- Generator: Sketch 42 (36781) - http://www.bohemiancoding.com/sketch -->
    <desc>Created with Sketch.</desc>
    <defs></defs>
    <path d="M43.4792627,22.9823129 C33.5130197,22.9823129 25.4048716,31.0650236 25.4048716,41 C25.4048716,50.9349764 33.5130197,59.0176871 43.4792627,59.0176871 C53.4455057,59.0176871 61.5536537,50.9349764 61.5536537,41 C61.5536537,31.0650236 53.4455057,22.9823129 43.4792627,22.9823129 M43.4792627,60.9142857 C32.4638726,60.9142857 23.5023041,51.980832 23.5023041,41 C23.5023041,30.019168 32.4638726,21.0857143 43.4792627,21.0857143 C54.4946527,21.0857143 63.4562212,30.019168 63.4562212,41 C63.4562212,51.980832 54.4946527,60.9142857 43.4792627,60.9142857" id="Fill-1" stroke="#FFFFFF" stroke-width="1" fill="#FFFFFF" fill-rule="evenodd"></path>
    <polygon id="Fill-3" stroke="#FFFFFF" stroke-width="1" fill="#FFFFFF" fill-rule="evenodd" points="36.9221709 48.877641 35.5769368 47.5365087 42.527967 40.607167 42.527967 27.7238095 44.4305345 27.7238095 44.4305345 41.3927145"></polygon>
</svg>