
<svg width="18px" height="18px" viewBox="0 0 18 18" version="1.1" xmlns="http://www.w3.org/2000/svg" xmlns:xlink="http://www.w3.org/1999/xlink">
    <!-- Generator: Sketch 44.1 (41455) - http://www.bohemiancoding.com/sketch -->
    <desc>Created with Sketch.</desc>
    <defs>
        <polygon id="path-1" points="17.3344434 17.3705044 17.3344434 0.0583938758 0 0.0583938758 0 17.3705044"></polygon>
        <polygon id="path-3" points="0 17.537279 17.3344434 17.537279 17.3344434 0.225001235 0 0.225001235"></polygon>
    </defs>
    <g id="Design-Library" stroke="none" stroke-width="1" fill="none" fill-rule="evenodd">
        <g id="kicker_event_01_full" transform="translate(-580.000000, -87.000000)">
            <g id="object_icon_book_red" transform="translate(580.000000, 87.000000)">
                <g id="Page-1" transform="translate(0.404494, 0.202247)">
                    <g id="Group-3" transform="translate(0.000000, 0.166607)">
                        <mask id="mask-2" fill="white">
                            <use xlink:href="#path-1"></use>
                        </mask>
                        <g id="Clip-2"></g>
                        <path d="M3.13023251,1.10370451 C1.98166547,1.10370451 1.04664899,2.03710718 1.04664899,3.18462374 L1.04664899,14.2445254 C1.04664899,15.3916238 1.98166547,16.3250265 3.13023251,16.3250265 L14.2042947,16.3250265 C15.3528617,16.3250265 16.2878782,15.3916238 16.2878782,14.2445254 L16.2878782,3.18462374 C16.2878782,2.03710718 15.3528617,1.10370451 14.2042947,1.10370451 L3.13023251,1.10370451 Z M14.2042947,17.3705044 L3.13023251,17.3705044 C1.4042415,17.3705044 -0.000167490637,15.9683094 -0.000167490637,14.2445254 L-0.000167490637,3.18462374 C-0.000167490637,1.46083976 1.4042415,0.0582265993 3.13023251,0.0582265993 L14.2042947,0.0582265993 C15.9302857,0.0582265993 17.3346947,1.46083976 17.3346947,3.18462374 L17.3346947,14.2445254 C17.3346947,15.9683094 15.9302857,17.3705044 14.2042947,17.3705044 L14.2042947,17.3705044 Z" id="Fill-1" fill="#E31937" mask="url(#mask-2)"></path>
                    </g>
                    <mask id="mask-4" fill="white">
                        <use xlink:href="#path-3"></use>
                    </mask>
                    <g id="Clip-5"></g>
                    <polygon id="Fill-4" fill="#E31937" mask="url(#mask-4)" points="0.723559551 6.07047732 16.3772345 6.07047732 16.3772345 5.02499941 0.723559551 5.02499941"></polygon>
                    <path d="M13.6969237,9.3037223 L3.62152442,9.3037223 C3.33218434,9.3037223 3.09811618,9.06953525 3.09811618,8.78098334 C3.09811618,8.49243144 3.33218434,8.25824439 3.62152442,8.25824439 L13.6969237,8.25824439 C13.985845,8.25824439 14.2203319,8.49243144 14.2203319,8.78098334 C14.2203319,9.06953525 13.985845,9.3037223 13.6969237,9.3037223" id="Fill-6" fill="#E31937" mask="url(#mask-4)"></path>
                    <path d="M13.6969237,11.7083215 L3.62152442,11.7083215 C3.33218434,11.7083215 3.09811618,11.4741344 3.09811618,11.1855825 C3.09811618,10.8970306 3.33218434,10.6628436 3.62152442,10.6628436 L13.6969237,10.6628436 C13.985845,10.6628436 14.2203319,10.8970306 14.2203319,11.1855825 C14.2203319,11.4741344 13.985845,11.7083215 13.6969237,11.7083215" id="Fill-7" fill="#E31937" mask="url(#mask-4)"></path>
                    <path d="M10.9122243,14.0867837 L3.62135693,14.0867837 C3.33201685,14.0867837 3.09794869,13.8525967 3.09794869,13.5640448 C3.09794869,13.2754929 3.33201685,13.0413058 3.62135693,13.0413058 L10.9122243,13.0413058 C11.2011457,13.0413058 11.4356326,13.2754929 11.4356326,13.5640448 C11.4356326,13.8525967 11.2011457,14.0867837 10.9122243,14.0867837" id="Fill-8" fill="#E31937" mask="url(#mask-4)"></path>
                </g>
            </g>
        </g>
    </g>
</svg>