
<svg width="52px" height="52px" viewBox="0 0 52 52" version="1.1" xmlns="http://www.w3.org/2000/svg" xmlns:xlink="http://www.w3.org/1999/xlink">
    <!-- Generator: Sketch 43.2 (39069) - http://www.bohemiancoding.com/sketch -->
    <desc>Created with Sketch.</desc>
    <defs></defs>
    <g id="Page-1" stroke="none" stroke-width="1" fill="none" fill-rule="evenodd">
        <g id="iPhone-7-(Portrait)-Alt.-Hero" transform="translate(-86.000000, -1255.000000)" fill-rule="nonzero" fill="#293042">
            <g id="Group-49-Copy" transform="translate(38.000000, 928.000000)">
                <g id="Group-40" transform="translate(48.000000, 327.000000)">
                    <g id="Group-22">
                        <g id="Group-47">
                            <path d="M25.9397163,49.6156028 C39.0155474,49.6156028 49.6156028,39.0155474 49.6156028,25.9397163 C49.6156028,12.8638852 39.0155474,2.26382979 25.9397163,2.26382979 C12.8638852,2.26382979 2.26382979,12.8638852 2.26382979,25.9397163 C2.26382979,39.0155474 12.8638852,49.6156028 25.9397163,49.6156028 Z M25.9397163,51.8794326 C11.6136066,51.8794326 0,40.265826 0,25.9397163 C0,11.6136066 11.6136066,0 25.9397163,0 C40.265826,0 51.8794326,11.6136066 51.8794326,25.9397163 C51.8794326,40.265826 40.265826,51.8794326 25.9397163,51.8794326 Z" id="Mask-Copy"></path>
                            <path d="M10.5377418,14.1489362 L40.0682866,14.1489362 C41.9849987,14.1489362 43.5315603,15.6954978 43.5315603,17.6122099 L43.5315603,33.1546096 C43.5315603,35.0713217 41.9849987,36.6178833 40.0682866,36.6178833 L10.5377418,36.6178833 C8.62102968,36.6178833 7.07446809,35.0713217 7.07446809,33.1546096 L7.07446809,17.6122099 C7.07446809,15.6954977 8.62102968,14.1489362 10.5377418,14.1489362 Z M10.5377418,16.412766 C9.87130834,16.412766 9.33829787,16.9457764 9.33829787,17.6122099 L9.33829787,33.1546096 C9.33829787,33.8210431 9.87130834,34.3540535 10.5377418,34.3540535 L40.0682866,34.3540535 C40.73472,34.3540535 41.2677305,33.8210431 41.2677305,33.1546096 L41.2677305,17.6122099 C41.2677305,16.9457764 40.73472,16.412766 40.0682866,16.412766 L10.5377418,16.412766 Z" id="Shape"></path>
                            <path d="M13.1593015,20.2502946 C12.8352632,19.9654926 12.7161157,19.5127413 12.8579884,19.1053285 C12.9998612,18.6979158 13.3744577,18.4171003 13.8053082,18.3951721 C14.0913546,18.3796214 14.372309,18.4812493 14.5814529,18.6753933 L25.3153512,28.4985986 C25.8852367,29.019802 26.686639,29.0139203 27.2650505,28.4862819 L38.0240282,18.6744422 C38.4584348,18.2811819 39.1293914,18.3145376 39.5226517,18.7489442 C39.9159121,19.1833508 39.8825564,19.8543075 39.4487572,20.2470163 L33.7125318,25.4702534 L39.3882059,30.291692 C39.7323461,30.5155359 39.91632,30.9179431 39.8604616,31.3246598 C39.8046032,31.7313764 39.5189543,32.0692857 39.1272092,32.1920632 C38.7354641,32.3148408 38.3080479,32.2004144 38.0553824,31.9226489 L32.1375941,26.9107806 L28.69068,30.0579277 C27.3293471,31.3000336 25.2483259,31.3007484 23.8893079,30.0578921 L20.4545783,26.9228033 L14.5742741,31.8983694 C14.2962458,32.2003738 13.8688622,32.3147372 13.4771626,32.191945 C13.0854631,32.0691528 12.7998506,31.7312753 12.7439833,31.3245994 C12.6881161,30.9179235 12.8720356,30.5155439 13.1873349,30.3131126 L18.8801079,25.4818254 L13.1593015,20.2502946 Z" id="Path"></path>
                        </g>
                    </g>
                </g>
            </g>
        </g>
    </g>
</svg>