<?xml version="1.0" encoding="utf-8"?>
<!DOCTYPE svg PUBLIC "-//W3C//DTD SVG 1.1//EN" "http://www.w3.org/Graphics/SVG/1.1/DTD/svg11.dtd">
<svg version="1.1" id="Layer_1" xmlns="http://www.w3.org/2000/svg" xmlns:xlink="http://www.w3.org/1999/xlink" x="0px" y="0px" width="46px" height="46px" viewBox="0 0 46 46" enable-background="new 0 0 46 46" xml:space="preserve">
	<g id="pin">
		<path fill="#2E3B26" d="M40.6,18.6C40.6,8.9,32.7,1,23,1C13.3,1,5.4,8.9,5.4,18.6c0,1.7,0.3,3.4,0.7,5C8.7,33.7,23.1,45,23.1,45 s16.3-12.8,17.3-23.3l0,0C40.5,20.7,40.6,19.6,40.6,18.6z M23.2,22.5c-4,0-7.2-3.2-7.2-7.2s3.2-7.2,7.2-7.2c4,0,7.2,3.2,7.2,7.2 S27.2,22.5,23.2,22.5z"/>
	</g>
</svg>
