
<svg width="17px" height="24px" viewBox="0 0 17 24" version="1.1" xmlns="http://www.w3.org/2000/svg" xmlns:xlink="http://www.w3.org/1999/xlink">
    <!-- Generator: Sketch 43.2 (39069) - http://www.bohemiancoding.com/sketch -->
    <desc>Created with Sketch.</desc>
    <defs></defs>
    <g id="Page-1" stroke="none" stroke-width="1" fill="none" fill-rule="evenodd">
        <g id="Search-typing-1---Desktop-(Large-monitor)-PG-Copy-12" transform="translate(-904.000000, -671.000000)" fill-rule="nonzero" fill="#FFFFFF">
            <g id="Group-6" transform="translate(80.000000, 603.000000)">
                <g id="Group-16" transform="translate(824.000000, 68.000000)">
                    <path d="M14.2398146,2.46193181 C12.6643524,0.874408751 10.5695359,0 8.3416185,0 C6.11326611,0 4.01888455,0.874408751 2.44342244,2.46193181 C-0.472182878,5.39941925 -0.834513064,10.9263838 1.65873618,14.2749968 L8.3416185,24 L15.0144965,14.2885841 C17.5177501,10.9263838 17.1554199,5.39941925 14.2398146,2.46193181 Z M8.41860822,11.3958033 C6.74005818,11.3958033 5.37381675,10.0191026 5.37381675,8.32770239 C5.37381675,6.63630221 6.74005818,5.25960151 8.41860822,5.25960151 C10.0971583,5.25960151 11.4633997,6.63630221 11.4633997,8.32770239 C11.4633997,10.0191026 10.0971583,11.3958033 8.41860822,11.3958033 Z" id="Shape"></path>
                </g>
            </g>
        </g>
    </g>
</svg>