
<svg width="64px" height="79px" viewBox="0 0 64 79" version="1.1" xmlns="http://www.w3.org/2000/svg" xmlns:xlink="http://www.w3.org/1999/xlink">
    <!-- Generator: Sketch 44.1 (41455) - http://www.bohemiancoding.com/sketch -->
    <desc>Created with Sketch.</desc>
    <defs>
        <polygon id="path-1" points="31.6112 0 0 0 0 79 31.6112 79 63.2224 79 63.2224 0"></polygon>
    </defs>
    <g id="Design-Library" stroke="none" stroke-width="1" fill="none" fill-rule="evenodd">
        <g id="object_icon_location_full" transform="translate(-1.000000, -5.000000)">
            <g id="Page-1" transform="translate(1.000000, 5.000000)">
                <path d="M31.6120471,23.2547786 C27.0153412,23.2547786 23.2732235,26.992231 23.2732235,31.5873976 C23.2732235,36.1806833 27.0153412,39.9181357 31.6120471,39.9181357 C36.2087529,39.9181357 39.9508706,36.1806833 39.9508706,31.5873976 C39.9508706,26.992231 36.2087529,23.2547786 31.6120471,23.2547786 M31.6120471,44.6205167 C24.4195765,44.6205167 18.5673412,38.7745167 18.5673412,31.5873976 C18.5673412,24.3983976 24.4195765,18.5523976 31.6120471,18.5523976 C38.8045176,18.5523976 44.6567529,24.3983976 44.6567529,31.5873976 C44.6567529,38.7745167 38.8045176,44.6205167 31.6120471,44.6205167" id="Fill-1" fill="#FFFFFF"></path>
                <g id="Group-5">
                    <mask id="mask-2" fill="white">
                        <use xlink:href="#path-1"></use>
                    </mask>
                    <g id="Clip-4"></g>
                    <path d="M31.6120471,4.70238095 C16.7753412,4.70238095 4.70569412,16.7630476 4.70569412,31.5868333 C4.70569412,55.4617619 26.2624,70.5300714 31.5819294,73.8838095 C36.8864,70.387119 58.5165176,54.7075 58.5165176,31.5868333 C58.5165176,16.7630476 46.4468706,4.70238095 31.6120471,4.70238095 M31.6120471,79 C31.2186353,79 30.8233412,78.9003095 30.4694588,78.7046905 C29.2233412,78.0125 -0.000188235294,61.420619 -0.000188235294,31.5868333 C-0.000188235294,14.1692143 14.1814588,0 31.6120471,0 C49.0426353,0 63.2224,14.1692143 63.2224,31.5868333 C63.2224,43.6136429 57.9424,55.5840238 47.9565176,66.200119 C40.4948706,74.1302143 33.1122824,78.4940238 32.8016941,78.6764762 C32.4346353,78.8909048 32.0242824,79 31.6120471,79" id="Fill-3" fill="#FFFFFF" mask="url(#mask-2)"></path>
                </g>
            </g>
        </g>
    </g>
</svg>