
<svg width="40px" height="40px" viewBox="0 0 40 40" version="1.1" xmlns="http://www.w3.org/2000/svg" xmlns:xlink="http://www.w3.org/1999/xlink">
    <!-- Generator: Sketch 46.1 (44463) - http://www.bohemiancoding.com/sketch -->
    <desc>Created with Sketch.</desc>
    <defs>
        <polygon id="path-1" points="0 9.45554031 0 0.000109431525 16.8906016 0.000109431525 16.8906016 9.45554031"></polygon>
    </defs>
    <g id="Design-Library" stroke="none" stroke-width="1" fill="none" fill-rule="evenodd">
        <g id="object_inline_styling_2nd-lvl_nav" transform="translate(0.000000, -1.000000)">
            <circle id="Oval-3-Copy-2" fill="#E31937" cx="20" cy="21" r="20"></circle>
            <g id="object_icon_arrow" transform="translate(21.361702, 20.000000) rotate(-90.000000) translate(-21.361702, -20.000000) translate(12.361702, 14.638298)">
                <g id="Page-1" transform="translate(0.625000, 0.895349)">
                    <mask id="mask-2" fill="white">
                        <use xlink:href="#path-1"></use>
                    </mask>
                    <g id="Clip-2"></g>
                    <path d="M8.44540781,9.45554031 C8.23990781,9.45554031 8.03440781,9.3756553 7.87760703,9.21533811 L0.235040625,1.40083295 C-0.0785609375,1.08019858 -0.0785609375,0.560945995 0.235040625,0.240311628 C0.548642187,-0.080322739 1.05650547,-0.080322739 1.37010703,0.240311628 L8.44540781,7.47428256 L15.5207086,0.240311628 C15.8343102,-0.080322739 16.3421734,-0.080322739 16.655775,0.240311628 C16.9693766,0.560945995 16.9693766,1.08019858 16.655775,1.40083295 L9.01320859,9.21533811 C8.85640781,9.3756553 8.65090781,9.45554031 8.44540781,9.45554031" id="Fill-1" fill="#FFFFFF" mask="url(#mask-2)"></path>
                </g>
            </g>
        </g>
    </g>
</svg>