<?xml version="1.0" encoding="UTF-8" standalone="no"?>
<svg width="109px" height="109px" viewBox="0 0 109 109" version="1.1" xmlns="http://www.w3.org/2000/svg" xmlns:xlink="http://www.w3.org/1999/xlink">
    <!-- Generator: Sketch 43.2 (39069) - http://www.bohemiancoding.com/sketch -->
    <title>Page 1 Copy</title>
    <desc>Created with Sketch.</desc>
    <defs></defs>
    <g id="Page-1" stroke="none" stroke-width="1" fill="none" fill-rule="evenodd">
        <g id="Desktop-HD-Copy-11" transform="translate(-575.000000, -979.000000)" fill="#FFFFFF">
            <path d="M614.5125,1008.91229 L614.5125,1057.85968 L655.3875,1033.38598 L614.5125,1008.91229 Z M629.5,984.438598 C656.621925,984.438598 678.55,1006.3208 678.55,1033.38598 C678.55,1060.45117 656.621925,1082.33337 629.5,1082.33337 C602.378075,1082.33337 580.45,1060.45117 580.45,1033.38598 C580.45,1006.3208 602.378075,984.438598 629.5,984.438598 L629.5,984.438598 Z M629.5,979 C599.43235,979 575,1003.38124 575,1033.38598 C575,1063.39073 599.43235,1087.77197 629.5,1087.77197 C659.56765,1087.77197 684,1063.39073 684,1033.38598 C684,1003.38124 659.56765,979 629.5,979 L629.5,979 Z" id="Page-1-Copy"></path>
        </g>
    </g>
</svg>