<svg width="52px" height="52px" viewBox="0 0 52 52" version="1.1" xmlns="http://www.w3.org/2000/svg" xmlns:xlink="http://www.w3.org/1999/xlink">
    <!-- Generator: Sketch 43.2 (39069) - http://www.bohemiancoding.com/sketch -->
    <desc>Created with Sketch.</desc>
    <defs></defs>
    <g id="Page-1" stroke="none" stroke-width="1" fill="none" fill-rule="evenodd">
        <g id="iPhone-7-(Portrait)-Alt.-Hero" transform="translate(-87.000000, -970.000000)" stroke="#E75460" stroke-width="1.6" fill="#E75460">
            <g id="Group-49-Copy" transform="translate(38.000000, 928.000000)">
                <g id="Group-46" transform="translate(50.000000, 43.000000)">
                    <path d="M24.7380934,2.37271379 C12.3965826,2.37271379 2.3560089,12.4844785 2.3560089,24.9134948 C2.3560089,37.3425111 12.3965826,47.4542758 24.7380934,47.4542758 C37.0796043,47.4542758 47.1201779,37.3425111 47.1201779,24.9134948 C47.1201779,12.4844785 37.0796043,2.37271379 24.7380934,2.37271379 M24.7380934,49.8269896 C11.0973909,49.8269896 0,38.6509145 0,24.9134948 C0,11.1760751 11.0973909,0 24.7380934,0 C38.3787959,0 49.4761868,11.1760751 49.4761868,24.9134948 C49.4761868,38.6509145 38.3787959,49.8269896 24.7380934,49.8269896" id="Fill-1"></path>
                    <polygon id="Fill-3" stroke-linecap="round" stroke-linejoin="round" points="16.6182413 34.7687098 14.9523957 33.0909046 23.5600742 24.4220465 23.5600742 8.30449827 25.9160831 8.30449827 25.9160831 25.4047949"></polygon>
                </g>
            </g>
        </g>
    </g>
</svg>