
<svg width="31px" height="31px" viewBox="0 0 31 31" version="1.1" xmlns="http://www.w3.org/2000/svg" xmlns:xlink="http://www.w3.org/1999/xlink">
    <!-- Generator: Sketch 43.2 (39069) - http://www.bohemiancoding.com/sketch -->
    <desc>Created with Sketch.</desc>
    <defs></defs>
    <g id="Page-1" stroke="none" stroke-width="1" fill="none" fill-rule="evenodd">
        <g id="Search-start---Desktop-(Large-monitor)-Copy-6" transform="translate(-111.000000, -537.000000)" fill-rule="nonzero" fill="#E75460">
            <g id="SÖK" transform="translate(-583.000000, -827.000000)">
                <g id="Ikon-sök" transform="translate(694.000000, 1364.000000)">
                    <path d="M13.5712857,27.432114 C6.07607159,27.432114 0,21.4418754 0,14.0525416 C0,6.6632078 6.07607159,0.672969188 13.5712857,0.672969188 C21.0664999,0.672969188 27.1425715,6.6632078 27.1425715,14.0525416 C27.1425715,21.4418754 21.0664999,27.432114 13.5712857,27.432114 Z M13.5712857,23.864228 C19.0677761,23.864228 23.523562,19.4713864 23.523562,14.0525416 C23.523562,8.63369681 19.0677761,4.24085517 13.5712857,4.24085517 C8.07479537,4.24085517 3.61900953,8.63369681 3.61900953,14.0525416 C3.61900953,19.4713864 8.07479537,23.864228 13.5712857,23.864228 Z" id="Oval-2"></path>
                    <path d="M21.3392965,24.2336947 L27.6725632,30.4774952 C28.3792187,31.1741683 29.5249338,31.1741683 30.2315894,30.4774952 C30.9382449,29.7808221 30.9382449,28.6512919 30.2315894,27.9546188 L23.8983227,21.7108184 C23.1916671,21.0141453 22.0459521,21.0141453 21.3392965,21.7108184 C20.6326409,22.4074914 20.6326409,23.5370217 21.3392965,24.2336947 Z" id="Line"></path>
                </g>
            </g>
        </g>
    </g>
</svg>