<?xml version="1.0" encoding="UTF-8" standalone="no"?>
<svg width="79px" height="78px" viewBox="0 0 79 78" version="1.1" xmlns="http://www.w3.org/2000/svg" xmlns:xlink="http://www.w3.org/1999/xlink">
    <!-- Generator: Sketch 44.1 (41455) - http://www.bohemiancoding.com/sketch -->
    <title>object_icon_price</title>
    <desc>Created with Sketch.</desc>
    <defs>
        <polygon id="path-1" points="0 60.677626 0 0.364027397 60.3568046 0.364027397 60.3568046 60.677626"></polygon>
    </defs>
    <g id="Design-Library" stroke="none" stroke-width="1" fill="none" fill-rule="evenodd">
        <g id="object_icon_price">
            <rect id="Rectangle-8" x="0" y="0" width="79" height="78"></rect>
            <g id="Page-1" transform="translate(6.000000, 8.000000)">
                <g id="Group-3" transform="translate(3.039474, 5.430949)" fill="#D0EFDC">
                    <path d="M43.8975987,19.4208945 C41.5708816,19.4208945 39.6848882,17.5338945 39.6848882,15.2059356 C39.6848882,12.8794973 41.5708816,10.9924973 43.8975987,10.9924973 C46.2243158,10.9924973 48.1103092,12.8794973 48.1103092,15.2059356 C48.1103092,17.5338945 46.2243158,19.4208945 43.8975987,19.4208945 M57.8092697,11.2144973 L57.3791842,10.7826616 L49.3002632,2.58386712 L48.5039211,1.78862055 C47.6847829,0.967524658 46.5723355,0.50679863 45.4127763,0.50679863 L32.2032237,0.50679863 C31.2883421,0.50679863 30.4099342,0.870209589 29.7625263,1.51796301 L2.34039474,28.9562507 C-0.446802632,31.7434151 -0.446802632,36.2640041 2.34039474,39.0511685 L20.4890921,57.2110726 C23.2747697,59.998237 27.7929474,59.998237 30.578625,57.2110726 L58.0797829,29.695237 C58.7271908,29.0474836 59.0904079,28.1701274 59.0904079,27.253237 L59.0904079,14.3057712 C59.0904079,13.1471137 58.6299276,12.0340726 57.8092697,11.2144973" id="Fill-1"></path>
                </g>
                <path d="M65.9118987,15.5352945 C65.6672211,15.5352945 65.4255829,15.4166918 65.2781684,15.1946918 C65.0471684,14.8449658 65.1413921,14.3735959 65.4924513,14.1409521 C66.5745039,13.4232534 67.2188724,12.2205 67.2188724,10.9234726 L67.2188724,6.93659589 C67.2188724,4.80782877 65.4909316,3.07896575 63.3648197,3.07896575 L58.6642737,3.07896575 L48.2495171,13.4992808 C47.9531684,13.7957877 47.4714118,13.7957877 47.1750632,13.4992808 C46.8787145,13.202774 46.8787145,12.7207603 47.1750632,12.4242534 L57.8132211,1.78041781 C57.9560763,1.6374863 58.1490829,1.55841781 58.3496882,1.55841781 L63.3648197,1.55841781 C66.3283066,1.55841781 68.7386092,3.9715274 68.7386092,6.93659589 L68.7386092,10.9234726 C68.7386092,12.7314041 67.8404447,14.4085685 66.3313461,15.409089 C66.2021684,15.4942397 66.0577934,15.5352945 65.9118987,15.5352945" id="Fill-4" fill="#333333"></path>
                <g id="Group-8" transform="translate(0.000000, 0.252867)">
                    <mask id="mask-2" fill="white">
                        <use xlink:href="#path-1"></use>
                    </mask>
                    <g id="Clip-7"></g>
                    <path d="M20.4576336,58.3648726 L2.30893618,40.2049685 C-0.770050658,37.1258589 -0.770050658,32.1156534 2.30893618,29.0335027 L30.7432125,0.585571233 C30.8860678,0.444160274 31.0775546,0.363571233 31.2796796,0.363571233 L47.7308309,0.363571233 C47.9329559,0.363571233 48.1259625,0.444160274 48.2688178,0.585571233 L50.3432586,2.66263973 C50.641127,2.95914658 50.641127,3.43963973 50.3432586,3.73766712 C50.0469099,4.03417397 49.5651533,4.03417397 49.2688046,3.73766712 L47.4162454,1.88411918 L31.5942651,1.88411918 L3.38339013,30.1085301 C0.898620395,32.5961466 0.898620395,36.6438452 3.38339013,39.1299411 L21.5320875,57.2883247 C22.7372388,58.4941192 24.3375217,59.1570781 26.0411467,59.1570781 C27.743252,59.1570781 29.3450546,58.4941192 30.5486862,57.2883247 L58.8370678,28.9863658 L58.8370678,13.4265986 L57.3492454,11.9364616 C57.051377,11.6399548 57.051377,11.1594616 57.3492454,10.8614342 C57.6455941,10.5649274 58.1258309,10.5649274 58.4236993,10.8614342 L60.134923,12.5735712 C60.2762586,12.7165027 60.3568046,12.9096123 60.3568046,13.1118452 L60.3568046,29.3011192 C60.3568046,29.5033521 60.2762586,29.6964616 60.134923,29.8393932 L31.6231401,58.3648726 C30.1322783,59.8565301 28.1505414,60.677626 26.0411467,60.677626 C23.931752,60.677626 21.9500151,59.8565301 20.4576336,58.3648726 Z" id="Fill-6" fill="#333333" mask="url(#mask-2)"></path>
                </g>
                <path d="M44.404127,12.6219247 C42.4998967,12.6219247 40.9528046,14.171363 40.9528046,16.075089 C40.9528046,17.9803356 42.4998967,19.529774 44.404127,19.529774 C46.3083572,19.529774 47.8554493,17.9803356 47.8554493,16.075089 C47.8554493,14.171363 46.3083572,12.6219247 44.404127,12.6219247 M44.404127,21.0503219 C41.6625217,21.0503219 39.4330678,18.8181575 39.4330678,16.075089 C39.4330678,13.3335411 41.6625217,11.1013767 44.404127,11.1013767 C47.1457322,11.1013767 49.3751862,13.3335411 49.3751862,16.075089 C49.3751862,18.8181575 47.1457322,21.0503219 44.404127,21.0503219" id="Fill-9" fill="#333333"></path>
                <path d="M6.08259474,37.6516644 C5.88806842,37.6516644 5.69354211,37.5771575 5.54460789,37.4296644 C4.002075,35.8847877 4.002075,33.3698014 5.54460789,31.8234041 C5.84247632,31.5268973 6.32271316,31.5268973 6.62058158,31.8234041 C6.91693026,32.119911 6.91693026,32.6019247 6.62058158,32.8984315 C5.66922632,33.8518151 5.66922632,35.402774 6.62058158,36.3531164 C6.91693026,36.6511438 6.91693026,37.131637 6.62058158,37.4296644 C6.47164737,37.5771575 6.27712105,37.6516644 6.08259474,37.6516644" id="Fill-11" fill="#293042"></path>
            </g>
        </g>
    </g>
</svg>