<?xml version="1.0" encoding="UTF-8" standalone="no"?>
<svg width="79px" height="78px" viewBox="0 0 79 78" version="1.1" xmlns="http://www.w3.org/2000/svg" xmlns:xlink="http://www.w3.org/1999/xlink">
    <!-- Generator: Sketch 44.1 (41455) - http://www.bohemiancoding.com/sketch -->
    <title>object_icon_heart</title>
    <desc>Created with Sketch.</desc>
    <defs>
        <polygon id="path-1" points="64.3433934 59.367619 0.506132743 59.367619 0.506132743 0.22493054 64.3433934 0.22493054"></polygon>
        <polygon id="path-3" points="0 60.9115916 0 0.293953016 65.1399674 0.293953016 65.1399674 60.9115916"></polygon>
    </defs>
    <g id="Design-Library" stroke="none" stroke-width="1" fill="none" fill-rule="evenodd">
        <g id="object_icon_heart">
            <rect id="Rectangle-8" x="0" y="0" width="79" height="78"></rect>
            <g id="Page-1" transform="translate(5.000000, 7.000000)">
                <g id="Group-3" transform="translate(5.411109, 3.485095)">
                    <mask id="mask-2" fill="white">
                        <use xlink:href="#path-1"></use>
                    </mask>
                    <g id="Clip-2"></g>
                    <path d="M47.911095,0.22493054 C36.6602074,0.22493054 32.9073741,8.33159721 32.4247582,9.50050133 C31.9421424,8.33159721 28.1908315,0.22493054 16.939944,0.22493054 C7.00749601,0.22493054 -0.170844298,9.78307657 0.556885642,18.2140099 C1.00905257,23.4470563 1.13846062,29.5957699 15.3261495,43.1362194 C22.7739631,50.2422918 28.9246513,56.0636505 32.4247582,59.3680823 C35.4605187,56.5037267 41.4437377,50.8475896 49.5233669,43.1362194 C63.7125783,29.5957699 63.8419864,23.4470563 64.2926308,18.2140099 C65.0203608,9.78307657 57.8435429,0.22493054 47.911095,0.22493054" id="Fill-1" fill="#F7D5D5" mask="url(#mask-2)"></path>
                </g>
                <g id="Group-6" transform="translate(0.000000, 0.396841)">
                    <mask id="mask-4" fill="white">
                        <use xlink:href="#path-3"></use>
                    </mask>
                    <g id="Clip-5"></g>
                    <path d="M47.6335784,0.293798603 C42.7145503,0.293798603 38.4014564,1.84101384 35.1616879,4.77022273 C34.0442114,5.77853765 33.1946857,6.82082337 32.5704822,7.73340241 C31.9447562,6.82082337 31.0967529,5.77853765 29.9792764,4.77022273 C26.7379855,1.84101384 22.4248915,0.293798603 17.5058634,0.293798603 C12.7284229,0.293798603 8.23263525,2.35829638 4.84366695,6.10898083 C1.44708642,9.86893003 -0.343311928,14.8641808 0.0540468888,19.4703116 L0.0921080782,19.9103878 C0.526005637,25.0785808 1.06647452,31.5083256 14.8948658,44.7044348 C21.9635899,51.4491815 27.8432824,57.0157592 31.5321729,60.4977656 C31.8244828,60.7741643 32.1959601,60.9115916 32.5689597,60.9115916 C32.9419594,60.9115916 33.3134366,60.7741643 33.6057465,60.4993097 C37.0754045,57.2257605 42.7800156,51.8290367 50.244576,44.7044348 C64.0729673,31.5083256 64.6134362,25.0785808 65.0488562,19.9103878 L65.085395,19.4703116 C65.4827538,14.8641808 63.6923554,9.86893003 60.2957749,6.10898083 C56.9083291,2.35829638 52.4110189,0.293798603 47.6335784,0.293798603 M47.6335784,1.83792559 C57.2950307,1.83792559 64.2769753,11.1351142 63.5690372,19.3359726 C63.1290498,24.4269592 63.0042091,30.407363 49.2016994,43.5787662 C41.3428251,51.0801351 35.5240304,56.5818596 32.5689597,59.3674646 C29.1647669,56.1541364 23.181548,50.4918227 15.9377424,43.5787662 C2.13523272,30.407363 2.01039202,24.4269592 1.57192712,19.3359726 C0.863988998,11.1351142 7.84441112,1.83792559 17.5058634,1.83792559 C28.450739,1.83792559 32.1000459,9.72223797 32.5704822,10.8602596 C33.039396,9.72223797 36.6887028,1.83792559 47.6335784,1.83792559" id="Fill-4" fill="#333333" mask="url(#mask-4)"></path>
                </g>
                <path d="M6.80869004,20.3756333 C6.38849451,20.3756333 6.04746625,20.0297488 6.04746625,19.6035698 C6.04746625,15.5440599 7.87592579,11.8057285 11.0654535,9.3443901 C11.659208,8.88732851 12.2955911,8.47967898 12.9639456,8.13070629 C13.8408754,7.67673295 14.7665235,7.32776025 15.7119634,7.09305295 C16.1245467,6.99577295 16.5325627,7.24746565 16.6315218,7.65974756 C16.7335258,8.07357359 16.4823219,8.492032 16.074306,8.59240025 C15.2415271,8.79931327 14.4285401,9.10659454 13.6581817,9.50652343 C13.0705169,9.81071644 12.5087338,10.1720422 11.9865342,10.5735152 C9.18066336,12.7399253 7.56991382,16.0320041 7.56991382,19.6035698 C7.56991382,20.0297488 7.22888557,20.3756333 6.80869004,20.3756333" id="Fill-9" fill="#293042"></path>
            </g>
        </g>
    </g>
</svg>