<?xml version="1.0" encoding="UTF-8" standalone="no"?>
<svg width="99px" height="86px" viewBox="0 0 99 86" version="1.1" xmlns="http://www.w3.org/2000/svg" xmlns:xlink="http://www.w3.org/1999/xlink">
    <!-- Generator: Sketch 44.1 (41455) - http://www.bohemiancoding.com/sketch -->
    <title>object_icon_lock</title>
    <desc>Created with Sketch.</desc>
    <defs>
        <polygon id="path-1" points="52.0194324 0.0250769231 52.0194324 51.3076923 0.669056757 51.3076923 0.669056757 0.0250769231 52.0194324 0.0250769231"></polygon>
        <polygon id="path-3" points="0.344927027 0.673846154 38.3916568 0.673846154 38.3916568 31.7183077 0.344927027 31.7183077"></polygon>
    </defs>
    <g id="Design-Library" stroke="none" stroke-width="1" fill="none" fill-rule="evenodd">
        <g id="object_icon_lock">
            <g id="Page-1" transform="translate(25.000000, 4.000000)">
                <g id="Group-3" transform="translate(4.621622, 28.018154)">
                    <mask id="mask-2" fill="white">
                        <use xlink:href="#path-1"></use>
                    </mask>
                    <g id="Clip-2"></g>
                    <path d="M52.0198946,25.6666154 C52.0198946,39.8281538 40.5243811,51.3081538 26.3437054,51.3081538 C12.1645703,51.3081538 0.669056757,39.8281538 0.669056757,25.6666154 C0.669056757,11.5050769 12.1645703,0.0250769231 26.3437054,0.0250769231 C40.5243811,0.0250769231 52.0198946,11.5050769 52.0198946,25.6666154" id="Fill-1" fill="#DAEDE2" mask="url(#mask-2)"></path>
                </g>
                <path d="M25.5303,24.8407692 C12.3016784,24.8407692 1.5410027,35.5869231 1.5410027,48.7976923 C1.5410027,62.0084615 12.3016784,72.7576923 25.5303,72.7576923 C38.7589216,72.7576923 49.5211378,62.0084615 49.5211378,48.7976923 C49.5211378,35.5869231 38.7589216,24.8407692 25.5303,24.8407692 M25.5303,74.2961538 C11.4528405,74.2961538 0.000462162162,62.8576923 0.000462162162,48.7976923 C0.000462162162,34.7407692 11.4528405,23.3023077 25.5303,23.3023077 C39.6093,23.3023077 51.0616784,34.7407692 51.0616784,48.7976923 C51.0616784,62.8576923 39.6093,74.2961538 25.5303,74.2961538" id="Fill-4" fill="#293042"></path>
                <g id="Group-8" transform="translate(6.162162, 0.864308)">
                    <mask id="mask-4" fill="white">
                        <use xlink:href="#path-3"></use>
                    </mask>
                    <g id="Clip-7"></g>
                    <path d="M37.6213865,31.7183077 C37.1961973,31.7183077 36.8511162,31.3736923 36.8511162,30.9490769 L36.8511162,19.6721538 C36.8511162,10.0444615 29.0082243,2.21215385 19.3675216,2.21215385 C9.72835946,2.21215385 1.88546757,10.0444615 1.88546757,19.6721538 L1.88546757,30.6736923 C1.88546757,31.0998462 1.54038649,31.4429231 1.1151973,31.4429231 C0.688467568,31.4429231 0.344927027,31.0998462 0.344927027,30.6736923 L0.344927027,19.6721538 C0.344927027,9.19676923 8.87952162,0.673692308 19.3675216,0.673692308 C29.8570622,0.673692308 38.3916568,9.19676923 38.3916568,19.6721538 L38.3916568,30.9490769 C38.3916568,31.3736923 38.0465757,31.7183077 37.6213865,31.7183077" id="Fill-6" fill="#293042" mask="url(#mask-4)"></path>
                </g>
                <path d="M22.2039649,55.4010769 C22.0067757,55.4010769 21.8095865,55.3256923 21.6586135,55.1764615 L14.1500189,47.6764615 C13.8496135,47.3764615 13.8496135,46.8903077 14.1500189,46.5887692 C14.4519649,46.2887692 14.9387757,46.2887692 15.2391811,46.5887692 L22.2039649,53.5441538 L36.2783432,39.4887692 C36.5787486,39.1887692 37.0655595,39.1887692 37.3675054,39.4887692 C37.6679108,39.7903077 37.6679108,40.2764615 37.3675054,40.5764615 L22.7493162,55.1764615 C22.5983432,55.3256923 22.4011541,55.4010769 22.2039649,55.4010769" id="Fill-9" fill="#293042"></path>
            </g>
        </g>
    </g>
</svg>