
<svg width="49px" height="52px" viewBox="0 0 49 52" version="1.1" xmlns="http://www.w3.org/2000/svg" xmlns:xlink="http://www.w3.org/1999/xlink">
    <!-- Generator: Sketch 43.2 (39069) - http://www.bohemiancoding.com/sketch -->
    <desc>Created with Sketch.</desc>
    <defs></defs>
    <g id="Page-1" stroke="none" stroke-width="1" fill="none" fill-rule="evenodd">
        <g id="iPhone-7-(Portrait)-Alt.-Hero" transform="translate(-89.000000, -1108.000000)" fill-rule="nonzero" fill="#E75A65">
            <g id="Group-49-Copy" transform="translate(38.000000, 928.000000)">
                <g id="Group-45" transform="translate(51.000000, 180.000000)">
                    <path d="M37.2944444,0.416988417 L11.7055556,0.416988417 C5.58055556,0.416988417 0.6125,5.49034749 0.6125,11.7451737 L0.6125,39.6833977 C0.6125,45.9382239 5.58055556,51.011583 11.7055556,51.011583 L37.3625,51.011583 C43.4875,51.011583 48.4555556,45.9382239 48.4555556,39.6833977 L48.4555556,11.7451737 C48.4555556,5.49034749 43.4194444,0.416988417 37.2944444,0.416988417 Z M11.7055556,3.89189189 L37.3625,3.89189189 C41.5819444,3.89189189 45.0527778,7.43629344 45.0527778,11.7451737 L45.0527778,14.3861004 L3.94722222,14.3861004 L3.94722222,11.7451737 C3.94722222,7.43629344 7.41805556,3.89189189 11.7055556,3.89189189 Z M37.2944444,47.5366795 L11.7055556,47.5366795 C7.48611111,47.5366795 4.01527778,43.992278 4.01527778,39.6833977 L4.01527778,17.8610039 L45.0527778,17.8610039 L45.0527778,39.6833977 C45.0527778,43.992278 41.5819444,47.5366795 37.2944444,47.5366795 Z" id="Shape"></path>
                    <path d="M18.7833333,23.003861 L16.6055556,23.003861 C15.6527778,23.003861 14.9041667,23.7683398 14.9041667,24.7413127 C14.9041667,25.7142857 15.6527778,26.4787645 16.6055556,26.4787645 L18.7833333,26.4787645 C19.7361111,26.4787645 20.4847222,25.7142857 20.4847222,24.7413127 C20.4847222,23.7683398 19.7361111,23.003861 18.7833333,23.003861 Z" id="Shape"></path>
                    <path d="M25.5888889,23.003861 L23.4111111,23.003861 C22.4583333,23.003861 21.7097222,23.7683398 21.7097222,24.7413127 C21.7097222,25.7142857 22.4583333,26.4787645 23.4111111,26.4787645 L25.5888889,26.4787645 C26.5416667,26.4787645 27.2902778,25.7142857 27.2902778,24.7413127 C27.2902778,23.7683398 26.5416667,23.003861 25.5888889,23.003861 Z" id="Shape"></path>
                    <path d="M32.3944444,23.003861 L30.2166667,23.003861 C29.2638889,23.003861 28.5152778,23.7683398 28.5152778,24.7413127 C28.5152778,25.7142857 29.2638889,26.4787645 30.2166667,26.4787645 L32.3944444,26.4787645 C33.3472222,26.4787645 34.0958333,25.7142857 34.0958333,24.7413127 C34.0958333,23.7683398 33.3472222,23.003861 32.3944444,23.003861 Z" id="Shape"></path>
                    <path d="M39.2,23.003861 L37.0222222,23.003861 C36.0694444,23.003861 35.3208333,23.7683398 35.3208333,24.7413127 C35.3208333,25.7142857 36.0694444,26.4787645 37.0222222,26.4787645 L39.2,26.4787645 C40.1527778,26.4787645 40.9013889,25.7142857 40.9013889,24.7413127 C40.9013889,23.7683398 40.1527778,23.003861 39.2,23.003861 Z" id="Shape"></path>
                    <path d="M11.9777778,29.953668 L9.8,29.953668 C8.84722222,29.953668 8.09861111,30.7181467 8.09861111,31.6911197 C8.09861111,32.6640927 8.84722222,33.4285714 9.8,33.4285714 L11.9777778,33.4285714 C12.9305556,33.4285714 13.6791667,32.6640927 13.6791667,31.6911197 C13.6791667,30.7181467 12.9305556,29.953668 11.9777778,29.953668 Z" id="Shape"></path>
                    <path d="M18.7833333,29.953668 L16.6055556,29.953668 C15.6527778,29.953668 14.9041667,30.7181467 14.9041667,31.6911197 C14.9041667,32.6640927 15.6527778,33.4285714 16.6055556,33.4285714 L18.7833333,33.4285714 C19.7361111,33.4285714 20.4847222,32.6640927 20.4847222,31.6911197 C20.4847222,30.7181467 19.7361111,29.953668 18.7833333,29.953668 Z" id="Shape"></path>
                    <path d="M25.5888889,29.953668 L23.4111111,29.953668 C22.4583333,29.953668 21.7097222,30.7181467 21.7097222,31.6911197 C21.7097222,32.6640927 22.4583333,33.4285714 23.4111111,33.4285714 L25.5888889,33.4285714 C26.5416667,33.4285714 27.2902778,32.6640927 27.2902778,31.6911197 C27.2902778,30.7181467 26.5416667,29.953668 25.5888889,29.953668 Z" id="Shape"></path>
                    <path d="M32.3944444,29.953668 L30.2166667,29.953668 C29.2638889,29.953668 28.5152778,30.7181467 28.5152778,31.6911197 C28.5152778,32.6640927 29.2638889,33.4285714 30.2166667,33.4285714 L32.3944444,33.4285714 C33.3472222,33.4285714 34.0958333,32.6640927 34.0958333,31.6911197 C34.0958333,30.7181467 33.3472222,29.953668 32.3944444,29.953668 Z" id="Shape"></path>
                    <path d="M39.2,29.953668 L37.0222222,29.953668 C36.0694444,29.953668 35.3208333,30.7181467 35.3208333,31.6911197 C35.3208333,32.6640927 36.0694444,33.4285714 37.0222222,33.4285714 L39.2,33.4285714 C40.1527778,33.4285714 40.9013889,32.6640927 40.9013889,31.6911197 C40.9013889,30.7181467 40.1527778,29.953668 39.2,29.953668 Z" id="Shape"></path>
                    <path d="M11.9777778,36.9034749 L9.8,36.9034749 C8.84722222,36.9034749 8.09861111,37.6679537 8.09861111,38.6409266 C8.09861111,39.6138996 8.84722222,40.3783784 9.8,40.3783784 L11.9777778,40.3783784 C12.9305556,40.3783784 13.6791667,39.6138996 13.6791667,38.6409266 C13.6791667,37.6679537 12.9305556,36.9034749 11.9777778,36.9034749 Z" id="Shape"></path>
                    <path d="M18.7833333,36.9034749 L16.6055556,36.9034749 C15.6527778,36.9034749 14.9041667,37.6679537 14.9041667,38.6409266 C14.9041667,39.6138996 15.6527778,40.3783784 16.6055556,40.3783784 L18.7833333,40.3783784 C19.7361111,40.3783784 20.4847222,39.6138996 20.4847222,38.6409266 C20.4847222,37.6679537 19.7361111,36.9034749 18.7833333,36.9034749 Z" id="Shape"></path>
                    <path d="M25.5888889,36.9034749 L23.4111111,36.9034749 C22.4583333,36.9034749 21.7097222,37.6679537 21.7097222,38.6409266 C21.7097222,39.6138996 22.4583333,40.3783784 23.4111111,40.3783784 L25.5888889,40.3783784 C26.5416667,40.3783784 27.2902778,39.6138996 27.2902778,38.6409266 C27.2902778,37.6679537 26.5416667,36.9034749 25.5888889,36.9034749 Z" id="Shape"></path>
                    <path d="M32.3944444,36.9034749 L30.2166667,36.9034749 C29.2638889,36.9034749 28.5152778,37.6679537 28.5152778,38.6409266 C28.5152778,39.6138996 29.2638889,40.3783784 30.2166667,40.3783784 L32.3944444,40.3783784 C33.3472222,40.3783784 34.0958333,39.6138996 34.0958333,38.6409266 C34.0958333,37.6679537 33.3472222,36.9034749 32.3944444,36.9034749 Z" id="Shape"></path>
                </g>
            </g>
        </g>
    </g>
</svg>