
<svg width="86px" height="86px" viewBox="0 0 86 86" version="1.1" xmlns="http://www.w3.org/2000/svg" xmlns:xlink="http://www.w3.org/1999/xlink">
    <!-- Generator: Sketch 44.1 (41455) - http://www.bohemiancoding.com/sketch -->
    <desc>Created with Sketch.</desc>
    <defs>
        <polygon id="path-1" points="85.7091926 85.8874939 85.7091926 0.288725275 0 0.288725275 0 85.8874939"></polygon>
        <polygon id="path-3" points="0 86.7121018 85.7091926 86.7121018 85.7091926 1.11250611 0 1.11250611"></polygon>
    </defs>
    <g id="Design-Library" stroke="none" stroke-width="1" fill="none" fill-rule="evenodd">
        <g id="object_icon_book" transform="translate(-2.000000, -2.000000)">
            <g id="Page-1" transform="translate(2.000000, 1.000000)">
                <g id="Group-3" transform="translate(0.000000, 0.823781)">
                    <mask id="mask-2" fill="white">
                        <use xlink:href="#path-1"></use>
                    </mask>
                    <g id="Clip-2"></g>
                    <path d="M15.4772607,5.45720562 C9.79823481,5.45720562 5.17509778,10.0723633 5.17509778,15.7461951 L5.17509778,70.4312647 C5.17509778,76.1030288 9.79823481,80.7181865 15.4772607,80.7181865 L70.2323459,80.7181865 C75.9113719,80.7181865 80.5345089,76.1030288 80.5345089,70.4312647 L80.5345089,15.7461951 C80.5345089,10.0723633 75.9113719,5.45720562 70.2323459,5.45720562 L15.4772607,5.45720562 Z M70.2323459,85.8874939 L15.4772607,85.8874939 C6.94319407,85.8874939 -0.000828148148,78.9544188 -0.000828148148,70.4312647 L-0.000828148148,15.7461951 C-0.000828148148,7.22304104 6.94319407,0.287898186 15.4772607,0.287898186 L70.2323459,0.287898186 C78.7664126,0.287898186 85.7104348,7.22304104 85.7104348,15.7461951 L85.7104348,70.4312647 C85.7104348,78.9544188 78.7664126,85.8874939 70.2323459,85.8874939 L70.2323459,85.8874939 Z" id="Fill-1" fill="#FFFFFF" mask="url(#mask-2)"></path>
                </g>
                <mask id="mask-4" fill="white">
                    <use xlink:href="#path-3"></use>
                </mask>
                <g id="Clip-5"></g>
                <polygon id="Fill-4" fill="#FFFFFF" mask="url(#mask-4)" points="3.5776 30.0151378 80.9763259 30.0151378 80.9763259 24.8458304 3.5776 24.8458304"></polygon>
                <path d="M67.7236781,46.001738 L17.9064263,46.001738 C16.4758004,46.001738 15.3184633,44.8438132 15.3184633,43.4170843 C15.3184633,41.9903555 16.4758004,40.8324306 17.9064263,40.8324306 L67.7236781,40.8324306 C69.1522337,40.8324306 70.3116411,41.9903555 70.3116411,43.4170843 C70.3116411,44.8438132 69.1522337,46.001738 67.7236781,46.001738" id="Fill-6" fill="#FFFFFF" mask="url(#mask-4)"></path>
                <path d="M67.7236781,57.8911451 L17.9064263,57.8911451 C16.4758004,57.8911451 15.3184633,56.7332203 15.3184633,55.3064914 C15.3184633,53.8797626 16.4758004,52.7218377 17.9064263,52.7218377 L67.7236781,52.7218377 C69.1522337,52.7218377 70.3116411,53.8797626 70.3116411,55.3064914 C70.3116411,56.7332203 69.1522337,57.8911451 67.7236781,57.8911451" id="Fill-7" fill="#FFFFFF" mask="url(#mask-4)"></path>
                <path d="M53.954887,69.6513196 L17.9055981,69.6513196 C16.4749722,69.6513196 15.3176352,68.4933947 15.3176352,67.0666658 C15.3176352,65.639937 16.4749722,64.4820121 17.9055981,64.4820121 L53.954887,64.4820121 C55.3834426,64.4820121 56.54285,65.639937 56.54285,67.0666658 C56.54285,68.4933947 55.3834426,69.6513196 53.954887,69.6513196" id="Fill-8" fill="#FFFFFF" mask="url(#mask-4)"></path>
            </g>
        </g>
    </g>
</svg>