<?xml version="1.0" encoding="UTF-8" standalone="no"?>
<svg width="64px" height="78px" viewBox="0 0 64 78" version="1.1" xmlns="http://www.w3.org/2000/svg" xmlns:xlink="http://www.w3.org/1999/xlink">
    <!-- Generator: Sketch 44.1 (41455) - http://www.bohemiancoding.com/sketch -->
    <title>object_icon_location_outlined_red</title>
    <desc>Created with Sketch.</desc>
    <defs></defs>
    <g id="Design-Library" stroke="none" stroke-width="1" fill="none" fill-rule="evenodd">
        <g id="object_icon_location_outlined_red">
            <rect id="Rectangle-8" x="0" y="0" width="64" height="78"></rect>
            <path d="M31.6241706,23.3716857 C27.1711118,23.3716857 23.5459353,26.9672095 23.5459353,31.3878762 C23.5459353,35.8067333 27.1711118,39.4022571 31.6241706,39.4022571 C36.0772294,39.4022571 39.7024059,35.8067333 39.7024059,31.3878762 C39.7024059,26.9672095 36.0772294,23.3716857 31.6241706,23.3716857 M31.6241706,43.9260667 C24.6564647,43.9260667 18.9871118,38.3020667 18.9871118,31.3878762 C18.9871118,24.4718762 24.6564647,18.8478762 31.6241706,18.8478762 C38.5918765,18.8478762 44.2612294,24.4718762 44.2612294,31.3878762 C44.2612294,38.3020667 38.5918765,43.9260667 31.6241706,43.9260667" id="Fill-1" fill="#E31937"></path>
            <path d="M31.6241706,5.52380952 C17.2511118,5.52380952 5.55864118,17.1264762 5.55864118,31.3873333 C5.55864118,54.355619 26.4417,68.8517143 31.5949941,72.0780952 C36.7337,68.7141905 57.6878765,53.63 57.6878765,31.3873333 C57.6878765,17.1264762 45.9954059,5.52380952 31.6241706,5.52380952 M31.6241706,77 C31.2430529,77 30.8601118,76.9040952 30.5172882,76.7159048 C29.3101118,76.05 0.999817647,60.0881905 0.999817647,31.3873333 C0.999817647,14.6311429 14.7382882,1 31.6241706,1 C48.5100529,1 62.2467,14.6311429 62.2467,31.3873333 C62.2467,42.9574286 57.1317,54.4732381 47.4578765,64.6861905 C40.2294059,72.3151429 33.0775235,76.5132381 32.7766412,76.6887619 C32.4210529,76.8950476 32.0235235,77 31.6241706,77" id="Fill-3" fill="#E31937"></path>
        </g>
    </g>
</svg>