<svg width="51px" height="69px" viewBox="172 25 51 69" version="1.1" xmlns="http://www.w3.org/2000/svg" xmlns:xlink="http://www.w3.org/1999/xlink">
    <!-- Generator: Sketch 42 (36781) - http://www.bohemiancoding.com/sketch -->
    <desc>Created with Sketch.</desc>
    <defs></defs>
    <g id="noun_922954_cc" stroke="none" stroke-width="1" fill="none" fill-rule="evenodd" transform="translate(173.000000, 25.000000)" opacity="0.100000001">
        <g id="Group" fill-rule="nonzero" fill="#000000">
            <g id="Shape">
                <path d="M24.5302811,0.318882714 C11.0175686,0.318882714 0.06046775,11.7641045 0.06046775,24.9702245 C-0.81330725,37.2958954 7.94430525,45.2195409 15.8086311,53.1431865 C21.2407186,59.8325042 23.8027186,68.9903896 24.5302811,68.9904777 C25.2495311,68.9904777 29.3757686,59.2737991 34.1541436,52.2627814 C42.0184686,43.4587308 49.0001811,39.0567055 49.0000061,24.9702245 C49.0000061,11.3556318 38.0429061,0.318882714 24.5302811,0.318882714 L24.5302811,0.318882714 Z M24.5031561,17.926984 C29.3143436,17.926984 33.2521061,21.8895463 33.2521061,26.7310346 C33.2521061,31.5725141 29.3143436,35.5350852 24.5031561,35.5350852 C19.6919686,35.5350852 15.7542061,31.5725141 15.7542061,26.7310346 C15.7542061,21.8895463 19.6919686,17.926984 24.5031561,17.926984 Z"></path>
            </g>
        </g>
    </g>
</svg>
