<?xml version="1.0" encoding="UTF-8" standalone="no"?>
<svg width="79px" height="78px" viewBox="0 0 79 78" version="1.1" xmlns="http://www.w3.org/2000/svg" xmlns:xlink="http://www.w3.org/1999/xlink">
    <!-- Generator: Sketch 44.1 (41455) - http://www.bohemiancoding.com/sketch -->
    <title>object_icon_schedule</title>
    <desc>Created with Sketch.</desc>
    <defs>
        <polygon id="path-1" points="0 72.573826 73.8939465 72.573826 73.8939465 0.000146 0 0.000146"></polygon>
    </defs>
    <g id="Design-Library" stroke="none" stroke-width="1" fill="none" fill-rule="evenodd">
        <g id="object_icon_schedule">
            <rect id="Rectangle-8" x="0" y="0" width="79" height="78"></rect>
            <g id="Page-1" transform="translate(8.000000, 8.000000)">
                <path d="M56.5599456,54.0995213 L56.5599456,46.5980413 C56.5599456,45.7921213 55.9029342,45.1380413 55.0901213,45.1380413 C54.2773085,45.1380413 53.6202971,45.7921213 53.6202971,46.5980413 L53.6202971,53.4950813 L49.16232,57.9232613 C48.5876187,58.4941213 48.5876187,59.4183013 49.16232,59.9877013 C49.4489357,60.2738613 49.8252107,60.4154813 50.2014857,60.4154813 C50.5777608,60.4154813 50.9540358,60.2738613 51.2406515,59.9877013 L56.1292871,55.1317413 C56.4056141,54.8587213 56.5599456,54.4878813 56.5599456,54.0995213 Z M56.3776874,42.5830413 C63.3505339,42.5830413 69.0240556,48.2171813 69.0240556,55.1448813 C69.0240556,62.0711213 63.3505339,67.7067213 56.3776874,67.7067213 C49.4033712,67.7067213 43.7313192,62.0711213 43.7313192,55.1448813 C43.7313192,48.2171813 49.4033712,42.5830413 56.3776874,42.5830413 Z" id="Fill-1" fill="#F2ECC4"></path>
                <path d="M63.4934698,13.318412 C63.4934698,8.792412 59.786573,5.108832 55.2301176,5.108832 L13.4077372,5.108832 C8.85128189,5.108832 5.1429152,8.792412 5.1429152,13.318412 L5.1429152,19.997912 L63.4361467,19.997912 L63.4934698,13.318412 Z" id="Fill-3" fill="#F2ECC4"></path>
                <mask id="mask-2" fill="white">
                    <use xlink:href="#path-1"></use>
                </mask>
                <g id="Clip-8"></g>
                <polygon id="Fill-7" fill="#333333" mask="url(#mask-2)" points="1.43601833 18.218026 56.3853995 18.218026 56.3853995 16.758026 1.43601833 16.758026"></polygon>
                <path d="M46.9769073,29.5066 L11.6099951,29.5066 C11.2028538,29.5066 10.875083,29.17956 10.875083,28.7766 C10.875083,28.37364 11.2028538,28.0466 11.6099951,28.0466 L46.9769073,28.0466 C47.3825788,28.0466 47.7118194,28.37364 47.7118194,28.7766 C47.7118194,29.17956 47.3825788,29.5066 46.9769073,29.5066" id="Fill-9" fill="#333333" mask="url(#mask-2)"></path>
                <path d="M11.6099951,37.9016 C11.2028538,37.9016 10.875083,37.57456 10.875083,37.1716 C10.875083,36.76864 11.2028538,36.4416 11.6099951,36.4416 L38.2137494,36.4416 C38.6194209,36.4416 38.9486615,36.76864 38.9486615,37.1716 C38.9486615,37.57456 38.6194209,37.9016 38.2137494,37.9016 L11.6099951,37.9016 Z" id="Fill-10" fill="#333333" mask="url(#mask-2)"></path>
                <path d="M31.3213678,46.20535 L11.6095542,46.20535 C11.2024128,46.20535 10.874642,45.87831 10.874642,45.47535 C10.874642,45.07239 11.2024128,44.74535 11.6095542,44.74535 L31.3213678,44.74535 C31.7270393,44.74535 32.0562799,45.07239 32.0562799,45.47535 C32.0562799,45.87831 31.7270393,46.20535 31.3213678,46.20535" id="Fill-11" fill="#333333" mask="url(#mask-2)"></path>
                <path d="M52.918309,40.3933333 C46.2996902,40.3933333 40.914254,45.7413133 40.914254,52.3156933 C40.914254,58.8900733 46.2996902,64.2395133 52.918309,64.2395133 C59.5369278,64.2395133 64.9208941,58.8900733 64.9208941,52.3156933 C64.9208941,45.7413133 59.5369278,40.3933333 52.918309,40.3933333 M52.918309,65.6995133 C45.4883472,65.6995133 39.4444297,59.6959933 39.4444297,52.3156933 C39.4444297,44.9368533 45.4883472,38.9333333 52.918309,38.9333333 C60.3468009,38.9333333 66.3907184,44.9368533 66.3907184,52.3156933 C66.3907184,59.6959933 60.3468009,65.6995133 52.918309,65.6995133" id="Fill-12" fill="#333333" mask="url(#mask-2)"></path>
                <path d="M48.1184508,58.2256273 C47.9303132,58.2256273 47.7421757,58.1540873 47.598133,58.0124673 C47.3115172,57.7263073 47.3115172,57.2649473 47.598133,56.9787873 L52.2721742,52.3374473 L52.2721742,45.1381873 C52.2721742,44.7352273 52.6014149,44.4081873 53.0070864,44.4081873 C53.4142277,44.4081873 53.7419985,44.7352273 53.7419985,45.1381873 L53.7419985,52.6396673 C53.7419985,52.8338473 53.6640978,53.0192673 53.5274042,53.1550473 L48.6387686,58.0124673 C48.4947258,58.1540873 48.3065883,58.2256273 48.1184508,58.2256273" id="Fill-13" fill="#333333" mask="url(#mask-2)"></path>
                <path d="M9.8851563,58.25181 C4.433578,58.25181 0.000587929717,53.84699 0.000587929717,48.43185 L0.000587929717,9.81923 C0.000587929717,4.40409 4.433578,0.00073 9.8851563,0.00073 L48.7575994,0.00073 C54.2091777,0.00073 58.6436376,4.40409 58.6436376,9.81923 L58.6436376,32.3640633 C58.6436376,32.7670233 58.3143969,33.0940633 57.9087254,33.0940633 C57.5030539,33.0940633 57.1738133,32.7670233 57.1738133,32.3640633 L57.1738133,9.81923 C57.1738133,5.21001 53.3993045,1.46073 48.7575994,1.46073 L9.8851563,1.46073 C5.24492101,1.46073 1.47041222,5.21001 1.47041222,9.81923 L1.47041222,48.43185 C1.47041222,53.04253 5.24492101,56.79181 9.8851563,56.79181 L32.8302204,56.79181 C33.2358919,56.79181 33.5651325,57.11885 33.5651325,57.52181 C33.5651325,57.92477 33.2358919,58.25181 32.8302204,58.25181 L9.8851563,58.25181 Z" id="Fill-5" fill="#333333"></path>
            </g>
        </g>
    </g>
</svg>