<?xml version="1.0" encoding="UTF-8" standalone="no"?>
<svg width="79px" height="78px" viewBox="0 0 79 78" version="1.1" xmlns="http://www.w3.org/2000/svg" xmlns:xlink="http://www.w3.org/1999/xlink">
    <!-- Generator: Sketch 44.1 (41455) - http://www.bohemiancoding.com/sketch -->
    <title>object_icon_book_outlined_red</title>
    <desc>Created with Sketch.</desc>
    <defs></defs>
    <g id="Design-Library" stroke="none" stroke-width="1" fill="none" fill-rule="evenodd">
        <g id="object_icon_book_outlined_red">
            <rect id="Rectangle-8" x="0" y="0" width="79" height="78"></rect>
            <path d="M15.5833227,5.66691826 C10.5570584,5.66691826 6.46531642,9.7454297 6.46531642,14.7595137 L6.46531642,63.0858542 C6.46531642,68.0981108 10.5570584,72.1766223 15.5833227,72.1766223 L64.04472,72.1766223 C69.0709843,72.1766223 73.1627263,68.0981108 73.1627263,63.0858542 L73.1627263,14.7595137 C73.1627263,9.7454297 69.0709843,5.66691826 64.04472,5.66691826 L15.5833227,5.66691826 Z M64.04472,76.7448474 L15.5833227,76.7448474 C8.03018326,76.7448474 1.88432451,70.6179438 1.88432451,63.0858542 L1.88432451,14.7595137 C1.88432451,7.22742398 8.03018326,1.09869309 15.5833227,1.09869309 L64.04472,1.09869309 C71.5978594,1.09869309 77.7437182,7.22742398 77.7437182,14.7595137 L77.7437182,63.0858542 C77.7437182,70.6179438 71.5978594,76.7448474 64.04472,76.7448474 L64.04472,76.7448474 Z" id="Fill-1" fill="#E31937"></path>
            <polygon id="Fill-4" fill="#E31937" points="5.93649655 26.6412846 74.4388172 26.6412846 74.4388172 22.0730594 5.93649655 22.0730594"></polygon>
            <path d="M61.8244048,40.7689778 L17.7332738,40.7689778 C16.4670877,40.7689778 15.4427779,39.7456954 15.4427779,38.4848652 C15.4427779,37.2240351 16.4670877,36.2007526 17.7332738,36.2007526 L61.8244048,36.2007526 C63.0887586,36.2007526 64.1149008,37.2240351 64.1149008,38.4848652 C64.1149008,39.7456954 63.0887586,40.7689778 61.8244048,40.7689778" id="Fill-6" fill="#E31937"></path>
            <path d="M61.8244048,51.2758957 L17.7332738,51.2758957 C16.4670877,51.2758957 15.4427779,50.2526133 15.4427779,48.9917831 C15.4427779,47.730953 16.4670877,46.7076705 17.7332738,46.7076705 L61.8244048,46.7076705 C63.0887586,46.7076705 64.1149008,47.730953 64.1149008,48.9917831 C64.1149008,50.2526133 63.0887586,51.2758957 61.8244048,51.2758957" id="Fill-7" fill="#E31937"></path>
            <path d="M49.6382334,61.668608 L17.7325409,61.668608 C16.4663547,61.668608 15.4420449,60.6453255 15.4420449,59.3844954 C15.4420449,58.1236652 16.4663547,57.1003828 17.7325409,57.1003828 L49.6382334,57.1003828 C50.9025871,57.1003828 51.9287293,58.1236652 51.9287293,59.3844954 C51.9287293,60.6453255 50.9025871,61.668608 49.6382334,61.668608" id="Fill-8" fill="#E31937"></path>
        </g>
    </g>
</svg>