<svg width="81px" height="82px" viewBox="34 32 81 82" version="1.1" xmlns="http://www.w3.org/2000/svg" xmlns:xlink="http://www.w3.org/1999/xlink">
    <!-- Generator: Sketch 42 (36781) - http://www.bohemiancoding.com/sketch -->
    <desc>Created with Sketch.</desc>
    <defs></defs>
    <g id="Group-11" opacity="0.75999999" stroke="none" stroke-width="1" fill="none" fill-rule="evenodd" transform="translate(36.000000, 33.000000)" stroke-linecap="round" stroke-linejoin="round">
        <path d="M0.105410381,53.5641274 L33.2278636,19.9963702 C33.2278636,19.9963702 56.3701039,19.0250986 57.4660674,20.1236797 C58.562031,21.2222609 58.3184835,28.7902643 58.3184835,28.7902643" id="Path-4" stroke="#373D49" stroke-width="4"></path>
        <path d="M58.9273521,36.9685906 C58.9273521,36.9685906 59.5362208,43.1886388 58.8055784,44.0483357 C58.0749361,44.9080327 26.0484463,78.3537253 24.8307091,78.3537253 C23.6129718,78.3537253 22.7605557,77.7434025 22.7605557,77.7434025 L0.719511472,55.7717796 L0.232416571,53.4525527" id="Path-5" stroke="#373D49" stroke-width="4"></path>
        <path d="M49.1854541,28.7955093 C49.1854541,28.7955093 43.7103933,25.7491399 40.9095976,28.9228188 C38.1088019,32.0964976 38.7176705,35.2701765 40.6660501,37.2232097 C42.6144297,39.1762428 46.7547364,39.6645011 48.5813423,37.8335325" id="Path-6" stroke="#373D49" stroke-width="3"></path>
        <path d="M48.2160211,13.6647473 C48.2160211,13.6647473 53.6958387,-1.22188543 64.5337003,1.09734143 C75.3715618,3.41656829 75.9804305,10.1248748 75.9804305,10.1248748 C75.9804305,10.1248748 78.3031691,19.0355885 73.5539938,24.6505588 C68.8048186,30.2655291 64.5337003,34.1715954 46.5202268,33.4392079" id="Path-7" stroke="#373D49" stroke-width="3"></path>
    </g>
</svg>