<?xml version="1.0" encoding="UTF-8" standalone="no"?>
<svg width="79px" height="78px" viewBox="0 0 79 78" version="1.1" xmlns="http://www.w3.org/2000/svg" xmlns:xlink="http://www.w3.org/1999/xlink">
    <!-- Generator: Sketch 44.1 (41455) - http://www.bohemiancoding.com/sketch -->
    <title>object_icon_info_white</title>
    <desc>Created with Sketch.</desc>
    <defs></defs>
    <g id="Design-Library" stroke="none" stroke-width="1" fill="none" fill-rule="evenodd">
        <g id="object_icon_info_white">
            <rect id="Rectangle-8" x="0" y="0" width="79" height="78"></rect>
            <g id="Page-1" transform="translate(2.000000, 1.000000)" fill="#FFFFFF">
                <path d="M37.5355314,52.0293829 C36.9362171,52.0293829 36.4498171,51.5429829 36.4498171,50.9436686 L36.4498171,32.3214971 C36.4498171,31.7200114 36.9362171,31.2357829 37.5355314,31.2357829 C38.1348457,31.2357829 38.6212457,31.7200114 38.6212457,32.3214971 L38.6212457,50.9436686 C38.6212457,51.5429829 38.1348457,52.0293829 37.5355314,52.0293829" id="Fill-1"></path>
                <path d="M37.6373714,27.4807314 C36.0565714,27.4807314 34.7732571,26.1952457 34.7732571,24.6144457 C34.7732571,23.0358171 36.0565714,21.7503314 37.6373714,21.7503314 C39.2181714,21.7503314 40.5036571,23.0358171 40.5036571,24.6144457 C40.5036571,26.1952457 39.2181714,27.4807314 37.6373714,27.4807314" id="Fill-3"></path>
                <path d="M37.6373714,2.17142857 C18.0814857,2.17142857 2.17142857,18.0814857 2.17142857,37.6373714 C2.17142857,57.1932571 18.0814857,73.1033143 37.6373714,73.1033143 C57.1954286,73.1033143 73.1054857,57.1932571 73.1054857,37.6373714 C73.1054857,18.0814857 57.1954286,2.17142857 37.6373714,2.17142857 M37.6373714,75.2747429 C16.8828571,75.2747429 0,58.3918857 0,37.6373714 C0,16.8828571 16.8828571,-7.10542736e-15 37.6373714,-7.10542736e-15 C58.3918857,-7.10542736e-15 75.2769143,16.8828571 75.2769143,37.6373714 C75.2769143,58.3918857 58.3918857,75.2747429 37.6373714,75.2747429" id="Fill-5"></path>
            </g>
        </g>
    </g>
</svg>