
<svg width="81px" height="83px" viewBox="0 0 81 83" version="1.1" xmlns="http://www.w3.org/2000/svg" xmlns:xlink="http://www.w3.org/1999/xlink">
    <!-- Generator: Sketch 44.1 (41455) - http://www.bohemiancoding.com/sketch -->
    <desc>Created with Sketch.</desc>
    <defs></defs>
    <g id="Design-Library" stroke="none" stroke-width="1" fill="none" fill-rule="evenodd" stroke-linecap="round" stroke-linejoin="round">
        <g id="object_icon_price" transform="translate(-3.000000, -2.000000)" stroke="#999999">
            <path d="M5,57.215333 L38.4797589,23.2854665 C38.4797589,23.2854665 61.8716441,22.3037174 62.9794302,23.4141494 C64.0872163,24.5245814 63.8410416,32.174224 63.8410416,32.174224" id="Path-4" stroke-width="4"></path>
            <path d="M64.4564784,40.4407733 C64.4564784,40.4407733 65.0719151,46.7279197 64.333391,47.5968906 C63.5948669,48.4658614 31.2228942,82.2723466 29.9920207,82.2723466 C28.7611472,82.2723466 27.8995358,81.6554399 27.8995358,81.6554399 L5.62072565,59.4468 L5.12837626,57.1025547" id="Path-5" stroke-width="4"></path>
            <path d="M54.6094905,32.1795255 C54.6094905,32.1795255 49.0753679,29.1002938 46.2443589,32.3082084 C43.4133498,35.5161231 44.0287866,38.7240377 45.9981842,40.698139 C47.9675817,42.6722403 52.1525516,43.1657657 53.9988618,41.3150457" id="Path-6" stroke-width="3"></path>
            <path d="M53.6295998,16.8855418 C53.6295998,16.8855418 59.1685305,1.83832079 70.1233045,4.18256611 C81.0780786,6.52681143 81.6935153,13.3074832 81.6935153,13.3074832 C81.6935153,13.3074832 84.0413103,22.3143205 79.2409037,27.9898618 C74.4404971,33.6654031 70.1233045,37.6136057 51.9155123,36.8733177" id="Path-7" stroke-width="3"></path>
        </g>
    </g>
</svg>