<?xml version="1.0" encoding="UTF-8" standalone="no"?>
<svg width="79px" height="78px" viewBox="0 0 79 78" version="1.1" xmlns="http://www.w3.org/2000/svg" xmlns:xlink="http://www.w3.org/1999/xlink">
    <!-- Generator: Sketch 44.1 (41455) - http://www.bohemiancoding.com/sketch -->
    <title>object_icon_location</title>
    <desc>Created with Sketch.</desc>
    <defs>
        <polygon id="path-1" points="24.6941029 0.785714286 0 0.785714286 0 64.4285714 24.6941029 64.4285714 49.3882059 64.4285714 49.3882059 0.785714286"></polygon>
    </defs>
    <g id="Design-Library" stroke="none" stroke-width="1" fill="none" fill-rule="evenodd">
        <g id="object_icon_location">
            <rect id="Rectangle-8" x="0" y="0" width="79" height="78"></rect>
            <g id="Page-1" transform="translate(15.000000, 6.000000)">
                <path d="M27.6576046,36.6840571 C23.3709283,36.6840571 19.8954113,33.1357714 19.8954113,28.7593429 C19.8954113,24.3829143 23.3709283,20.8346286 27.6576046,20.8346286 C31.9442809,20.8346286 35.419798,24.3829143 35.419798,28.7593429 C35.419798,33.1357714 31.9442809,36.6840571 27.6576046,36.6840571 M27.6576046,7.07048571 C15.9258105,7.07048571 6.41354497,16.7803429 6.41354497,28.7593429 C6.41354497,50.1197714 27.6576046,62.1883429 27.6576046,62.1883429 C27.6576046,62.1883429 48.9016643,49.4770571 48.9016643,28.7593429 C48.9016643,16.7803429 39.3893987,7.07048571 27.6576046,7.07048571" id="Fill-1" fill="#CBE7EF"></path>
                <path d="M24.6947956,18.6423286 C20.298836,18.6423286 16.7217316,22.2927571 16.7217316,26.7823286 C16.7217316,31.2703286 20.298836,34.9207571 24.6947956,34.9207571 C29.0907552,34.9207571 32.6678595,31.2703286 32.6678595,26.7823286 C32.6678595,22.2927571 29.0907552,18.6423286 24.6947956,18.6423286 M24.6947956,36.4921857 C19.4507359,36.4921857 15.1825301,32.1361857 15.1825301,26.7823286 C15.1825301,21.4269 19.4507359,17.0709 24.6947956,17.0709 C29.9388552,17.0709 34.2070611,21.4269 34.2070611,26.7823286 C34.2070611,32.1361857 29.9388552,36.4921857 24.6947956,36.4921857" id="Fill-3" fill="#293042"></path>
                <g id="Group-7" transform="translate(0.000000, 0.785714)">
                    <mask id="mask-2" fill="white">
                        <use xlink:href="#path-1"></use>
                    </mask>
                    <g id="Clip-6"></g>
                    <path d="M24.6947956,2.35714286 C11.9271188,2.35714286 1.53904762,12.9611429 1.53904762,25.9961429 C1.53904762,47.6598571 21.6364021,60.852 24.6855604,62.7251429 C27.722405,60.7702857 47.8490043,46.9967143 47.8490043,25.9961429 C47.8490043,12.9611429 37.4624723,2.35714286 24.6947956,2.35714286 M24.6947956,64.4285714 C24.5655026,64.4285714 24.4377489,64.3955714 24.3207696,64.3295714 C24.0775758,64.1912857 -0.000153920154,50.2338571 -0.000153920154,25.9961429 C-0.000153920154,12.0952857 11.0774796,0.785714286 24.6947956,0.785714286 C38.3105724,0.785714286 49.3882059,12.0952857 49.3882059,25.9961429 C49.3882059,38.3051429 42.7696392,48.0778571 37.2177393,54.1074286 C31.2287061,60.6084286 25.332025,64.1724286 25.0842136,64.3217143 C24.9641558,64.394 24.8302453,64.4285714 24.6947956,64.4285714" id="Fill-5" fill="#293042" mask="url(#mask-2)"></path>
                </g>
            </g>
        </g>
    </g>
</svg>