<svg style="position: absolute; width: 0; height: 0; overflow: hidden;" version="1.1" xmlns="http://www.w3.org/2000/svg" xmlns:xlink="http://www.w3.org/1999/xlink">
	<defs>
		<symbol id="icon-facebook" viewBox="0 0 20 20">
			<title>facebook</title>
			<path d="M10 0.4c-5.302 0-9.6 4.298-9.6 9.6s4.298 9.6 9.6 9.6 9.6-4.298 9.6-9.6-4.298-9.6-9.6-9.6zM12.274 7.034h-1.443c-0.171 0-0.361 0.225-0.361 0.524v1.042h1.805l-0.273 1.486h-1.532v4.461h-1.703v-4.461h-1.545v-1.486h1.545v-0.874c0-1.254 0.87-2.273 2.064-2.273h1.443v1.581z"/>
		</symbol>
		<symbol id="icon-close" viewBox="0 0 46 46">
			<title>close</title>
			<line fill="none" stroke="#010101" stroke-linecap="round" stroke-miterlimit="10" x1="1.5" y1="1.5" x2="44.5" y2="44.5"/>
			<line fill="none" stroke="#010101" stroke-linecap="round" stroke-miterlimit="10" x1="1.5" y1="44.5" x2="44.5" y2="1.5"/>
		</symbol>
		<symbol id="icon-arrow-left" viewBox="0 0 46 46">
			<title>arrow left</title>
			<line fill="none" stroke="#010101" stroke-linecap="round" stroke-miterlimit="10" x1="12.2" y1="44.5" x2="33.8" y2="23"/>
			<line fill="none" stroke="#010101" stroke-linecap="round" stroke-miterlimit="10" x1="33.7" y1="23" x2="12.2" y2="1.5"/>
		</symbol>
		<symbol id="icon-arrow-right" viewBox="0 0 46 46">
			<title>arrow right</title>
			<line fill="none" stroke="#010101" stroke-linecap="round" stroke-miterlimit="10" x1="12.3" y1="23" x2="33.8" y2="1.5"/>
			<line fill="none" stroke="#010101" stroke-linecap="round" stroke-miterlimit="10" x1="33.8" y1="44.5" x2="12.2" y2="23"/>
		</symbol>
	</defs>
</svg>
