
<svg width="277px" height="223px" viewBox="1208 970 277 223" version="1.1" xmlns="http://www.w3.org/2000/svg" xmlns:xlink="http://www.w3.org/1999/xlink">
    <!-- Generator: Sketch 42 (36781) - http://www.bohemiancoding.com/sketch -->
    <desc>Created with Sketch.</desc>
    <defs>
        <rect id="path-1" x="12.431012" y="24.1420118" width="197.137976" height="121.715976" rx="8"></rect>
        <filter x="-50%" y="-50%" width="200%" height="200%" filterUnits="objectBoundingBox" id="filter-2">
            <feOffset dx="2" dy="2" in="SourceAlpha" result="shadowOffsetOuter1"></feOffset>
            <feGaussianBlur stdDeviation="11" in="shadowOffsetOuter1" result="shadowBlurOuter1"></feGaussianBlur>
            <feColorMatrix values="0 0 0 0 0   0 0 0 0 0   0 0 0 0 0  0 0 0 0.15 0" type="matrix" in="shadowBlurOuter1"></feColorMatrix>
        </filter>
        <polyline id="path-3" points="0.0558195495 0.047970491 96.3277966 0.047970491 96.3277966 72.3695996 0.0558195495 72.3695996"></polyline>
        <polyline id="path-5" points="0.0558195495 0.047970491 96.3277966 0.047970491 96.3277966 72.3695996 0.0558195495 72.3695996"></polyline>
    </defs>
    <g id="Group-2" stroke="none" stroke-width="1" fill="none" fill-rule="evenodd" transform="translate(1233.000000, 995.000000)">
        <g id="Rectangle-6" transform="translate(111.000000, 85.000000) rotate(-15.000000) translate(-111.000000, -85.000000) ">
            <use fill="black" fill-opacity="1" filter="url(#filter-2)" xlink:href="#path-1"></use>
            <use fill="#FFFFFF" fill-rule="evenodd" xlink:href="#path-1"></use>
        </g>
        <g id="logo_white" transform="translate(111.827740, 84.209239) rotate(-15.000000) translate(-111.827740, -84.209239) translate(63.327740, 47.709239)">
            <g id="Untitled" transform="translate(0.000000, 0.000000)">
                <g id="Page-1" transform="translate(0.000000, -0.000000)">
                    <g id="F&amp;S_logo_white">
                        <g id="Group-3" transform="translate(-0.000000, -0.000000)">
                            <g id="Fill-1-Clipped">
                                <mask id="mask-4" fill="white">
                                    <use xlink:href="#path-3"></use>
                                </mask>
                                <g id="path-1"></g>
                                <path d="M38.9732095,71.3509321 C42.0404937,71.0593468 44.6147053,69.7697871 45.2919825,69.1997848 C56.3823966,70.7790486 70.3410053,63.054859 75.5843217,51.6971398 C75.5964159,51.6670407 75.5657152,51.7272389 75.5843217,51.6971398 C75.8866776,51.5748621 79.7689272,50.0548559 79.9215007,49.9918359 C73.0138314,67.0213602 55.6092959,75.5949097 38.9732095,71.3509321" id="Fill-1" fill="#E31836" fill-rule="nonzero" mask="url(#mask-4)"></path>
                            </g>
                        </g>
                        <path d="M57.0550222,7.33666334 L61.6517621,5.48650734 C58.0290734,3.76145086 53.1802152,2.61862445 47.706178,2.61862445 C34.7644154,2.61862445 21.266318,10.1095458 15.5652814,24.1319788 C16.0462598,23.941978 19.9889807,22.3429617 20.3778569,22.1887036 C23.6991201,15.5292707 33.0358701,5.91071698 47.7080386,5.91071698 C52.8294823,5.91071698 56.1302783,6.93502805 57.0550222,7.33666334" id="Fill-4" fill="#E31836" fill-rule="nonzero"></path>
                        <path d="M73.1747778,13.7543626 C74.9247207,15.1539722 77.401248,18.7084915 78.8497653,21.5904834 L75.9871528,23.6663828 C74.7963357,20.8831538 71.5225191,16.55076 69.8218835,15.1125859 L73.1747778,13.7543626" id="Fill-5" fill="#E31836" fill-rule="nonzero"></path>
                        <g id="Group-9" transform="translate(45.585965, 15.990164)" fill-rule="nonzero" fill="#E31836">
                            <path d="M4.33810932,9.65617767 C6.13456849,9.0701852 6.65275998,8.82562975 6.65275998,7.21814801 C6.65275998,7.21814801 6.66113291,5.92388535 6.66113291,5.03219857 L10.6866528,3.39273649 C10.6857224,4.45090909 10.6857224,6.38760009 10.6857224,6.38760009 C10.6857224,8.70523323 10.0344944,10.4726166 8.53853042,10.9993514 C9.25022968,11.0012326 10.693165,11.9775732 10.693165,13.7167386 C10.693165,15.430508 10.6978167,18.1770537 10.6978167,18.6633428 C10.2307931,18.8542842 7.20909482,20.0836456 6.84905873,20.2247353 C6.84905873,20.2247353 6.99418955,15.584766 7.02209933,14.8454561 C7.03326324,14.4955537 7.08815246,12.4610405 4.13343764,13.984809 C4.09436396,15.6703604 3.94179052,21.408948 3.94179052,21.408948 C3.94179052,21.408948 0.486560407,22.7963298 0.102335841,22.9468255 C0.121872683,22.1755352 0.506097249,2.43050488 0.506097249,2.43050488 L4.33810932,0.852181664 L4.33810932,9.65617767" id="Fill-6"></path>
                            <path d="M7.26770535,39.2257527 C7.26770535,39.2257527 42.709398,25.2353001 44.7542542,24.4056928 C46.1488126,23.8385123 46.8977249,22.0015246 46.8977249,20.6282517 C46.8977249,18.0820533 44.4016607,15.7239745 44.4016607,11.3492538 C44.4016607,8.1455775 46.0771775,6.35091678 47.5675594,5.7225974 C49.068175,5.09615923 50.3176026,4.58353339 50.3176026,4.58353339 C50.3399304,5.37739799 50.1203735,8.16909245 50.1194432,8.81528318 C49.3342482,8.9827096 48.0038823,9.80667333 48.0038823,11.5938093 C48.0038823,14.0638193 50.7334582,17.1075939 50.7334582,21.1681549 C50.7334582,21.659147 51.1521049,25.9294613 45.9339073,27.9442219 C41.6674331,29.5912088 7.71240109,43.0408176 6.88348078,43.3709675 C7.21281612,42.4896273 7.31143066,39.7167448 7.26770535,39.2257527" id="Fill-8"></path>
                        </g>
                        <path d="M61.9289992,28.2169953 C63.2137792,27.897192 65.1730454,27.1287236 65.1730454,24.4245047 C65.1730454,23.8300469 65.0753612,23.1358857 64.7599807,22.4351402 C64.4492519,21.7325136 63.2937872,19.1562161 62.950497,18.4225498 C62.7718744,18.0133897 62.4620759,17.0248213 62.4620759,16.2356597 C62.4620759,14.546346 63.2249431,12.2136633 66.5201572,10.8686083 C69.3185772,9.72296012 77.9947959,6.08943057 78.6255568,5.83170675 C78.6255568,6.41581803 78.6283478,9.56493968 78.6283478,9.95905018 C77.9026936,10.2976654 68.0533341,14.4118405 67.7491176,14.5303558 C66.9806684,14.8369907 66.4699196,15.6261523 66.4699196,16.6344732 C66.4699196,17.3954169 66.6718003,18.0350234 67.1490574,19.112008 C67.5128148,19.9538431 68.0449612,21.2020164 68.272891,21.7249889 C68.6329271,22.5884577 69.0134304,23.951384 69.0134304,24.9926258 C69.0134304,27.6789733 67.3211677,30.0916069 65.2865451,30.9682441 C63.5124138,31.7348313 62.0285441,32.3396357 62.0285441,32.3396357 C62.0285441,31.885327 61.9289992,28.2169953 61.9289992,28.2169953" id="Fill-10" fill="#E31836" fill-rule="nonzero"></path>
                        <path d="M10.8196893,57.8439468 C11.2615941,57.6671144 28.8708013,50.527036 29.2001367,50.3991147 C28.3460976,51.9896657 27.7581316,53.7325936 27.7581316,55.668344 C27.7581316,62.1509444 32.9223703,65.9133359 37.6102821,65.9133359 C43.2117739,65.9133359 47.62617,61.1971782 47.62617,55.668344 C47.62617,54.1116545 47.2317118,52.4543211 46.3851153,50.8355521 C45.2640727,48.6947514 41.6041709,42.2968047 39.7518922,38.3632245 C39.0820576,36.9382187 38.2903503,34.586724 38.2903503,32.250279 C38.2903503,29.237544 39.2895203,26.0602044 42.7763814,24.5956935 C44.0732556,24.0529686 44.6695945,23.8657896 45.0296306,23.7256405 L44.9663684,28.1304603 C43.446216,28.4559072 42.2209769,29.8395266 42.2209769,31.9173073 C42.2209769,33.4504818 42.5493819,34.7814278 43.8276496,37.3643095 C44.2462963,38.2080258 45.4678141,40.3629355 49.5556657,47.9328671 C51.0730272,50.7490171 51.6805299,53.3318989 51.6805299,55.6561162 C51.6805299,64.294567 45.1589459,70.1789472 37.6047002,70.1789472 C28.6558961,70.1789472 23.5307311,61.8132698 23.7419151,56.9136955 C23.29908,57.0886467 11.3099711,61.901686 10.8141074,62.1001522 C10.818759,61.454902 10.8196893,57.8439468 10.8196893,57.8439468" id="Fill-11" fill="#E31836" fill-rule="nonzero"></path>
                        <path d="M37.7768105,51.7197141 L43.4424947,49.4594575 C44.730996,50.742433 46.2632426,52.7825897 46.2632426,55.8762161 C46.2632426,59.8897472 42.789406,64.5579344 37.6158641,64.5579344 C34.1420275,64.5579344 29.1461778,61.6138631 29.1461778,55.6627004 C29.1461778,54.1577438 29.5257507,52.6885299 30.6133016,50.9916914 C30.2504745,50.5571352 29.7136765,49.4274771 29.7136765,48.185888 C29.7136765,43.8459694 33.6750039,40.5585799 37.1776806,40.5585799 C37.9479904,40.5585799 39.1890451,40.7880858 40.1203012,41.2461569 C40.1203012,42.261062 40.0812275,45.802413 40.0812275,46.1852363 C38.6941117,44.1272082 35.9142982,44.5730516 34.7253418,46.0394436 C33.5661558,47.4663306 33.3019432,49.6212403 36.1803713,51.4591685 C31.1119562,53.6601675 32.8014279,60.4127196 37.6047002,60.4127196 C40.7268737,60.4127196 43.2862,56.8215169 41.8451253,54.1285853 C41.3781017,54.313883 38.1508014,55.6316606 37.7740195,55.7812157 C37.7740195,55.2112134 37.7768105,51.7197141 37.7768105,51.7197141" id="Fill-12" fill="#E31836" fill-rule="nonzero"></path>
                        <path d="M47.7285058,40.3629355 C48.0308617,40.2434796 51.0283715,39.0508015 51.2497891,38.9586229 C51.4777189,39.545556 53.8733079,45.7346899 54.0137871,46.0977607 C54.1719425,45.519293 55.9581681,37.3643095 56.0251515,37.0435657 C56.3535565,36.9147038 60.1697531,35.3561331 60.1697531,35.3561331 C60.1697531,35.3561331 56.7219656,51.7526351 56.6577731,52.0517452 C56.2735485,52.204122 53.3132517,53.3695228 53.0108959,53.4908599 C52.8108758,52.8926397 47.7285058,40.3629355 47.7285058,40.3629355" id="Fill-13" fill="#E31836" fill-rule="nonzero"></path>
                        <path d="M30.7249407,29.4049704 C31.7631843,28.9346715 32.8405016,28.4314516 32.8405016,28.4314516 C32.8405016,28.4314516 32.6721127,33.6545916 32.667461,33.9781572 C30.7212194,34.3901391 30.5751582,35.1379144 30.4076996,37.863767 C30.1955853,41.2565035 30.2858269,44.8862707 30.277454,45.182559 C30.277454,45.182559 26.9506088,46.5389011 26.2491432,46.8154369 C26.2491432,46.0601368 26.4259051,37.5430231 26.4259051,36.9645554 C26.4156715,33.0780051 28.1079342,30.5873019 30.7249407,29.4049704" id="Fill-14" fill="#E31836" fill-rule="nonzero"></path>
                        <path d="M78.6078806,27.8746177 C78.6078806,27.4861508 78.6255568,25.0801014 78.6292781,24.8223776 C78.9725683,24.5270299 82.1710285,22.1680105 82.3943067,22.0137524 L82.2845283,26.3997602 L84.1963478,25.6482225 L84.1349463,29.929824 L82.1040451,30.8083424 C82.1040451,30.8083424 82.0956721,37.2363882 82.0956721,37.786638 C82.0956721,39.5013479 83.3581243,40.9555122 83.8949223,41.3025928 C83.5758205,41.4295735 80.6313393,42.5977961 80.133615,42.7934404 C78.8637202,41.919625 78.2617994,39.3743672 78.2617994,37.0689618 C78.2617994,36.4434642 78.4059999,32.745974 78.43484,32.2465166 L75.7396861,33.3253823 C75.7396861,33.3253823 75.7406164,39.4477338 75.7406164,40.1484792 C75.7406164,41.7061093 76.6765242,43.0135403 77.7454686,43.7265135 C77.364035,43.8770091 74.0716119,45.182559 73.852055,45.2709752 C73.0901181,44.6219627 72.0648991,41.9224468 72.0648991,40.4363022 C72.0648991,39.8371413 72.0890876,35.1623699 72.0890876,34.7814278 C71.8825552,34.865141 71.3215687,35.0447952 71.1885322,35.0673696 L71.2155116,30.9024022 L72.281665,30.4716084 C72.281665,30.4716084 72.4388901,28.1793714 72.447263,27.5576362 L76.0941402,24.7330208 C76.0941402,24.7330208 75.9210996,28.5480858 75.9210996,28.9271467 C76.2550866,28.7964036 78.4041393,27.9517467 78.6078806,27.8746177" id="Fill-15" fill="#E31836" fill-rule="nonzero"></path>
                        <g id="Group-19" transform="translate(-0.000000, -0.000000)">
                            <g id="Fill-16-Clipped" transform="translate(0.000000, 0.000000)">
                                <mask id="mask-6" fill="white">
                                    <use xlink:href="#path-5"></use>
                                </mask>
                                <g id="path-3"></g>
                                <path d="M59.9818273,40.7203627 C59.9818273,33.6480074 67.6728309,31.7141382 70.1456369,32.2606255 L70.1419156,36.1198986 C68.5705953,35.5978667 64.1943426,36.734109 63.9003596,39.9039238 C64.4548338,39.6857051 69.6953592,37.5373795 70.1354033,37.3605471 C70.1354033,37.9625298 70.134473,40.8868485 70.134473,41.1972458 C69.6600068,41.3834842 64.9097632,43.2195312 64.5581,43.3587397 C65.9647526,45.3753815 69.2646183,44.7809237 71.122479,42.7360639 L71.1262003,46.8229617 C67.7714454,48.9872773 59.9818273,48.6665335 59.9818273,40.7203627" id="Fill-16" fill="#E31836" fill-rule="nonzero" mask="url(#mask-6)"></path>
                            </g>
                            <g id="Fill-18-Clipped" transform="translate(0.000000, 0.000000)" fill-rule="nonzero" fill="#E31836">
                                <path d="M17.5729245,53.448533 C21.0281546,52.0733789 22.051513,50.1319849 22.1268694,47.7739061 C22.2078078,45.4120649 22.3817787,39.53615 22.3817787,37.9625298 L25.6500133,36.5892569 L25.7839802,31.871218 L22.5715652,33.1673619 L22.7706549,26.7468409 L78.6255568,4.12828402 C78.6255568,3.70219319 78.6302084,0.733666334 78.6302084,0.047970491 L10.0261214,27.8040729 C4.28787173,30.1423991 8.52651283e-14,35.4389057 8.52651283e-14,42.2272005 C8.52651283e-14,47.8519757 4.0850607,54.2753185 10.8922548,52.0884285 L10.8922548,56.0944348 C10.8922548,56.0944348 15.572724,54.2405164 17.5729245,53.448533 M18.253923,39.6518435 C18.253923,40.3516484 18.1357716,45.5832537 18.1357716,46.6545946 C18.1357716,47.9497979 17.8603952,49.3051994 16.5830578,49.7980727 C15.6434288,50.1602029 10.9666808,52.0056559 10.9666808,52.0056559 C10.9666808,51.7959026 10.9610989,48.541434 10.9610989,47.7635595 C8.88461163,49.2487635 4.07575744,47.9911842 4.07575744,42.2234381 C4.07575744,36.7990102 8.00359307,32.7723108 12.1314488,31.0538385 C15.4685275,29.6673972 18.545115,28.3806593 18.545115,28.3806593 C18.5199962,29.5216045 18.3404433,33.9141966 18.3404433,34.8905372 L14.8824222,36.2910874 C14.8824222,36.6278214 14.870328,40.7137785 14.870328,41.0016015 L18.253923,39.6518435" id="Fill-18"></path>
                            </g>
                        </g>
                        <path d="M85.3676281,25.2503497 C85.6727749,25.1318343 88.845186,23.883661 88.845186,23.883661 C88.845186,24.8458926 88.6851699,39.0159994 88.6926126,39.3715454 C88.14279,39.5907047 85.3601854,40.7222439 85.1629564,40.7974917 C85.1629564,40.2209052 85.3676281,25.2503497 85.3676281,25.2503497" id="Fill-20" fill="#E31836" fill-rule="nonzero"></path>
                        <path d="M87.2050216,23.8403935 C88.3865354,23.8403935 89.3457013,22.8696965 89.3457013,21.6713748 C89.3457013,20.4749343 88.3865354,19.5051779 87.2050216,19.5051779 C86.0207168,19.5051779 85.0615509,20.4749343 85.0615509,21.6713748 C85.0615509,22.8696965 86.0207168,23.8403935 87.2050216,23.8403935" id="Fill-21" fill="#E31836" fill-rule="nonzero"></path>
                        <path d="M33.8396716,28.2884808 L37.6121428,26.9424852 C37.6121428,27.7250626 37.381422,39.3216937 37.381422,39.4759517 C36.2613097,39.4176347 34.203429,39.9951618 33.4833568,40.5736294 L33.8396716,28.2884808" id="Fill-22" fill="#E31836" fill-rule="nonzero"></path>
                        <path d="M35.6891593,26.8032767 C36.8716034,26.8032767 37.8363513,25.8325797 37.8363513,24.634258 C37.8363513,23.4359364 36.8716034,22.4671206 35.6891593,22.4671206 C34.5048545,22.4671206 33.543828,23.4359364 33.543828,24.634258 C33.543828,25.8325797 34.5048545,26.8032767 35.6891593,26.8032767" id="Fill-23" fill="#E31836" fill-rule="nonzero"></path>
                        <path d="M57.499718,18.9022547 L61.0851937,17.430219 L60.9056408,32.7826573 C60.3586092,33.000876 57.4932057,34.1437025 57.2969069,34.2217721 L57.499718,18.9022547" id="Fill-24" fill="#E31836" fill-rule="nonzero"></path>
                        <path d="M59.1724438,17.4245754 C60.3586092,17.4245754 61.3177751,16.4557596 61.3177751,15.2593191 C61.3177751,14.0628787 60.3586092,13.0884193 59.1724438,13.0884193 C57.988139,13.0884193 57.0280428,14.0628787 57.0280428,15.2593191 C57.0280428,16.4557596 57.988139,17.4245754 59.1724438,17.4245754" id="Fill-25" fill="#E31836" fill-rule="nonzero"></path>
                    </g>
                </g>
            </g>
        </g>
    </g>
</svg>