<?xml version="1.0" encoding="UTF-8" standalone="no"?>
<svg width="79px" height="78px" viewBox="0 0 79 78" version="1.1" xmlns="http://www.w3.org/2000/svg" xmlns:xlink="http://www.w3.org/1999/xlink">
    <!-- Generator: Sketch 44.1 (41455) - http://www.bohemiancoding.com/sketch -->
    <title>object_icon_mail_white</title>
    <desc>Created with Sketch.</desc>
    <defs></defs>
    <g id="Design-Library" stroke="none" stroke-width="1" fill="none" fill-rule="evenodd">
        <g id="object_icon_mail_white">
            <rect id="Rectangle-8" x="0" y="0" width="79" height="78"></rect>
            <g id="Page-1" transform="translate(2.000000, 1.000000)" fill="#FFFFFF">
                <path d="M21.2181667,24.9525391 C19.214,24.9525391 17.5846667,26.6001643 17.5846667,28.626831 L17.5846667,47.5635661 C17.5846667,49.5902328 19.214,51.237858 21.2181667,51.237858 L53.4971667,51.237858 C55.4991667,51.237858 57.1285,49.5902328 57.1285,47.5635661 L57.1285,28.626831 C57.1285,26.6001643 55.4991667,24.9525391 53.4971667,24.9525391 L21.2181667,24.9525391 Z M53.4971667,53.428849 L21.2181667,53.428849 C18.0201667,53.428849 15.418,50.7974688 15.418,47.5635661 L15.418,28.626831 C15.418,25.3929283 18.0201667,22.7615481 21.2181667,22.7615481 L53.4971667,22.7615481 C56.6951667,22.7615481 59.2951667,25.3929283 59.2951667,28.626831 L59.2951667,47.5635661 C59.2951667,50.7974688 56.6951667,53.428849 53.4971667,53.428849 L53.4971667,53.428849 Z" id="Fill-4"></path>
                <path d="M37.40035,44.1771705 C36.3386833,44.1771705 35.33985,43.7586912 34.5880167,42.9984173 L24.4675167,32.7642984 C24.0450167,32.3370551 24.0450167,31.642511 24.4675167,31.2152677 C24.8921833,30.7880245 25.57685,30.7880245 25.99935,31.2152677 L36.11985,41.4493867 C36.80885,42.1439308 37.99835,42.1395488 38.6830167,41.4493867 L48.8035167,31.2152677 C49.2260167,30.7880245 49.9106833,30.7880245 50.33535,31.2152677 C50.75785,31.642511 50.75785,32.3370551 50.33535,32.7642984 L40.21485,42.9984173 C39.4630167,43.7586912 38.4641833,44.1771705 37.40035,44.1771705" id="Fill-6"></path>
                <path d="M25.2340833,45.1015495 C24.95675,45.1015495 24.6794167,44.994191 24.4670833,44.7816649 C24.0445833,44.3522306 24.0445833,43.6598775 24.4670833,43.2304432 L30.2260833,37.4089802 C30.6485833,36.9817369 31.33325,36.9817369 31.7579167,37.4089802 C32.1804167,37.8384144 32.1804167,38.5307676 31.7579167,38.9580108 L26.0010833,44.7816649 C25.78875,44.994191 25.5114167,45.1015495 25.2340833,45.1015495" id="Fill-8"></path>
                <path d="M49.5687833,45.1015495 C49.29145,45.1015495 49.0141167,44.994191 48.8017833,44.7816649 L42.9171167,38.8265514 C42.49245,38.3971171 42.49245,37.704764 42.9171167,37.2775207 C43.3396167,36.8480865 44.0242833,36.8480865 44.44895,37.2775207 L50.3357833,43.2304432 C50.7582833,43.6598775 50.7582833,44.3522306 50.3357833,44.7816649 C50.12345,44.994191 49.8461167,45.1015495 49.5687833,45.1015495" id="Fill-10"></path>
                <path d="M37.5548333,2.19099099 C18.0418333,2.19099099 2.16666667,18.244382 2.16666667,37.9764468 C2.16666667,57.7085117 18.0418333,73.7619027 37.5548333,73.7619027 C57.0678333,73.7619027 72.943,57.7085117 72.943,37.9764468 C72.943,18.244382 57.0678333,2.19099099 37.5548333,2.19099099 M37.5548333,75.9528937 C16.8458333,75.9528937 0,58.9179387 0,37.9764468 C0,17.034955 16.8458333,0 37.5548333,0 C58.2638333,0 75.1096667,17.034955 75.1096667,37.9764468 C75.1096667,58.9179387 58.2638333,75.9528937 37.5548333,75.9528937" id="Fill-12"></path>
            </g>
        </g>
    </g>
</svg>