<?xml version="1.0" encoding="UTF-8" standalone="no"?>
<svg width="79px" height="78px" viewBox="0 0 79 78" version="1.1" xmlns="http://www.w3.org/2000/svg" xmlns:xlink="http://www.w3.org/1999/xlink">
    <!-- Generator: Sketch 44.1 (41455) - http://www.bohemiancoding.com/sketch -->
    <title>object_icon_phone_white</title>
    <desc>Created with Sketch.</desc>
    <defs></defs>
    <g id="Design-Library" stroke="none" stroke-width="1" fill="none" fill-rule="evenodd">
        <g id="object_icon_phone_white">
            <rect id="Rectangle-8" x="0" y="0" width="79" height="78"></rect>
            <g id="Page-1" transform="translate(2.000000, 1.000000)" fill="#FFFFFF">
                <path d="M28.6497,15.330937 C26.6247,15.330937 24.9784297,16.9734633 24.9784297,18.9938581 L24.9784297,59.9041212 C24.9784297,61.9223317 26.6247,63.5648581 28.6497,63.5648581 L47.5730514,63.5648581 C49.5958622,63.5648581 51.2421324,61.9223317 51.2421324,59.9041212 L51.2421324,18.9938581 C51.2421324,16.9734633 49.5958622,15.330937 47.5730514,15.330937 L28.6497,15.330937 Z M47.5730514,65.7490686 L28.6497,65.7490686 C25.4184568,65.7490686 22.7892405,63.128016 22.7892405,59.9041212 L22.7892405,18.9938581 C22.7892405,15.7699633 25.4184568,13.1467265 28.6497,13.1467265 L47.5730514,13.1467265 C50.8021054,13.1467265 53.4313216,15.7699633 53.4313216,18.9938581 L53.4313216,59.9041212 C53.4313216,63.128016 50.8021054,65.7490686 47.5730514,65.7490686 L47.5730514,65.7490686 Z" id="Fill-3"></path>
                <path d="M51.2898568,22.805087 L23.8330459,22.805087 C23.2288297,22.805087 22.7384514,22.3158239 22.7384514,21.7129817 C22.7384514,21.1101396 23.2288297,20.6208765 23.8330459,20.6208765 L51.2898568,20.6208765 C51.894073,20.6208765 52.3844514,21.1101396 52.3844514,21.7129817 C52.3844514,22.3158239 51.894073,22.805087 51.2898568,22.805087" id="Fill-5"></path>
                <path d="M51.2898568,52.2919291 L23.8330459,52.2919291 C23.2288297,52.2919291 22.7384514,51.802666 22.7384514,51.1998239 C22.7384514,50.5969817 23.2288297,50.1077186 23.8330459,50.1077186 L51.2898568,50.1077186 C51.894073,50.1077186 52.3844514,50.5969817 52.3844514,51.1998239 C52.3844514,51.802666 51.894073,52.2919291 51.2898568,52.2919291" id="Fill-7"></path>
                <path d="M40.7095054,59.0258502 L35.6918838,59.0258502 C35.0876676,59.0258502 34.5972892,58.536587 34.5972892,57.9337449 C34.5972892,57.3309028 35.0876676,56.8416396 35.6918838,56.8416396 L40.7095054,56.8416396 C41.3137216,56.8416396 41.8041,57.3309028 41.8041,57.9337449 C41.8041,58.536587 41.3137216,59.0258502 40.7095054,59.0258502" id="Fill-9"></path>
                <path d="M37.9452162,2.38140807 C18.2293784,2.38140807 2.18918919,18.3851186 2.18918919,38.0561186 C2.18918919,57.7271186 18.2293784,73.7308291 37.9452162,73.7308291 C57.6610541,73.7308291 73.7012432,57.7271186 73.7012432,38.0561186 C73.7012432,18.3851186 57.6610541,2.38140807 37.9452162,2.38140807 M37.9452162,75.9150396 C17.0209459,75.9150396 0,58.9328028 0,38.0561186 C0,17.1794344 17.0209459,0.197197539 37.9452162,0.197197539 C58.8694865,0.197197539 75.8904324,17.1794344 75.8904324,38.0561186 C75.8904324,58.9328028 58.8694865,75.9150396 37.9452162,75.9150396" id="Fill-11"></path>
            </g>
        </g>
    </g>
</svg>