<?xml version="1.0" encoding="utf-8"?>
<!-- Generator: Adobe Illustrator 19.1.0, SVG Export Plug-In . SVG Version: 6.00 Build 0)  -->
<svg version="1.1" id="Layer_1" xmlns="http://www.w3.org/2000/svg" xmlns:xlink="http://www.w3.org/1999/xlink" x="0px" y="0px"
	 viewBox="0 0 495.9 500" style="enable-background:new 0 0 495.9 500;" xml:space="preserve">
<path fill="#ffffff" d="M57.9,480c-9.2,0-20.3-3.7-25.8-11.1c-7.3-7.3-11.1-16.6-11.1-25.8v-341c0-9.2,3.7-20.3,11.1-25.8
	c7.3-7.3,16.6-11.1,25.8-11.1h228.5v59H81.8v294.9h294.9V229.3h59v213.8c0,9.2-3.7,20.3-11.1,25.8c-7.3,7.3-16.6,11.1-25.8,11.1
	H57.9L57.9,480z M234.8,223.8L378.6,80l-40.6-40.6l140.1-16.6l-16.6,140.1l-40.6-40.6L277.2,266.2L234.8,223.8z"/>
</svg>
