<?xml version="1.0" encoding="utf-8"?>
<!-- Generator: Adobe Illustrator 21.0.0, SVG Export Plug-In . SVG Version: 6.00 Build 0)  -->
<!DOCTYPE svg PUBLIC "-//W3C//DTD SVG 1.1//EN" "http://www.w3.org/Graphics/SVG/1.1/DTD/svg11.dtd">
<svg version="1.1" id="Isolation_Mode" xmlns="http://www.w3.org/2000/svg" xmlns:xlink="http://www.w3.org/1999/xlink" x="0px"
	 y="0px" width="200px" height="200px" viewBox="0 0 200 200" enable-background="new 0 0 200 200" xml:space="preserve">
<polygon fill="#FFCA5C" points="96.5,115.1 86.5,110.2 86.3,103 96.1,107.4 "/>
<g>
	<path fill="none" stroke="#FFFFFF" stroke-width="0.25" stroke-miterlimit="10" d="M66.4,93.3l7.2,0.8 M97.4,114.7l6.2,3.3
		 M125.5,129.3l8.6,4.6 M115,129l-1.6-0.8 M113.6,122l-0.2,6.2l-3.4,2 M114.5,138l0.7-13.1 M110.3,122.3l-0.4,12.8 M184.6,100.5
		l-3.8,2.5l-1.1-0.4l-3.8,2.6 M174,113.8l3.7-2.7l1,0.4l3.7-2.5 M115.9,95.6l-1.2-0.6l13.7-5.9l-5.9-2.1l5.5-2.3 M139.1,88.5
		l-19.2,8.6l-1.3-0.5 M164.9,128.9l5.5-26.8l-34.9-12 M156,147.1l2.6-13.5 M171.6,128.5l1.1,0.4l-1.1,5.2 M170.3,129.4l3.6-2.7
		 M172.1,121.7l3.6-2.6l1,0.4l3.8-2.8 M135.7,116.8l15.1,6.6l24.7-16.9 M114.6,107.3l11.3,5.2l1-0.4l9,4 M103.8,102.6l8.4,3.6l2.6-1
		 M86.2,94.5l10.1,4.7l1.1-0.3l6.5,2.9 M103.8,110l-6.5-2.9l-0.8,0.1l-10.1-4.7 M114.4,113.7l-2.6,1.2l-8-4 M134.9,125.1l-8.8-4.4
		l-0.9,0.5l-10.8-5.3 M173.7,115.2l-24.3,17.9l-14.6-7.1 M86.9,110l24.7,13 M181.9,121.4l-35.5,29.1l-59.3-33.2 M178.5,124.1l2.3-9
		 M181.7,93.7l-7.8,33l1,0.4l8-33 M177.7,97.5l-7.7,33.8 M152.5,113.4l-7,42.6 M136.8,107l-2.9,27.6 M126.8,102.8l-2.2,27l0.9-0.5
		l2-26.8 M115,98.1l-1,26.1l33.7,17.7l24-18.5 M112.4,97.1l-0.8,25.9l2.4-1.3 M104.1,93.7l-0.4,25.2 M96.3,90.6l0.2,24.5l0.9-0.4
		l-0.2-24.4 M38.7,95l2.7,0.6 M38,95.7l0.7-0.7l-0.9-5.4l0.8-0.6l-3.5-19.9L34.4,69l8.8-4.5l-3.9-0.4l2.2-1 M38,95.7L37,89.4
		 M40.5,90.2l1.2,6.4 M48,97.9l-1-6.4 M81.8,100.6l3.1,0.4 M80.3,102l1.5-1.4l-0.3-5.4 M80.5,101.9l-0.4-6.4 M84.6,96l0.4,6.6
		 M19.3,91.6L48,97.8l38.5,5 M54.2,64.1l-2.6,1.7l-5.2-0.3l-8.2,4.2l-1.1-0.2 M97.1,71.2v-2.3l-6-0.6l-5.8,5.3l-1.3-0.1 M98.3,71.3
		l-3.4-0.2l3.4-3.4 M111.8,79.4l-4-1.3l4-5.6 M88.5,83.3l11.1,1.2l12.9-4.7 M83.2,89.1l2.7,0.3 M82.9,82l6.2,0.6 M73.1,88l7.7,0.8
		l1.4-1.3h0.9 M52.1,85.7L65.2,87l0.6-0.3l7.3,0.8 M38.5,83.6l6.4,1.1l0.4-0.2l6.6,0.9 M28.8,81.7l7.8,1.5l0.9-0.5l0.9,0.1
		 M16.4,79.4l6.4,1.3l0.7-0.3l5.2,1.1 M72.6,81.1l7.9,0.7l1.4-1.2l1,0.1 M51.1,79l13.4,1.3l0.6-0.3l7.4,0.7 M37.4,77l6.5,1l0.5-0.2
		l6.8,0.7 M27.6,75.2l7.9,1.4l1-0.5l0.9,0 M14.9,73.1l6.5,1.1l0.8-0.3l5.3,0.8 M86.7,107l-1-20.8 M82.7,74.7l0.8,21.2l2.8,0.3
		 M82.6,94.1h0.9 M46.4,91.1l-3.1-20.3 M52.9,91.8l-6.5-0.7L46,91.3l1,0.2l34.2,4l1.4-1.4l-1.1-20.7l-1.2,0l5.5-4.8l-5.9-0.5
		l2.1-1.6 M50.2,71.8L53,92.3 M59.4,93l-2.4-20.6l11-7.3 M64.5,72.7l1.9,20.7l-0.5,0.4L63.8,73 M73.6,94.7L72,73.7 M80.1,74.5
		l1.1,21.1 M38.7,89.1l0.8,0.2 M36.2,70l3.4,20l6.4,1.3l-3.2-20.3 M24.8,86.5l5.2,1.1 M24.2,87l0.6-0.4l-4-19.3 M26.2,68.5l3.9,19.6
		 M17.9,85.6l20,4l-3.7-19.9 M20,67.5L24.2,87 M186.6,92.1l-3.7,2.1l-1.2-0.4l-5.1,3.2l1,0.6l-25.1,15.9l-15.7-6.4l0.8-0.5
		l-10.1-4.1l-0.7,0.4L115,98.1l3.6-1.5l-2.7-1l-3.5,1.4l-8.3-3.4l0.6-0.3l-7.5-3.1l-0.9,0.3l-10.5-4.4l6.2-6.6h1.3l2.3-2.7h-0.7
		l0.7-1.1l-12.9-1l1.3-1.2l-2.5-0.1l-1.3,1.1L72,73.7l0.2-0.4l-7.8-0.7L63.8,73l-13.6-1.2l0.4-0.3l-7.4-0.7l-0.5,0.3l-6.6-1l0.9-0.6
		l-2-0.2l-1,0.6l-7.9-1.3l0.6-0.3l-6.2-1L20,67.5l-6.6-1"/>
	<polygon fill="none" stroke="#FFFFFF" stroke-width="0.5" stroke-miterlimit="10" points="180.7,115.1 181.8,121.3 180.7,126.2 
		145.6,155.9 87.2,121.9 86.7,102.8 47.9,97.9 19.5,91.6 13.4,66.6 27.5,62 98.2,67.6 98.3,71.3 112,72.3 111.8,79.5 141.3,89.2 
		155.5,82.8 186.5,92.1 	"/>
</g>
</svg>
